{"glyphs":{"0":{"ha":829,"x_min":42,"x_max":788,"o":"m 42 397 q 90 184 42 279 q 223 35 138 89 q 415 -18 308 -18 q 607 35 522 -18 q 740 185 692 89 q 788 400 788 281 q 740 608 788 515 q 607 752 692 700 q 415 804 522 804 q 223 752 308 804 q 90 607 138 700 q 42 397 42 514 m 169 401 q 201 551 169 485 q 288 653 232 617 q 415 690 344 690 q 542 652 486 690 q 630 547 599 614 q 661 394 661 479 q 630 240 661 308 q 542 134 599 172 q 415 96 486 96 q 288 135 344 96 q 201 244 232 175 q 169 401 169 314 z "},"1":{"ha":451,"x_min":14,"x_max":354,"o":"m 265 786 l 14 664 l 75 558 l 221 636 l 221 0 l 354 0 l 354 786 l 265 786 z "},"2":{"ha":668,"x_min":35,"x_max":640,"o":"m 304 804 q 165 784 222 804 q 53 732 107 764 l 85 625 q 190 677 144 658 q 303 696 236 696 q 429 663 383 696 q 475 563 475 631 q 439 461 475 511 q 328 344 403 411 l 35 88 l 35 0 l 640 0 l 615 103 l 214 103 l 390 250 q 553 423 508 349 q 597 581 597 497 q 519 746 597 688 q 304 804 440 804 z "},"3":{"ha":653,"x_min":0,"x_max":604,"o":"m 303 804 q 21 714 160 804 l 85 625 q 182 675 126 654 q 299 696 238 696 q 415 658 371 696 q 460 568 460 621 q 401 463 460 503 q 243 424 343 424 l 174 424 l 193 322 l 235 322 q 417 278 358 322 q 476 156 476 233 q 419 45 476 88 q 286 3 363 3 q 172 18 222 3 q 68 65 122 33 l 0 -26 q 138 -83 64 -60 q 283 -106 211 -106 q 452 -72 379 -106 q 565 23 525 -37 q 604 157 604 83 q 559 301 604 240 q 451 375 514 361 q 547 450 507 396 q 588 571 588 504 q 555 687 588 633 q 458 772 522 740 q 303 804 394 804 z "},"4":{"ha":744,"x_min":14,"x_max":717,"o":"m 571 793 l 475 793 l 14 201 l 32 92 l 438 92 l 438 -96 l 571 -96 l 571 92 l 701 92 l 717 201 l 571 201 l 571 793 m 157 201 l 438 568 l 438 201 l 157 201 z "},"5":{"ha":696,"x_min":42,"x_max":654,"o":"m 218 303 q 276 349 238 328 q 361 369 314 369 q 481 322 435 369 q 526 192 526 275 q 472 56 526 107 q 328 6 417 6 q 212 20 261 6 q 108 67 163 35 l 42 -26 q 178 -83 104 -60 q 322 -106 251 -106 q 500 -67 425 -106 q 615 40 575 -28 q 654 192 654 107 q 577 396 653 315 q 354 476 501 476 q 224 440 285 476 l 235 676 l 588 676 l 603 786 l 117 786 l 94 303 l 218 303 z "},"6":{"ha":722,"x_min":42,"x_max":681,"o":"m 376 538 q 535 503 465 538 q 642 406 604 468 q 681 264 681 344 q 642 119 681 183 q 535 18 604 54 q 381 -18 467 -18 q 206 24 282 -18 q 85 149 129 67 q 42 350 42 232 q 122 618 42 503 q 322 799 201 733 q 563 881 442 865 l 588 775 q 337 675 451 749 q 185 474 222 601 q 275 521 229 504 q 376 538 321 538 m 375 93 q 506 140 454 93 q 557 257 557 186 q 507 383 557 336 q 372 431 457 431 q 169 340 275 431 q 233 158 175 222 q 375 93 290 93 z "},"7":{"ha":626,"x_min":14,"x_max":599,"o":"m 557 786 l 14 786 l 31 676 l 447 676 l 178 -58 l 303 -96 l 599 729 l 557 786 z "},"8":{"ha":715,"x_min":42,"x_max":674,"o":"m 358 893 q 209 861 272 893 q 113 775 146 829 q 79 658 79 721 q 117 547 79 596 q 214 471 154 497 q 130 424 169 460 q 66 341 90 389 q 42 246 42 293 q 79 113 42 172 q 188 17 117 53 q 358 -18 260 -18 q 527 17 456 -18 q 636 113 599 53 q 674 246 674 174 q 649 344 674 297 q 585 425 625 392 q 501 471 546 458 q 599 548 560 497 q 638 658 638 599 q 604 775 638 721 q 508 861 571 829 q 358 893 444 893 m 356 785 q 470 748 428 785 q 513 657 513 711 q 472 566 513 604 q 358 517 432 528 q 244 566 285 528 q 203 657 203 604 q 244 747 203 710 q 356 785 286 785 m 358 419 q 499 358 450 407 q 549 243 549 310 q 492 133 549 175 q 358 90 436 90 q 222 132 278 90 q 167 243 167 174 q 216 358 167 310 q 358 419 265 407 z "},"9":{"ha":722,"x_min":42,"x_max":681,"o":"m 342 804 q 517 762 440 804 q 637 637 593 719 q 681 436 681 554 q 601 168 681 283 q 401 -13 521 53 q 160 -94 281 -79 l 135 11 q 385 111 271 38 q 538 313 500 185 q 447 265 493 282 q 346 249 401 249 q 188 283 257 249 q 80 380 118 318 q 42 522 42 442 q 80 667 42 603 q 187 768 118 732 q 342 804 256 804 m 165 529 q 215 403 165 450 q 350 356 265 356 q 553 446 447 356 q 490 628 547 564 q 347 693 432 693 q 217 647 268 693 q 165 529 165 600 z "},"\r":{"ha":0,"x_min":0,"x_max":0,"o":""}," ":{"ha":319,"x_min":0,"x_max":0,"o":""},"\u0000":{"ha":0,"x_min":0,"x_max":0,"o":""}," ":{"ha":328,"x_min":0,"x_max":0,"o":""},"‌":{"ha":0,"x_min":-42,"x_max":42,"o":"m 42 1718 l -42 1718 l -42 -94 l 42 -94 l 42 1718 z "},"‍":{"ha":0,"x_min":-157,"x_max":158,"o":"m -157 1778 l -54 1675 l -157 1572 l -103 1518 l -42 1578 l -42 -94 l 42 -94 l 42 1579 l 104 1518 l 158 1572 l 56 1675 l 158 1778 l 103 1833 l 0 1731 l -101 1833 l -157 1778 z "},"◌":{"ha":840,"x_min":63,"x_max":778,"o":"m 419 638 q 449 649 438 638 q 460 678 460 660 q 449 708 460 696 q 419 719 438 719 q 390 708 401 719 q 379 678 379 696 q 390 649 379 660 q 419 638 401 638 m 296 697 q 267 686 278 697 q 256 657 256 675 q 267 628 256 639 q 296 617 278 617 q 325 628 314 617 q 336 657 336 639 q 325 686 336 675 q 296 697 314 697 m 544 617 q 574 628 563 617 q 585 657 585 639 q 574 686 585 675 q 544 697 563 697 q 515 686 526 697 q 504 657 504 675 q 515 628 504 639 q 544 617 526 617 m 190 628 q 160 616 172 628 q 149 586 149 604 q 160 557 149 568 q 190 546 172 546 q 219 557 208 546 q 231 586 231 568 q 219 616 231 604 q 190 628 208 628 m 650 546 q 680 557 668 546 q 692 586 692 568 q 680 616 692 604 q 650 628 668 628 q 621 616 632 628 q 610 586 610 604 q 621 557 610 568 q 650 546 632 546 m 124 518 q 94 506 106 518 q 82 476 82 494 q 94 447 82 458 q 124 436 106 436 q 153 447 142 436 q 164 476 164 458 q 153 506 164 494 q 124 518 142 518 m 717 436 q 746 447 735 436 q 757 476 757 458 q 746 506 757 494 q 717 518 735 518 q 688 506 699 518 q 676 476 676 494 q 688 447 676 458 q 717 436 699 436 m 104 399 q 74 387 86 399 q 63 357 63 375 q 74 328 63 339 q 104 318 86 318 q 133 328 122 318 q 144 357 144 339 q 133 387 144 375 q 104 399 122 399 m 736 318 q 766 328 754 318 q 778 357 778 339 q 766 387 778 375 q 736 399 754 399 q 707 387 718 399 q 696 357 696 375 q 707 328 696 339 q 736 318 718 318 m 124 282 q 94 271 106 282 q 82 242 82 260 q 94 213 82 224 q 124 201 106 201 q 153 213 142 201 q 164 242 164 224 q 153 271 164 260 q 124 282 142 282 m 717 201 q 746 213 735 201 q 757 242 757 224 q 746 271 757 260 q 717 282 735 282 q 688 271 699 282 q 676 242 676 260 q 688 213 676 224 q 717 201 699 201 m 189 171 q 159 160 171 171 q 147 131 147 149 q 159 101 147 113 q 189 90 171 90 q 218 101 207 90 q 229 131 229 113 q 218 160 229 149 q 189 171 207 171 m 651 90 q 681 101 669 90 q 693 131 693 113 q 681 160 693 149 q 651 171 669 171 q 622 160 633 171 q 611 131 611 149 q 622 101 611 113 q 651 90 633 90 m 296 103 q 267 91 278 103 q 256 61 256 79 q 267 32 256 43 q 296 21 278 21 q 325 32 314 21 q 336 61 336 43 q 325 91 336 79 q 296 103 314 103 m 544 21 q 574 32 563 21 q 585 61 585 43 q 574 91 585 79 q 544 103 563 103 q 515 91 526 103 q 504 61 504 79 q 515 32 504 43 q 544 21 526 21 m 419 0 q 449 11 438 0 q 460 40 460 22 q 449 70 460 58 q 419 82 438 82 q 390 70 401 82 q 379 40 379 58 q 390 11 379 22 q 419 0 401 0 z "},"A":{"ha":868,"x_min":14,"x_max":854,"o":"m 144 0 l 239 253 l 624 253 l 722 -11 l 854 8 l 490 944 l 369 944 l 14 0 l 144 0 m 428 765 l 583 360 l 276 360 l 428 765 z "},"B":{"ha":838,"x_min":125,"x_max":796,"o":"m 451 0 q 702 67 608 0 q 796 269 796 135 q 751 417 796 357 q 626 507 706 476 q 747 689 747 585 q 422 944 747 944 l 125 944 l 125 0 l 451 0 m 411 832 q 560 801 510 832 q 610 688 610 769 q 549 578 610 613 q 388 542 488 543 l 258 542 l 258 832 l 411 832 m 460 433 q 607 392 554 433 q 660 267 660 350 q 601 148 660 186 q 446 110 543 110 l 258 110 l 258 433 l 460 433 z "},"C":{"ha":776,"x_min":56,"x_max":749,"o":"m 744 907 q 626 949 699 935 q 504 964 554 964 q 267 899 369 964 q 110 722 165 835 q 56 467 56 608 q 106 220 56 331 q 256 45 157 110 q 496 -19 356 -19 q 629 -3 556 -19 q 749 36 703 13 l 697 136 q 490 94 607 94 q 333 144 400 94 q 230 280 265 194 q 194 468 194 365 q 235 667 194 579 q 345 802 275 754 q 501 850 415 850 q 601 842 563 850 q 703 811 640 833 l 744 907 z "},"D":{"ha":942,"x_min":125,"x_max":886,"o":"m 460 0 q 691 61 594 0 q 837 231 788 122 q 886 478 886 339 q 781 816 886 688 q 465 944 675 944 l 125 944 l 125 0 l 460 0 m 471 831 q 681 735 611 831 q 751 476 751 640 q 672 206 751 301 q 460 111 593 111 l 258 111 l 258 831 l 471 831 z "},"E":{"ha":753,"x_min":125,"x_max":725,"o":"m 258 104 l 258 429 l 597 429 l 579 532 l 258 532 l 258 842 l 675 842 l 657 944 l 125 944 l 125 0 l 725 0 l 707 104 l 258 104 z "},"F":{"ha":682,"x_min":125,"x_max":654,"o":"m 258 842 l 654 842 l 635 944 l 125 944 l 125 0 l 258 0 l 258 424 l 582 424 l 565 525 l 258 525 l 258 842 z "},"G":{"ha":872,"x_min":56,"x_max":803,"o":"m 679 118 q 525 94 603 94 q 356 140 431 94 q 238 271 281 186 q 194 468 194 356 q 243 674 194 588 q 372 806 292 761 q 546 850 451 850 q 645 842 607 850 q 746 811 683 833 l 788 907 q 669 949 742 935 q 543 964 596 964 q 294 901 406 964 q 119 724 183 838 q 56 467 56 611 q 114 219 56 329 q 279 44 172 108 q 528 -19 386 -19 q 676 -1 601 -19 q 801 47 751 18 l 803 496 l 485 496 l 474 394 l 679 394 l 679 118 z "},"H":{"ha":936,"x_min":125,"x_max":811,"o":"m 678 944 l 678 528 l 258 528 l 258 951 l 125 944 l 125 0 l 258 0 l 258 421 l 678 421 l 678 0 l 811 0 l 811 944 l 678 944 z "},"I":{"ha":383,"x_min":125,"x_max":258,"o":"m 125 944 l 125 0 l 258 0 l 258 944 l 125 944 z "},"J":{"ha":372,"x_min":14,"x_max":261,"o":"m 128 101 q 119 28 128 53 q 87 -12 110 3 q 14 -46 64 -28 l 67 -142 q 185 -91 143 -118 q 244 -24 226 -64 q 261 76 261 15 l 261 944 l 128 944 l 128 101 z "},"K":{"ha":868,"x_min":125,"x_max":854,"o":"m 258 326 l 258 0 l 125 0 l 125 944 l 258 944 l 258 507 l 689 965 l 783 888 l 449 531 l 854 0 l 692 0 l 360 435 l 258 326 z "},"L":{"ha":715,"x_min":125,"x_max":701,"o":"m 258 944 l 125 944 l 125 0 l 701 0 l 685 104 l 258 104 l 258 944 z "},"M":{"ha":1063,"x_min":125,"x_max":938,"o":"m 803 0 l 938 0 l 938 944 l 854 944 l 539 478 l 207 944 l 125 944 l 125 0 l 258 0 l 258 668 l 519 303 l 568 310 l 803 656 l 803 0 z "},"N":{"ha":993,"x_min":125,"x_max":868,"o":"m 749 0 l 868 0 l 868 944 l 733 944 l 733 246 l 243 944 l 125 944 l 125 0 l 258 0 l 258 704 l 749 0 z "},"O":{"ha":1013,"x_min":56,"x_max":957,"o":"m 507 967 q 275 899 378 964 q 114 721 172 833 q 56 468 56 608 q 113 217 56 328 q 273 43 171 106 q 503 -19 375 -19 q 737 47 633 -18 q 899 225 840 113 q 957 478 957 338 q 899 729 957 618 q 739 903 842 840 q 507 967 636 967 m 194 469 q 235 666 194 579 q 347 802 275 753 q 510 851 419 851 q 667 803 597 851 q 776 670 736 756 q 815 478 815 585 q 775 281 815 368 q 663 144 735 193 q 501 94 592 94 q 344 142 414 94 q 234 276 274 190 q 194 469 194 363 z "},"P":{"ha":794,"x_min":125,"x_max":753,"o":"m 382 347 q 569 380 485 347 q 703 481 653 413 q 753 650 753 549 q 655 872 753 800 q 396 944 557 944 l 125 944 l 125 0 l 258 0 l 258 347 l 382 347 m 394 832 q 558 790 503 832 q 614 644 614 747 q 549 504 610 550 q 388 458 489 458 l 258 458 l 258 832 l 394 832 z "},"Q":{"ha":1013,"x_min":56,"x_max":957,"o":"m 957 478 q 926 288 957 376 q 836 132 894 199 l 938 33 l 860 -35 l 757 61 q 503 -19 646 -18 q 273 43 375 -19 q 113 217 171 106 q 56 468 56 328 q 114 721 56 608 q 275 899 172 833 q 507 967 378 964 q 739 903 636 967 q 899 729 842 840 q 957 478 957 618 m 501 94 q 667 146 594 94 l 544 260 l 636 329 l 743 225 q 815 478 815 328 q 776 670 815 585 q 667 803 736 756 q 510 851 597 851 q 347 802 419 851 q 235 666 275 753 q 194 469 194 579 q 234 276 194 363 q 344 142 274 190 q 501 94 414 94 z "},"R":{"ha":839,"x_min":125,"x_max":825,"o":"m 258 0 l 258 378 l 382 378 q 469 382 446 378 l 681 0 l 825 0 l 588 417 q 707 512 663 449 q 753 664 751 575 q 654 875 753 806 q 396 944 556 944 l 125 944 l 125 0 l 258 0 m 394 832 q 558 792 501 832 q 614 658 614 753 q 551 527 613 568 q 388 486 489 486 l 258 486 l 258 832 l 394 832 z "},"S":{"ha":719,"x_min":56,"x_max":678,"o":"m 72 51 q 188 4 100 26 q 338 -18 276 -18 q 521 14 444 -18 q 638 103 597 46 q 678 236 678 161 q 619 394 678 333 q 433 513 560 456 q 290 583 339 556 q 215 645 242 611 q 189 725 189 679 q 240 817 189 785 q 375 849 292 849 q 478 835 435 849 q 571 799 522 822 l 615 904 q 497 949 563 931 q 365 967 431 967 q 201 935 271 967 q 93 847 131 903 q 56 722 56 792 q 82 603 56 653 q 160 517 108 554 q 300 442 213 481 q 439 374 389 403 q 516 312 489 346 q 543 233 543 278 q 489 134 543 171 q 336 97 435 97 q 213 115 278 97 q 103 157 147 133 l 72 51 z "},"T":{"ha":794,"x_min":14,"x_max":781,"o":"m 14 839 l 321 839 l 321 0 l 456 0 l 456 839 l 781 839 l 763 944 l 14 944 l 14 839 z "},"U":{"ha":958,"x_min":111,"x_max":847,"o":"m 111 338 q 156 156 111 236 q 285 30 201 75 q 479 -15 368 -15 q 674 31 590 -15 q 802 156 757 76 q 847 338 847 236 l 847 944 l 713 944 l 713 350 q 650 164 713 233 q 479 94 588 94 q 309 163 374 94 q 244 350 244 232 l 244 944 l 111 944 l 111 338 z "},"V":{"ha":868,"x_min":14,"x_max":854,"o":"m 378 0 l 499 0 l 854 944 l 724 944 l 440 179 l 146 956 l 14 936 l 378 0 z "},"W":{"ha":1240,"x_min":14,"x_max":1226,"o":"m 833 0 l 621 753 l 415 0 l 294 0 l 14 936 l 146 956 l 357 179 l 557 944 l 688 944 l 896 179 l 1096 944 l 1226 944 l 954 0 l 833 0 z "},"X":{"ha":839,"x_min":14,"x_max":825,"o":"m 664 0 l 807 0 l 506 465 l 825 944 l 685 944 l 438 558 l 161 972 l 53 917 l 351 478 l 14 0 l 153 0 l 421 383 l 664 0 z "},"Y":{"ha":804,"x_min":14,"x_max":790,"o":"m 790 944 l 649 944 l 393 508 l 143 968 l 14 921 l 326 375 l 326 0 l 460 0 l 461 376 l 790 944 z "},"Z":{"ha":783,"x_min":28,"x_max":756,"o":"m 756 839 l 742 944 l 67 944 l 85 839 l 604 839 l 28 104 l 43 0 l 751 0 l 738 104 l 174 104 l 756 839 z "},"a":{"ha":685,"x_min":65,"x_max":607,"o":"m 143 526 q 338 572 246 572 q 442 528 413 572 q 472 403 472 485 l 313 403 q 133 348 200 403 q 65 194 65 293 q 125 41 65 99 q 300 -17 185 -17 q 406 7 351 -17 q 497 64 460 31 l 514 0 l 607 0 l 607 457 q 572 575 607 521 q 474 660 536 629 q 335 692 411 692 q 215 674 288 692 q 106 632 142 657 l 143 526 m 185 194 q 218 279 185 244 q 310 314 251 314 l 474 314 l 474 178 q 392 113 438 138 q 297 89 346 89 q 214 120 243 89 q 185 194 185 151 z "},"b":{"ha":746,"x_min":97,"x_max":704,"o":"m 369 692 q 548 647 472 692 q 664 522 624 603 q 704 332 704 440 q 663 149 704 228 q 544 26 621 69 q 368 -18 468 -18 q 287 -3 333 -18 q 199 40 240 11 l 172 0 l 97 0 l 97 965 l 231 981 l 231 650 q 305 681 268 669 q 369 692 342 692 m 369 96 q 515 162 463 96 q 568 331 568 228 q 516 510 568 442 q 369 578 464 578 q 231 529 288 578 l 231 142 q 369 96 289 96 z "},"c":{"ha":644,"x_min":42,"x_max":608,"o":"m 565 142 q 475 107 517 118 q 376 96 433 96 q 231 163 283 96 q 178 339 178 231 q 234 510 179 442 q 381 578 289 578 q 473 567 433 578 q 569 532 513 556 l 608 626 q 497 673 567 654 q 382 692 428 692 q 202 647 279 692 q 83 522 125 603 q 42 338 42 442 q 83 151 42 232 q 199 26 124 71 q 376 -18 275 -18 q 494 0 424 -18 q 606 46 564 18 l 565 142 z "},"d":{"ha":756,"x_min":42,"x_max":658,"o":"m 658 0 l 582 0 l 556 51 q 463 0 514 18 q 376 -18 413 -18 q 198 26 274 -18 q 82 152 122 71 q 42 342 42 233 q 83 525 42 446 q 201 648 125 604 q 378 692 278 692 q 447 681 407 692 q 524 649 486 669 l 524 965 l 658 979 l 658 0 m 178 343 q 230 164 178 232 q 376 96 282 96 q 457 110 422 96 q 524 153 492 124 l 524 525 q 456 565 492 553 q 376 578 421 578 q 231 512 283 578 q 178 343 178 446 z "},"e":{"ha":700,"x_min":42,"x_max":658,"o":"m 658 343 q 584 594 658 496 q 364 692 510 692 q 192 647 265 692 q 81 522 119 603 q 42 338 42 442 q 136 79 42 175 q 407 -17 231 -17 q 651 57 529 -17 l 610 154 q 499 108 539 121 q 407 94 460 94 q 244 151 299 94 q 181 307 189 208 l 658 307 l 658 343 m 183 397 q 238 530 193 482 q 360 578 283 578 q 529 397 503 578 l 183 397 z "},"f":{"ha":450,"x_min":21,"x_max":450,"o":"m 124 0 l 257 0 l 257 564 l 425 564 l 382 665 l 257 665 l 257 740 q 280 826 257 794 q 350 857 303 857 q 417 842 376 857 l 450 944 q 399 966 432 957 q 338 975 367 975 q 181 915 238 975 q 124 753 124 854 l 124 665 l 21 665 l 22 564 l 124 564 l 124 0 z "},"g":{"ha":750,"x_min":42,"x_max":658,"o":"m 658 -60 q 620 -194 658 -135 q 510 -286 582 -253 q 336 -319 438 -319 q 214 -301 288 -319 q 97 -253 140 -282 l 138 -157 q 242 -199 207 -187 q 332 -211 278 -211 q 471 -172 418 -211 q 524 -58 524 -132 l 524 29 q 446 -6 486 7 q 376 -18 406 -18 q 198 26 274 -18 q 82 152 122 71 q 42 342 42 233 q 83 525 42 446 q 201 648 125 604 q 378 692 278 692 q 464 675 414 692 q 556 626 514 658 l 582 674 l 658 674 l 658 -60 m 376 96 q 457 110 422 96 q 524 153 492 124 l 524 525 q 456 565 492 553 q 376 578 421 578 q 231 512 283 578 q 178 343 178 446 q 230 164 178 232 q 376 96 282 96 z "},"h":{"ha":765,"x_min":97,"x_max":688,"o":"m 471 696 q 634 628 581 696 q 688 444 688 560 l 688 0 l 554 0 l 554 432 q 530 544 554 506 q 443 582 506 582 q 340 552 396 582 q 231 475 285 522 l 231 0 l 97 0 l 97 965 l 231 981 l 231 599 q 347 669 283 643 q 471 696 410 696 z "},"i":{"ha":301,"x_min":67,"x_max":233,"o":"m 149 794 q 208 819 183 794 q 233 878 233 843 q 208 937 233 913 q 149 961 183 961 q 90 937 114 961 q 67 878 67 913 q 90 819 67 843 q 149 794 114 794 m 83 674 l 83 0 l 218 0 l 218 674 l 83 674 z "},"j":{"ha":333,"x_min":0,"x_max":256,"o":"m 171 794 q 112 819 136 794 q 88 878 88 843 q 112 937 88 913 q 171 961 136 961 q 231 937 206 961 q 256 878 256 913 q 231 819 256 843 q 171 794 206 794 m 239 3 q 228 -138 239 -89 q 177 -223 217 -187 q 51 -286 138 -258 l 0 -187 q 69 -150 47 -171 q 98 -100 92 -129 q 104 -18 104 -71 l 104 674 l 239 674 l 239 3 z "},"k":{"ha":676,"x_min":97,"x_max":676,"o":"m 317 325 l 521 0 l 676 0 l 408 411 l 608 603 l 531 692 l 231 399 l 231 981 l 97 965 l 97 0 l 231 0 l 231 242 l 317 325 z "},"l":{"ha":328,"x_min":97,"x_max":231,"o":"m 97 965 l 97 0 l 231 0 l 231 981 l 97 965 z "},"m":{"ha":1169,"x_min":83,"x_max":1092,"o":"m 881 696 q 1039 627 986 696 q 1092 444 1092 558 l 1092 0 l 958 0 l 958 432 q 934 543 958 504 q 853 582 910 582 q 761 555 813 582 q 658 483 710 528 q 660 444 660 471 l 660 0 l 526 0 l 526 432 q 502 543 526 504 q 421 582 478 582 q 324 552 378 582 q 217 475 271 522 l 217 0 l 83 0 l 83 674 l 176 674 l 200 585 q 320 665 253 633 q 449 696 388 696 q 562 667 515 696 q 632 585 608 638 q 752 665 685 633 q 881 696 819 696 z "},"n":{"ha":751,"x_min":83,"x_max":674,"o":"m 217 475 q 326 552 271 522 q 429 582 382 582 q 516 544 492 582 q 540 432 540 506 l 540 0 l 674 0 l 674 444 q 620 628 674 560 q 457 696 567 696 q 322 665 390 696 q 200 585 254 633 l 176 674 l 83 674 l 83 0 l 217 0 l 217 475 z "},"o":{"ha":757,"x_min":42,"x_max":715,"o":"m 715 336 q 674 151 715 232 q 555 26 632 71 q 375 -18 478 -18 q 198 26 274 -18 q 82 151 122 71 q 42 338 42 232 q 83 522 42 442 q 201 647 125 603 q 381 692 278 692 q 558 647 482 692 q 674 522 633 603 q 715 336 715 442 m 376 96 q 523 164 468 96 q 579 335 578 232 q 526 510 579 443 q 381 578 474 578 q 234 510 289 578 q 178 339 179 442 q 231 163 178 231 q 376 96 283 96 z "},"p":{"ha":740,"x_min":92,"x_max":699,"o":"m 364 692 q 542 647 467 692 q 658 522 618 603 q 699 332 699 440 q 657 149 699 228 q 539 26 615 69 q 363 -18 463 -18 q 298 -8 335 -18 q 225 21 261 1 l 225 -289 l 92 -304 l 92 674 l 167 674 l 196 632 q 284 676 238 660 q 364 692 331 692 m 364 96 q 510 162 457 96 q 563 331 563 228 q 510 510 563 442 q 364 578 458 578 q 225 529 282 578 l 225 142 q 364 96 283 96 z "},"q":{"ha":750,"x_min":42,"x_max":658,"o":"m 658 -290 l 524 -304 l 524 29 q 446 -6 486 7 q 376 -18 406 -18 q 198 26 274 -18 q 82 152 122 71 q 42 342 42 233 q 83 525 42 446 q 201 648 125 604 q 378 692 278 692 q 463 676 414 692 q 553 629 511 660 l 582 674 l 658 674 l 658 -290 m 376 96 q 457 110 422 96 q 524 153 492 124 l 524 525 q 456 565 492 553 q 376 578 421 578 q 231 512 283 578 q 178 343 178 446 q 230 164 178 232 q 376 96 282 96 z "},"r":{"ha":469,"x_min":83,"x_max":456,"o":"m 217 446 q 336 531 269 496 q 456 567 403 567 l 426 674 q 313 639 378 674 q 201 564 249 604 l 158 674 l 83 674 l 83 0 l 217 0 l 217 446 z "},"s":{"ha":585,"x_min":44,"x_max":543,"o":"m 47 43 q 153 -1 86 15 q 269 -18 221 -18 q 472 35 401 -18 q 543 183 543 88 q 315 401 543 319 q 213 447 249 424 q 176 499 178 471 q 210 559 176 535 q 297 583 244 583 q 386 572 346 583 q 475 538 426 560 l 517 628 q 412 674 476 656 q 300 692 347 692 q 113 640 182 692 q 44 496 44 588 q 265 293 44 365 q 415 176 415 246 q 376 114 415 138 q 269 90 336 90 q 89 136 183 90 l 47 43 z "},"t":{"ha":474,"x_min":21,"x_max":446,"o":"m 250 864 l 117 833 l 117 665 l 21 665 l 22 564 l 117 564 l 117 188 q 174 31 117 86 q 332 -24 232 -24 q 392 -15 360 -24 q 446 6 425 -6 l 411 107 q 346 92 371 92 q 274 123 297 92 q 250 208 250 154 l 250 564 l 414 564 l 372 665 l 250 665 l 250 864 z "},"u":{"ha":751,"x_min":78,"x_max":668,"o":"m 535 199 q 425 122 481 151 q 322 92 369 92 q 235 130 260 92 q 211 242 211 168 l 211 674 l 78 674 l 78 229 q 131 46 78 114 q 294 -22 185 -22 q 429 9 361 -22 q 551 89 497 40 l 575 0 l 668 0 l 668 674 l 535 674 l 535 199 z "},"v":{"ha":657,"x_min":14,"x_max":643,"o":"m 506 674 l 328 188 l 142 699 l 14 651 l 264 0 l 388 0 l 643 674 l 506 674 z "},"w":{"ha":975,"x_min":14,"x_max":961,"o":"m 824 674 l 692 199 l 553 674 l 413 674 l 281 199 l 142 697 l 14 650 l 218 0 l 340 0 l 481 479 l 629 0 l 751 0 l 961 674 l 824 674 z "},"x":{"ha":653,"x_min":14,"x_max":639,"o":"m 471 0 l 618 0 l 407 322 l 639 674 l 493 674 l 331 425 l 158 697 l 39 650 l 240 343 l 14 0 l 163 0 l 317 242 l 471 0 z "},"y":{"ha":657,"x_min":14,"x_max":643,"o":"m 221 -85 q 169 -151 206 -126 q 67 -204 133 -175 l 111 -307 q 256 -240 192 -289 q 344 -122 319 -190 l 643 674 l 506 674 l 328 190 l 140 699 l 14 651 l 260 18 l 221 -85 z "},"z":{"ha":603,"x_min":25,"x_max":578,"o":"m 82 565 l 403 565 l 25 69 l 42 0 l 578 0 l 564 106 l 192 106 l 575 600 l 568 674 l 53 674 l 82 565 z "},"ﬁ":{"ha":751,"x_min":21,"x_max":683,"o":"m 124 0 l 257 0 l 257 564 l 425 564 l 382 665 l 257 665 l 257 740 q 280 826 257 794 q 350 857 303 857 q 417 842 376 857 l 450 944 q 399 966 432 957 q 338 975 367 975 q 181 915 238 975 q 124 753 124 854 l 124 665 l 21 665 l 22 564 l 124 564 l 124 0 m 599 794 q 658 819 633 794 q 683 878 683 843 q 658 937 683 913 q 599 961 633 961 q 540 937 564 961 q 517 878 517 913 q 540 819 517 843 q 599 794 564 794 m 533 674 l 533 0 l 668 0 l 668 674 l 533 674 z "},"ﬂ":{"ha":778,"x_min":21,"x_max":681,"o":"m 124 0 l 257 0 l 257 564 l 425 564 l 382 665 l 257 665 l 257 740 q 280 826 257 794 q 350 857 303 857 q 417 842 376 857 l 450 944 q 399 966 432 957 q 338 975 367 975 q 181 915 238 975 q 124 753 124 854 l 124 665 l 21 665 l 22 564 l 124 564 l 124 0 m 547 965 l 547 0 l 681 0 l 681 981 l 547 965 z "},"`":{"ha":244,"x_min":14,"x_max":231,"o":"m 156 1038 l 14 1038 l 139 818 l 231 842 l 156 1038 z "},"¨":{"ha":419,"x_min":14,"x_max":406,"o":"m 89 847 q 142 869 121 847 q 164 922 164 892 q 142 975 164 953 q 89 997 121 997 q 36 975 58 997 q 14 922 14 953 q 36 869 14 892 q 89 847 58 847 m 331 847 q 384 869 363 847 q 406 922 406 892 q 384 975 406 953 q 331 997 363 997 q 278 975 300 997 q 256 922 256 953 q 278 869 256 892 q 331 847 300 847 z "},"¯":{"ha":376,"x_min":14,"x_max":363,"o":"m 350 975 l 14 975 l 14 869 l 363 869 l 350 975 z "},"´":{"ha":244,"x_min":14,"x_max":231,"o":"m 89 1038 l 14 842 l 106 818 l 231 1038 l 89 1038 z "},"ˆ":{"ha":476,"x_min":14,"x_max":463,"o":"m 463 832 l 283 1038 l 192 1038 l 14 832 l 135 818 l 239 939 l 343 818 l 463 832 z "},"ˇ":{"ha":476,"x_min":14,"x_max":463,"o":"m 14 1024 l 193 818 l 285 818 l 463 1024 l 342 1038 l 238 917 l 133 1038 l 14 1024 z "},"˘":{"ha":413,"x_min":14,"x_max":399,"o":"m 306 1031 q 279 956 306 989 q 206 924 253 924 q 133 956 158 924 q 107 1031 107 989 l 14 1031 q 63 886 14 944 q 206 826 111 828 q 349 886 300 828 q 399 1031 399 944 l 306 1031 z "},"˙":{"ha":194,"x_min":14,"x_max":181,"o":"m 99 842 q 157 866 133 842 q 181 925 181 890 q 157 985 181 960 q 99 1010 133 1010 q 39 985 64 1010 q 14 925 14 960 q 39 866 14 890 q 99 842 64 842 z "},"˚":{"ha":299,"x_min":14,"x_max":285,"o":"m 150 1078 q 54 1040 94 1078 q 14 949 14 1003 q 53 860 14 896 q 150 825 93 825 q 245 860 206 825 q 285 949 285 896 q 245 1040 285 1003 q 150 1078 206 1078 m 150 892 q 109 909 126 892 q 92 949 92 926 q 109 990 92 974 q 150 1007 126 1007 q 190 990 174 1007 q 207 949 207 974 q 190 909 207 926 q 150 892 174 892 z "},"˜":{"ha":449,"x_min":14,"x_max":435,"o":"m 347 982 q 333 944 346 958 q 301 931 319 931 q 270 937 283 931 q 236 956 257 943 q 194 979 213 971 q 146 988 175 988 q 50 953 86 988 q 14 842 14 919 l 104 842 q 120 878 106 863 q 151 893 135 893 q 183 887 169 893 q 215 867 197 881 q 257 843 239 851 q 303 835 275 835 q 398 869 361 835 q 435 982 435 904 l 347 982 z "},"˝":{"ha":475,"x_min":14,"x_max":461,"o":"m 89 1038 l 14 842 l 106 818 l 231 1038 l 89 1038 m 319 1038 l 244 842 l 336 818 l 461 1038 l 319 1038 z "},"˛":{"ha":307,"x_min":14,"x_max":293,"o":"m 79 6 q 33 -63 53 -19 q 14 -143 14 -107 q 57 -247 14 -206 q 167 -287 100 -287 q 293 -244 242 -287 l 251 -162 q 185 -189 218 -189 q 143 -174 158 -189 q 128 -132 128 -160 q 153 -60 128 -103 q 208 6 179 -17 l 79 6 z "},"¸":{"ha":310,"x_min":14,"x_max":296,"o":"m 71 -108 q 160 -133 125 -114 q 194 -176 194 -151 q 175 -206 194 -196 q 131 -217 156 -217 q 88 -209 113 -217 q 44 -193 64 -201 l 14 -275 q 69 -298 35 -289 q 131 -307 104 -307 q 247 -272 199 -307 q 296 -174 296 -237 q 266 -103 296 -136 q 192 -58 236 -69 l 222 18 l 121 18 l 71 -108 z "},"":{"ha":0,"x_min":14,"x_max":190,"o":"m 106 -29 q 47 -55 72 -29 q 21 -114 21 -81 q 42 -170 21 -144 q 89 -197 64 -196 q 63 -251 85 -228 q 14 -290 42 -275 l 46 -354 q 149 -261 107 -324 q 190 -129 190 -199 q 166 -57 190 -85 q 106 -29 142 -29 z "},"Þ":{"ha":794,"x_min":125,"x_max":753,"o":"m 396 833 q 655 761 557 833 q 753 539 753 689 q 703 369 753 438 q 569 269 653 301 q 382 236 485 236 l 258 236 l 258 0 l 125 0 l 125 944 l 258 944 l 258 833 l 396 833 m 388 347 q 549 393 489 347 q 614 533 610 439 q 558 678 614 636 q 394 721 503 721 l 258 721 l 258 347 l 388 347 z "},"Ð":{"ha":942,"x_min":26,"x_max":886,"o":"m 465 944 q 781 816 675 944 q 886 478 886 688 q 837 231 886 339 q 691 61 788 122 q 460 0 594 0 l 125 0 l 125 417 l 40 417 l 26 521 l 125 521 l 125 944 l 465 944 m 460 111 q 672 206 593 111 q 751 476 751 301 q 681 735 751 640 q 471 831 611 831 l 258 831 l 258 521 l 385 521 l 397 417 l 258 417 l 258 111 l 460 111 z "},"Æ":{"ha":1260,"x_min":14,"x_max":1232,"o":"m 632 253 l 632 0 l 1232 0 l 1215 104 l 767 104 l 767 429 l 1106 429 l 1088 532 l 767 532 l 767 842 l 1183 842 l 1167 944 l 617 944 l 14 6 l 139 -14 l 303 253 l 632 253 m 374 360 l 632 761 l 632 360 l 374 360 z "},"Đ":{"ha":942,"x_min":26,"x_max":886,"o":"m 465 944 q 781 816 675 944 q 886 478 886 688 q 837 231 886 339 q 691 61 788 122 q 460 0 594 0 l 125 0 l 125 417 l 40 417 l 26 521 l 125 521 l 125 944 l 465 944 m 460 111 q 672 206 593 111 q 751 476 751 301 q 681 735 751 640 q 471 831 611 831 l 258 831 l 258 521 l 385 521 l 397 417 l 258 417 l 258 111 l 460 111 z "},"Ł":{"ha":715,"x_min":21,"x_max":701,"o":"m 76 278 l 21 368 l 125 453 l 125 944 l 258 944 l 258 560 l 413 685 l 468 596 l 258 425 l 258 104 l 685 104 l 701 0 l 125 0 l 125 317 l 76 278 z "},"Œ":{"ha":1322,"x_min":56,"x_max":1294,"o":"m 694 14 q 594 -10 647 -1 q 496 -19 540 -19 q 256 45 356 -19 q 106 220 157 110 q 56 467 56 331 q 110 722 56 608 q 267 899 165 835 q 504 964 369 964 q 596 956 542 964 q 694 931 650 947 l 694 944 l 1226 944 l 1244 842 l 828 842 l 828 532 l 1149 532 l 1167 429 l 828 429 l 828 104 l 1276 104 l 1294 0 l 694 0 l 694 14 m 490 94 q 694 135 601 94 l 694 814 q 599 842 638 833 q 501 850 560 850 q 345 802 415 850 q 235 667 275 754 q 194 468 194 579 q 230 280 194 365 q 333 144 265 194 q 490 94 400 94 z "},"Ø":{"ha":1013,"x_min":56,"x_max":957,"o":"m 507 967 q 739 903 636 967 q 899 729 842 840 q 957 478 957 618 q 899 225 957 338 q 737 47 840 113 q 503 -19 633 -18 q 273 43 375 -19 q 113 217 171 106 q 56 468 56 328 q 114 721 56 608 q 275 899 172 833 q 507 967 378 964 m 510 851 q 347 802 419 851 q 235 666 275 753 q 194 469 194 579 q 226 296 194 374 q 313 167 257 218 l 599 838 q 510 851 558 851 m 501 94 q 663 144 592 94 q 775 281 735 193 q 815 478 815 368 q 788 643 815 568 q 710 768 760 718 l 422 106 q 501 94 463 94 z "},"ß":{"ha":822,"x_min":97,"x_max":774,"o":"m 231 656 q 279 792 231 740 q 411 844 328 844 q 531 806 483 844 q 578 694 578 767 q 528 582 578 622 q 382 542 479 542 l 339 542 l 339 435 l 436 435 q 580 391 525 435 q 635 267 635 347 q 576 149 635 188 q 422 110 517 110 l 324 110 l 324 0 l 428 0 q 679 67 585 0 q 774 265 774 133 q 724 417 774 353 q 600 506 675 481 q 684 585 653 532 q 715 701 715 638 q 629 892 715 825 q 408 960 543 960 q 182 878 267 960 q 97 657 97 797 l 97 0 l 231 0 l 231 656 z "},"ð":{"ha":757,"x_min":42,"x_max":715,"o":"m 439 893 q 644 651 574 790 q 715 349 715 511 q 676 159 715 242 q 561 29 638 76 q 375 -18 485 -18 q 198 26 274 -18 q 82 151 122 71 q 42 338 42 232 q 83 522 42 442 q 201 647 125 603 q 381 692 278 692 q 493 667 432 692 q 328 836 433 761 l 154 749 l 107 838 l 226 897 q 122 944 185 919 l 161 1042 q 346 956 258 1008 l 497 1031 l 543 946 l 439 893 m 376 96 q 523 164 468 96 q 579 335 578 232 q 561 506 579 428 q 484 559 526 540 q 381 578 442 578 q 234 510 289 578 q 178 339 179 442 q 231 163 178 231 q 376 96 283 96 z "},"þ":{"ha":740,"x_min":92,"x_max":699,"o":"m 364 692 q 542 647 467 692 q 658 522 618 603 q 699 332 699 440 q 657 149 699 228 q 539 26 615 69 q 363 -18 463 -18 q 298 -8 335 -18 q 225 21 261 1 l 225 -289 l 92 -304 l 92 965 l 225 981 l 225 650 q 299 681 263 669 q 364 692 336 692 m 364 96 q 510 162 457 96 q 563 331 563 228 q 510 510 563 442 q 364 578 458 578 q 225 529 282 578 l 225 142 q 364 96 283 96 z "},"ƒ":{"ha":519,"x_min":0,"x_max":519,"o":"m 193 557 l 193 101 q 100 -15 193 -15 q 33 0 74 -15 l 0 -101 q 52 -122 18 -112 q 115 -131 86 -131 q 270 -72 214 -131 q 326 89 326 -12 l 326 557 l 494 557 l 451 660 l 326 660 l 326 740 q 349 826 326 794 q 419 857 372 857 q 486 842 446 857 l 519 944 q 469 966 501 957 q 407 975 436 975 q 250 915 307 975 q 193 753 193 854 l 193 660 l 90 660 l 92 557 l 193 557 z "},"æ":{"ha":1128,"x_min":65,"x_max":1086,"o":"m 608 307 q 672 151 617 208 q 835 94 726 94 q 927 108 888 94 q 1038 154 967 121 l 1079 57 q 835 -17 957 -17 q 550 94 646 -17 q 300 -17 447 -17 q 125 41 185 -17 q 65 194 65 99 q 133 348 65 293 q 313 403 200 403 l 472 403 q 442 528 472 483 q 338 572 413 572 q 143 526 246 572 l 106 632 q 215 674 142 657 q 335 692 288 692 q 460 665 403 692 q 556 594 518 639 q 658 667 599 642 q 792 692 718 692 q 1013 591 940 692 q 1086 333 1086 490 l 1086 307 l 608 307 m 957 397 q 788 578 929 578 q 666 530 711 578 q 611 397 621 482 l 957 397 m 297 89 q 413 115 368 89 q 494 189 458 142 q 469 314 474 244 l 310 314 q 218 279 251 314 q 185 194 185 244 q 214 120 185 151 q 297 89 243 89 z "},"đ":{"ha":756,"x_min":42,"x_max":763,"o":"m 658 771 l 658 0 l 582 0 l 556 51 q 463 0 514 18 q 376 -18 413 -18 q 198 26 274 -18 q 82 152 122 71 q 42 342 42 233 q 83 525 42 446 q 201 648 125 604 q 378 692 278 692 q 447 681 407 692 q 524 649 486 669 l 524 771 l 410 771 l 396 868 l 524 868 l 524 965 l 658 979 l 658 868 l 750 868 l 763 771 l 658 771 m 178 343 q 230 164 178 232 q 376 96 282 96 q 457 110 422 96 q 524 153 492 124 l 524 525 q 456 565 492 553 q 376 578 421 578 q 231 512 283 578 q 178 343 178 446 z "},"œ":{"ha":1126,"x_min":42,"x_max":1085,"o":"m 607 307 q 670 151 615 208 q 833 94 725 94 q 926 108 886 94 q 1036 154 965 121 l 1078 57 q 833 -17 956 -17 q 604 44 696 -17 q 493 -1 563 17 q 376 -18 424 -18 q 199 26 275 -18 q 83 151 124 71 q 42 338 42 232 q 83 522 42 442 q 202 647 125 603 q 382 692 279 692 q 490 675 425 692 q 597 633 554 658 q 790 692 678 692 q 1010 594 936 692 q 1085 343 1085 496 l 1085 307 l 607 307 m 178 339 q 231 163 178 231 q 376 96 283 96 q 526 124 454 96 q 468 338 468 211 q 522 551 468 460 q 381 578 450 578 q 234 510 289 578 q 178 339 179 442 m 956 397 q 786 578 928 578 q 665 530 710 578 q 610 397 619 482 l 956 397 z "},"ĺ":{"ha":328,"x_min":97,"x_max":339,"o":"m 197 1246 l 122 1050 l 214 1026 l 339 1246 l 197 1246 m 97 935 l 97 0 l 231 0 l 231 951 l 97 935 z "},"ł":{"ha":446,"x_min":0,"x_max":446,"o":"m 290 981 l 157 965 l 157 525 l 0 397 l 56 307 l 157 390 l 157 0 l 290 0 l 290 497 l 446 625 l 390 714 l 290 631 l 290 981 z "},"ı":{"ha":301,"x_min":83,"x_max":218,"o":"m 83 674 l 83 0 l 218 0 l 218 674 l 83 674 z "},"ø":{"ha":776,"x_min":42,"x_max":715,"o":"m 381 692 q 558 647 482 692 q 674 522 633 603 q 715 336 715 442 q 674 151 715 232 q 555 26 632 71 q 375 -18 478 -18 q 198 26 274 -18 q 82 151 122 71 q 42 338 42 232 q 83 522 42 442 q 201 647 125 603 q 381 692 278 692 m 381 578 q 234 510 289 578 q 178 339 179 442 q 232 161 178 228 l 449 567 q 381 578 415 578 m 376 96 q 523 164 468 96 q 579 335 578 232 q 543 489 579 425 l 333 100 q 376 96 354 96 z "},"À":{"ha":868,"x_min":14,"x_max":854,"o":"m 144 0 l 239 253 l 624 253 l 722 -11 l 854 8 l 490 944 l 369 944 l 14 0 l 144 0 m 428 765 l 583 360 l 276 360 l 428 765 m 435 1246 l 293 1246 l 418 1026 l 510 1050 l 435 1246 z "},"Á":{"ha":868,"x_min":14,"x_max":854,"o":"m 144 0 l 239 253 l 624 253 l 722 -11 l 854 8 l 490 944 l 369 944 l 14 0 l 144 0 m 428 765 l 583 360 l 276 360 l 428 765 m 413 1246 l 338 1050 l 429 1026 l 554 1246 l 413 1246 z "},"Â":{"ha":868,"x_min":14,"x_max":854,"o":"m 144 0 l 239 253 l 624 253 l 722 -11 l 854 8 l 490 944 l 369 944 l 14 0 l 144 0 m 428 765 l 583 360 l 276 360 l 428 765 m 649 1040 l 469 1246 l 378 1246 l 200 1040 l 321 1026 l 425 1147 l 529 1026 l 649 1040 z "},"Ã":{"ha":868,"x_min":14,"x_max":854,"o":"m 144 0 l 239 253 l 624 253 l 722 -11 l 854 8 l 490 944 l 369 944 l 14 0 l 144 0 m 428 765 l 583 360 l 276 360 l 428 765 m 543 1190 q 528 1153 542 1167 q 497 1139 515 1139 q 458 1146 474 1139 q 424 1167 442 1153 q 386 1188 403 1181 q 342 1196 369 1196 q 246 1162 282 1196 q 210 1050 210 1128 l 300 1050 q 316 1086 301 1071 q 347 1101 331 1101 q 386 1094 371 1101 q 419 1074 401 1088 q 456 1051 439 1058 q 499 1043 472 1043 q 594 1078 557 1043 q 631 1190 631 1113 l 543 1190 z "},"Ä":{"ha":868,"x_min":14,"x_max":854,"o":"m 144 0 l 239 253 l 624 253 l 722 -11 l 854 8 l 490 944 l 369 944 l 14 0 l 144 0 m 428 765 l 583 360 l 276 360 l 428 765 m 301 1056 q 355 1078 333 1056 q 376 1131 376 1100 q 355 1183 376 1161 q 301 1206 333 1206 q 249 1183 271 1206 q 226 1131 226 1161 q 249 1078 226 1100 q 301 1056 271 1056 m 543 1056 q 597 1078 575 1056 q 618 1131 618 1100 q 597 1183 618 1161 q 543 1206 575 1206 q 490 1183 513 1206 q 468 1131 468 1161 q 490 1078 468 1100 q 543 1056 513 1056 z "},"Å":{"ha":868,"x_min":14,"x_max":854,"o":"m 144 0 l 239 253 l 624 253 l 722 -11 l 854 8 l 490 944 l 369 944 l 14 0 l 144 0 m 428 765 l 583 360 l 276 360 l 428 765 m 425 1286 q 329 1249 369 1286 q 289 1157 289 1211 q 328 1069 289 1104 q 425 1033 368 1033 q 520 1069 481 1033 q 560 1157 560 1104 q 520 1249 560 1211 q 425 1286 481 1286 m 425 1100 q 384 1117 401 1100 q 367 1157 367 1135 q 384 1199 367 1182 q 425 1215 401 1215 q 465 1199 449 1215 q 482 1157 482 1182 q 465 1117 482 1135 q 425 1100 449 1100 z "},"Ă":{"ha":868,"x_min":14,"x_max":854,"o":"m 144 0 l 239 253 l 624 253 l 722 -11 l 854 8 l 490 944 l 369 944 l 14 0 l 144 0 m 428 765 l 583 360 l 276 360 l 428 765 m 529 1239 q 503 1165 529 1197 q 429 1132 476 1132 q 356 1165 382 1132 q 331 1239 331 1197 l 238 1239 q 286 1094 238 1153 q 429 1035 335 1036 q 573 1094 524 1036 q 622 1239 622 1153 l 529 1239 z "},"Ą":{"ha":868,"x_min":14,"x_max":947,"o":"m 947 -244 q 821 -287 896 -287 q 711 -247 754 -287 q 668 -143 668 -206 q 683 -73 668 -111 q 721 -8 699 -35 l 624 253 l 239 253 l 144 0 l 14 0 l 369 944 l 490 944 l 854 8 l 835 6 l 863 6 q 808 -60 833 -17 q 782 -132 782 -103 q 797 -174 782 -160 q 839 -189 813 -189 q 906 -162 872 -189 l 947 -244 m 428 765 l 276 360 l 583 360 l 428 765 z "},"Ā":{"ha":868,"x_min":14,"x_max":854,"o":"m 144 0 l 239 253 l 624 253 l 722 -11 l 854 8 l 490 944 l 369 944 l 14 0 l 144 0 m 428 765 l 583 360 l 276 360 l 428 765 m 578 1183 l 243 1183 l 243 1078 l 592 1078 l 578 1183 z "},"Ç":{"ha":776,"x_min":56,"x_max":749,"o":"m 521 -58 q 595 -103 565 -69 q 625 -174 625 -136 q 576 -272 625 -237 q 460 -307 528 -307 q 399 -298 433 -307 q 343 -275 364 -289 l 374 -193 q 417 -209 393 -201 q 460 -217 442 -217 q 504 -206 485 -217 q 524 -176 524 -196 q 489 -133 524 -151 q 400 -108 454 -114 l 436 -17 q 228 65 314 -3 q 99 236 143 132 q 56 467 56 340 q 110 722 56 608 q 267 899 165 835 q 504 964 369 964 q 626 949 554 964 q 744 907 699 935 l 703 811 q 601 842 640 833 q 501 850 563 850 q 345 802 415 850 q 235 667 275 754 q 194 468 194 579 q 230 280 194 365 q 333 144 265 194 q 490 94 400 94 q 697 136 607 94 l 749 36 q 651 2 710 17 q 538 -18 593 -12 l 521 -58 z "},"Ć":{"ha":776,"x_min":56,"x_max":749,"o":"m 744 907 q 626 949 699 935 q 504 964 554 964 q 267 899 369 964 q 110 722 165 835 q 56 467 56 608 q 106 220 56 331 q 256 45 157 110 q 496 -19 356 -19 q 629 -3 556 -19 q 749 36 703 13 l 697 136 q 490 94 607 94 q 333 144 400 94 q 230 280 265 194 q 194 468 194 365 q 235 667 194 579 q 345 802 275 754 q 501 850 415 850 q 601 842 563 850 q 703 811 640 833 l 744 907 m 489 1246 l 414 1050 l 506 1026 l 631 1246 l 489 1246 z "},"Č":{"ha":776,"x_min":56,"x_max":749,"o":"m 744 907 q 626 949 699 935 q 504 964 554 964 q 267 899 369 964 q 110 722 165 835 q 56 467 56 608 q 106 220 56 331 q 256 45 157 110 q 496 -19 356 -19 q 629 -3 556 -19 q 749 36 703 13 l 697 136 q 490 94 607 94 q 333 144 400 94 q 230 280 265 194 q 194 468 194 365 q 235 667 194 579 q 345 802 275 754 q 501 850 415 850 q 601 842 563 850 q 703 811 640 833 l 744 907 m 281 1232 l 460 1026 l 551 1026 l 729 1232 l 608 1246 l 504 1125 l 400 1246 l 281 1232 z "},"Ď":{"ha":942,"x_min":125,"x_max":886,"o":"m 460 0 q 691 61 594 0 q 837 231 788 122 q 886 478 886 339 q 781 816 886 688 q 465 944 675 944 l 125 944 l 125 0 l 460 0 m 471 831 q 681 735 611 831 q 751 476 751 640 q 672 206 751 301 q 460 111 593 111 l 258 111 l 258 831 l 471 831 m 228 1232 l 407 1026 l 499 1026 l 676 1232 l 556 1246 l 451 1125 l 347 1246 l 228 1232 z "},"È":{"ha":753,"x_min":125,"x_max":725,"o":"m 258 104 l 258 429 l 597 429 l 579 532 l 258 532 l 258 842 l 675 842 l 657 944 l 125 944 l 125 0 l 725 0 l 707 104 l 258 104 m 417 1246 l 275 1246 l 400 1026 l 492 1050 l 417 1246 z "},"É":{"ha":753,"x_min":125,"x_max":725,"o":"m 258 104 l 258 429 l 597 429 l 579 532 l 258 532 l 258 842 l 675 842 l 657 944 l 125 944 l 125 0 l 725 0 l 707 104 l 258 104 m 394 1246 l 319 1050 l 411 1026 l 536 1246 l 394 1246 z "},"Ê":{"ha":753,"x_min":125,"x_max":725,"o":"m 258 104 l 258 429 l 597 429 l 579 532 l 258 532 l 258 842 l 675 842 l 657 944 l 125 944 l 125 0 l 725 0 l 707 104 l 258 104 m 631 1040 l 451 1246 l 360 1246 l 182 1040 l 303 1026 l 407 1147 l 511 1026 l 631 1040 z "},"Ë":{"ha":753,"x_min":125,"x_max":725,"o":"m 258 104 l 258 429 l 597 429 l 579 532 l 258 532 l 258 842 l 675 842 l 657 944 l 125 944 l 125 0 l 725 0 l 707 104 l 258 104 m 283 1056 q 337 1078 315 1056 q 358 1131 358 1100 q 337 1183 358 1161 q 283 1206 315 1206 q 231 1183 253 1206 q 208 1131 208 1161 q 231 1078 208 1100 q 283 1056 253 1056 m 525 1056 q 578 1078 557 1056 q 600 1131 600 1100 q 578 1183 600 1161 q 525 1206 557 1206 q 472 1183 494 1206 q 450 1131 450 1161 q 472 1078 450 1100 q 525 1056 494 1056 z "},"Ē":{"ha":753,"x_min":125,"x_max":725,"o":"m 258 104 l 258 429 l 597 429 l 579 532 l 258 532 l 258 842 l 675 842 l 657 944 l 125 944 l 125 0 l 725 0 l 707 104 l 258 104 m 560 1183 l 225 1183 l 225 1078 l 574 1078 l 560 1183 z "},"Ė":{"ha":753,"x_min":125,"x_max":725,"o":"m 258 104 l 258 429 l 597 429 l 579 532 l 258 532 l 258 842 l 675 842 l 657 944 l 125 944 l 125 0 l 725 0 l 707 104 l 258 104 m 408 1050 q 467 1074 443 1050 q 490 1133 490 1099 q 467 1193 490 1168 q 408 1218 443 1218 q 349 1193 374 1218 q 324 1133 324 1168 q 349 1074 324 1099 q 408 1050 374 1050 z "},"Ę":{"ha":753,"x_min":125,"x_max":726,"o":"m 726 -244 q 600 -287 675 -287 q 490 -247 533 -287 q 447 -143 447 -206 q 465 -68 447 -110 q 507 0 482 -26 l 125 0 l 125 944 l 657 944 l 675 842 l 258 842 l 258 532 l 579 532 l 597 429 l 258 429 l 258 104 l 707 104 l 725 0 l 635 0 q 584 -65 607 -25 q 561 -132 561 -104 q 576 -174 561 -160 q 618 -189 592 -189 q 685 -162 651 -189 l 726 -244 z "},"Ě":{"ha":753,"x_min":125,"x_max":725,"o":"m 258 104 l 258 429 l 597 429 l 579 532 l 258 532 l 258 842 l 675 842 l 657 944 l 125 944 l 125 0 l 725 0 l 707 104 l 258 104 m 186 1232 l 365 1026 l 457 1026 l 635 1232 l 514 1246 l 410 1125 l 306 1246 l 186 1232 z "},"Ğ":{"ha":872,"x_min":56,"x_max":803,"o":"m 679 118 q 525 94 603 94 q 356 140 431 94 q 238 271 281 186 q 194 468 194 356 q 243 674 194 588 q 372 806 292 761 q 546 850 451 850 q 645 842 607 850 q 746 811 683 833 l 788 907 q 669 949 742 935 q 543 964 596 964 q 294 901 406 964 q 119 724 183 838 q 56 467 56 611 q 114 219 56 329 q 279 44 172 108 q 528 -19 386 -19 q 676 -1 601 -19 q 801 47 751 18 l 803 496 l 485 496 l 474 394 l 679 394 l 679 118 m 607 1239 q 581 1165 607 1197 q 507 1132 554 1132 q 434 1165 460 1132 q 408 1239 408 1197 l 315 1239 q 364 1094 315 1153 q 507 1035 413 1036 q 651 1094 601 1036 q 700 1239 700 1153 l 607 1239 z "},"Ì":{"ha":383,"x_min":60,"x_max":276,"o":"m 125 944 l 125 0 l 258 0 l 258 944 l 125 944 m 201 1246 l 60 1246 l 185 1026 l 276 1050 l 201 1246 z "},"Í":{"ha":383,"x_min":104,"x_max":321,"o":"m 125 944 l 125 0 l 258 0 l 258 944 l 125 944 m 179 1246 l 104 1050 l 196 1026 l 321 1246 l 179 1246 z "},"Î":{"ha":383,"x_min":-33,"x_max":415,"o":"m 125 944 l 125 0 l 258 0 l 258 944 l 125 944 m 415 1040 l 236 1246 l 144 1246 l -33 1040 l 88 1026 l 192 1147 l 296 1026 l 415 1040 z "},"Ï":{"ha":383,"x_min":-7,"x_max":385,"o":"m 125 944 l 125 0 l 258 0 l 258 944 l 125 944 m 68 1056 q 122 1078 100 1056 q 143 1131 143 1100 q 122 1183 143 1161 q 68 1206 100 1206 q 15 1183 38 1206 q -7 1131 -7 1161 q 15 1078 -7 1100 q 68 1056 38 1056 m 310 1056 q 363 1078 342 1056 q 385 1131 385 1100 q 363 1183 385 1161 q 310 1206 342 1206 q 257 1183 279 1206 q 235 1131 235 1161 q 257 1078 235 1100 q 310 1056 279 1056 z "},"Ī":{"ha":383,"x_min":10,"x_max":358,"o":"m 125 944 l 125 0 l 258 0 l 258 944 l 125 944 m 344 1183 l 10 1183 l 10 1078 l 358 1078 l 344 1183 z "},"Į":{"ha":383,"x_min":72,"x_max":351,"o":"m 351 -244 q 225 -287 300 -287 q 115 -247 158 -287 q 72 -143 72 -206 q 90 -68 72 -110 q 132 0 107 -26 l 125 0 l 125 944 l 258 944 l 258 6 l 267 6 q 212 -60 238 -17 q 186 -132 186 -103 q 201 -174 186 -160 q 243 -189 217 -189 q 310 -162 276 -189 l 351 -244 z "},"İ":{"ha":383,"x_min":108,"x_max":275,"o":"m 125 944 l 125 0 l 258 0 l 258 944 l 125 944 m 193 1050 q 251 1074 228 1050 q 275 1133 275 1099 q 251 1193 275 1168 q 193 1218 228 1218 q 133 1193 158 1218 q 108 1133 108 1168 q 133 1074 108 1099 q 193 1050 158 1050 z "},"Ĺ":{"ha":715,"x_min":125,"x_max":701,"o":"m 258 944 l 125 944 l 125 0 l 701 0 l 685 104 l 258 104 l 258 944 m 292 1246 l 217 1050 l 308 1026 l 433 1246 l 292 1246 z "},"Ľ":{"ha":715,"x_min":125,"x_max":701,"o":"m 258 944 l 125 944 l 125 0 l 701 0 l 685 104 l 258 104 l 258 944 m 579 1003 q 520 976 546 1003 q 494 918 494 949 q 516 862 494 888 q 563 835 538 836 q 538 772 558 797 q 478 715 517 746 l 510 653 q 620 760 575 688 q 665 903 665 832 q 640 974 665 946 q 579 1003 614 1003 z "},"Ñ":{"ha":993,"x_min":125,"x_max":868,"o":"m 749 0 l 868 0 l 868 944 l 733 944 l 733 246 l 243 944 l 125 944 l 125 0 l 258 0 l 258 704 l 749 0 m 618 1190 q 603 1153 617 1167 q 572 1139 590 1139 q 533 1146 549 1139 q 499 1167 517 1153 q 461 1188 478 1181 q 417 1196 444 1196 q 321 1162 357 1196 q 285 1050 285 1128 l 375 1050 q 391 1086 376 1071 q 422 1101 406 1101 q 461 1094 446 1101 q 494 1074 476 1088 q 531 1051 514 1058 q 574 1043 547 1043 q 669 1078 632 1043 q 706 1190 706 1113 l 618 1190 z "},"Ń":{"ha":993,"x_min":125,"x_max":868,"o":"m 749 0 l 868 0 l 868 944 l 733 944 l 733 246 l 243 944 l 125 944 l 125 0 l 258 0 l 258 704 l 749 0 m 488 1246 l 413 1050 l 504 1026 l 629 1246 l 488 1246 z "},"Ň":{"ha":993,"x_min":125,"x_max":868,"o":"m 749 0 l 868 0 l 868 944 l 733 944 l 733 246 l 243 944 l 125 944 l 125 0 l 258 0 l 258 704 l 749 0 m 279 1232 l 458 1026 l 550 1026 l 728 1232 l 607 1246 l 503 1125 l 399 1246 l 279 1232 z "},"Ò":{"ha":1013,"x_min":56,"x_max":957,"o":"m 507 967 q 275 899 378 964 q 114 721 172 833 q 56 468 56 608 q 113 217 56 328 q 273 43 171 106 q 503 -19 375 -19 q 737 47 633 -18 q 899 225 840 113 q 957 478 957 338 q 899 729 957 618 q 739 903 842 840 q 507 967 636 967 m 194 469 q 235 666 194 579 q 347 802 275 753 q 510 851 419 851 q 667 803 597 851 q 776 670 736 756 q 815 478 815 585 q 775 281 815 368 q 663 144 735 193 q 501 94 592 94 q 344 142 414 94 q 234 276 274 190 q 194 469 194 363 m 513 1246 l 371 1246 l 496 1026 l 588 1050 l 513 1246 z "},"Ó":{"ha":1013,"x_min":56,"x_max":957,"o":"m 507 967 q 275 899 378 964 q 114 721 172 833 q 56 468 56 608 q 113 217 56 328 q 273 43 171 106 q 503 -19 375 -19 q 737 47 633 -18 q 899 225 840 113 q 957 478 957 338 q 899 729 957 618 q 739 903 842 840 q 507 967 636 967 m 194 469 q 235 666 194 579 q 347 802 275 753 q 510 851 419 851 q 667 803 597 851 q 776 670 736 756 q 815 478 815 585 q 775 281 815 368 q 663 144 735 193 q 501 94 592 94 q 344 142 414 94 q 234 276 274 190 q 194 469 194 363 m 490 1246 l 415 1050 l 507 1026 l 632 1246 l 490 1246 z "},"Ô":{"ha":1013,"x_min":56,"x_max":957,"o":"m 507 967 q 275 899 378 964 q 114 721 172 833 q 56 468 56 608 q 113 217 56 328 q 273 43 171 106 q 503 -19 375 -19 q 737 47 633 -18 q 899 225 840 113 q 957 478 957 338 q 899 729 957 618 q 739 903 842 840 q 507 967 636 967 m 194 469 q 235 666 194 579 q 347 802 275 753 q 510 851 419 851 q 667 803 597 851 q 776 670 736 756 q 815 478 815 585 q 775 281 815 368 q 663 144 735 193 q 501 94 592 94 q 344 142 414 94 q 234 276 274 190 q 194 469 194 363 m 726 1040 l 547 1246 l 456 1246 l 278 1040 l 399 1026 l 503 1147 l 607 1026 l 726 1040 z "},"Õ":{"ha":1013,"x_min":56,"x_max":957,"o":"m 507 967 q 275 899 378 964 q 114 721 172 833 q 56 468 56 608 q 113 217 56 328 q 273 43 171 106 q 503 -19 375 -19 q 737 47 633 -18 q 899 225 840 113 q 957 478 957 338 q 899 729 957 618 q 739 903 842 840 q 507 967 636 967 m 194 469 q 235 666 194 579 q 347 802 275 753 q 510 851 419 851 q 667 803 597 851 q 776 670 736 756 q 815 478 815 585 q 775 281 815 368 q 663 144 735 193 q 501 94 592 94 q 344 142 414 94 q 234 276 274 190 q 194 469 194 363 m 621 1190 q 606 1153 619 1167 q 575 1139 593 1139 q 535 1146 551 1139 q 501 1167 519 1153 q 464 1188 481 1181 q 419 1196 447 1196 q 324 1162 360 1196 q 288 1050 288 1128 l 378 1050 q 394 1086 379 1071 q 425 1101 408 1101 q 464 1094 449 1101 q 497 1074 479 1088 q 533 1051 517 1058 q 576 1043 550 1043 q 672 1078 635 1043 q 708 1190 708 1113 l 621 1190 z "},"Ö":{"ha":1013,"x_min":56,"x_max":957,"o":"m 507 967 q 275 899 378 964 q 114 721 172 833 q 56 468 56 608 q 113 217 56 328 q 273 43 171 106 q 503 -19 375 -19 q 737 47 633 -18 q 899 225 840 113 q 957 478 957 338 q 899 729 957 618 q 739 903 842 840 q 507 967 636 967 m 194 469 q 235 666 194 579 q 347 802 275 753 q 510 851 419 851 q 667 803 597 851 q 776 670 736 756 q 815 478 815 585 q 775 281 815 368 q 663 144 735 193 q 501 94 592 94 q 344 142 414 94 q 234 276 274 190 q 194 469 194 363 m 379 1056 q 433 1078 411 1056 q 454 1131 454 1100 q 433 1183 454 1161 q 379 1206 411 1206 q 326 1183 349 1206 q 304 1131 304 1161 q 326 1078 304 1100 q 379 1056 349 1056 m 621 1056 q 674 1078 653 1056 q 696 1131 696 1100 q 674 1183 696 1161 q 621 1206 653 1206 q 568 1183 590 1206 q 546 1131 546 1161 q 568 1078 546 1100 q 621 1056 590 1056 z "},"Ō":{"ha":1013,"x_min":56,"x_max":957,"o":"m 507 967 q 275 899 378 964 q 114 721 172 833 q 56 468 56 608 q 113 217 56 328 q 273 43 171 106 q 503 -19 375 -19 q 737 47 633 -18 q 899 225 840 113 q 957 478 957 338 q 899 729 957 618 q 739 903 842 840 q 507 967 636 967 m 194 469 q 235 666 194 579 q 347 802 275 753 q 510 851 419 851 q 667 803 597 851 q 776 670 736 756 q 815 478 815 585 q 775 281 815 368 q 663 144 735 193 q 501 94 592 94 q 344 142 414 94 q 234 276 274 190 q 194 469 194 363 m 656 1183 l 321 1183 l 321 1078 l 669 1078 l 656 1183 z "},"Ő":{"ha":1013,"x_min":56,"x_max":957,"o":"m 507 967 q 275 899 378 964 q 114 721 172 833 q 56 468 56 608 q 113 217 56 328 q 273 43 171 106 q 503 -19 375 -19 q 737 47 633 -18 q 899 225 840 113 q 957 478 957 338 q 899 729 957 618 q 739 903 842 840 q 507 967 636 967 m 194 469 q 235 666 194 579 q 347 802 275 753 q 510 851 419 851 q 667 803 597 851 q 776 670 736 756 q 815 478 815 585 q 775 281 815 368 q 663 144 735 193 q 501 94 592 94 q 344 142 414 94 q 234 276 274 190 q 194 469 194 363 m 399 1246 l 324 1050 l 415 1026 l 540 1246 l 399 1246 m 629 1246 l 554 1050 l 646 1026 l 771 1246 l 629 1246 z "},"Ŕ":{"ha":839,"x_min":125,"x_max":825,"o":"m 258 0 l 258 378 l 382 378 q 469 382 446 378 l 681 0 l 825 0 l 588 417 q 707 512 663 449 q 753 664 751 575 q 654 875 753 806 q 396 944 556 944 l 125 944 l 125 0 l 258 0 m 394 832 q 558 792 501 832 q 614 658 614 753 q 551 527 613 568 q 388 486 489 486 l 258 486 l 258 832 l 394 832 m 383 1246 l 308 1050 l 400 1026 l 525 1246 l 383 1246 z "},"Ř":{"ha":839,"x_min":125,"x_max":825,"o":"m 258 0 l 258 378 l 382 378 q 469 382 446 378 l 681 0 l 825 0 l 588 417 q 707 512 663 449 q 753 664 751 575 q 654 875 753 806 q 396 944 556 944 l 125 944 l 125 0 l 258 0 m 394 832 q 558 792 501 832 q 614 658 614 753 q 551 527 613 568 q 388 486 489 486 l 258 486 l 258 832 l 394 832 m 175 1232 l 354 1026 l 446 1026 l 624 1232 l 503 1246 l 399 1125 l 294 1246 l 175 1232 z "},"Ś":{"ha":719,"x_min":56,"x_max":678,"o":"m 72 51 q 188 4 100 26 q 338 -18 276 -18 q 521 14 444 -18 q 638 103 597 46 q 678 236 678 161 q 619 394 678 333 q 433 513 560 456 q 290 583 339 556 q 215 645 242 611 q 189 725 189 679 q 240 817 189 785 q 375 849 292 849 q 478 835 435 849 q 571 799 522 822 l 615 904 q 497 949 563 931 q 365 967 431 967 q 201 935 271 967 q 93 847 131 903 q 56 722 56 792 q 82 603 56 653 q 160 517 108 554 q 300 442 213 481 q 439 374 389 403 q 516 312 489 346 q 543 233 543 278 q 489 134 543 171 q 336 97 435 97 q 213 115 278 97 q 103 157 147 133 l 72 51 m 350 1246 l 275 1050 l 367 1026 l 492 1246 l 350 1246 z "},"Š":{"ha":719,"x_min":56,"x_max":678,"o":"m 72 51 q 188 4 100 26 q 338 -18 276 -18 q 521 14 444 -18 q 638 103 597 46 q 678 236 678 161 q 619 394 678 333 q 433 513 560 456 q 290 583 339 556 q 215 645 242 611 q 189 725 189 679 q 240 817 189 785 q 375 849 292 849 q 478 835 435 849 q 571 799 522 822 l 615 904 q 497 949 563 931 q 365 967 431 967 q 201 935 271 967 q 93 847 131 903 q 56 722 56 792 q 82 603 56 653 q 160 517 108 554 q 300 442 213 481 q 439 374 389 403 q 516 312 489 346 q 543 233 543 278 q 489 134 543 171 q 336 97 435 97 q 213 115 278 97 q 103 157 147 133 l 72 51 m 142 1232 l 321 1026 l 413 1026 l 590 1232 l 469 1246 l 365 1125 l 261 1246 l 142 1232 z "},"Ť":{"ha":794,"x_min":14,"x_max":781,"o":"m 14 839 l 321 839 l 321 0 l 456 0 l 456 839 l 781 839 l 763 944 l 14 944 l 14 839 m 167 1232 l 346 1026 l 438 1026 l 615 1232 l 494 1246 l 390 1125 l 286 1246 l 167 1232 z "},"Ù":{"ha":958,"x_min":111,"x_max":847,"o":"m 111 338 q 156 156 111 236 q 285 30 201 75 q 479 -15 368 -15 q 674 31 590 -15 q 802 156 757 76 q 847 338 847 236 l 847 944 l 713 944 l 713 350 q 650 164 713 233 q 479 94 588 94 q 309 163 374 94 q 244 350 244 232 l 244 944 l 111 944 l 111 338 m 486 1246 l 344 1246 l 469 1026 l 561 1050 l 486 1246 z "},"Ú":{"ha":958,"x_min":111,"x_max":847,"o":"m 111 338 q 156 156 111 236 q 285 30 201 75 q 479 -15 368 -15 q 674 31 590 -15 q 802 156 757 76 q 847 338 847 236 l 847 944 l 713 944 l 713 350 q 650 164 713 233 q 479 94 588 94 q 309 163 374 94 q 244 350 244 232 l 244 944 l 111 944 l 111 338 m 464 1246 l 389 1050 l 481 1026 l 606 1246 l 464 1246 z "},"Û":{"ha":958,"x_min":111,"x_max":847,"o":"m 111 338 q 156 156 111 236 q 285 30 201 75 q 479 -15 368 -15 q 674 31 590 -15 q 802 156 757 76 q 847 338 847 236 l 847 944 l 713 944 l 713 350 q 650 164 713 233 q 479 94 588 94 q 309 163 374 94 q 244 350 244 232 l 244 944 l 111 944 l 111 338 m 700 1040 l 521 1246 l 429 1246 l 251 1040 l 372 1026 l 476 1147 l 581 1026 l 700 1040 z "},"Ü":{"ha":958,"x_min":111,"x_max":847,"o":"m 111 338 q 156 156 111 236 q 285 30 201 75 q 479 -15 368 -15 q 674 31 590 -15 q 802 156 757 76 q 847 338 847 236 l 847 944 l 713 944 l 713 350 q 650 164 713 233 q 479 94 588 94 q 309 163 374 94 q 244 350 244 232 l 244 944 l 111 944 l 111 338 m 353 1056 q 406 1078 385 1056 q 428 1131 428 1100 q 406 1183 428 1161 q 353 1206 385 1206 q 300 1183 322 1206 q 278 1131 278 1161 q 300 1078 278 1100 q 353 1056 322 1056 m 594 1056 q 648 1078 626 1056 q 669 1131 669 1100 q 648 1183 669 1161 q 594 1206 626 1206 q 542 1183 564 1206 q 519 1131 519 1161 q 542 1078 519 1100 q 594 1056 564 1056 z "},"Ū":{"ha":958,"x_min":111,"x_max":847,"o":"m 111 338 q 156 156 111 236 q 285 30 201 75 q 479 -15 368 -15 q 674 31 590 -15 q 802 156 757 76 q 847 338 847 236 l 847 944 l 713 944 l 713 350 q 650 164 713 233 q 479 94 588 94 q 309 163 374 94 q 244 350 244 232 l 244 944 l 111 944 l 111 338 m 629 1183 l 294 1183 l 294 1078 l 643 1078 l 629 1183 z "},"Ů":{"ha":958,"x_min":111,"x_max":847,"o":"m 111 338 q 156 156 111 236 q 285 30 201 75 q 479 -15 368 -15 q 674 31 590 -15 q 802 156 757 76 q 847 338 847 236 l 847 944 l 713 944 l 713 350 q 650 164 713 233 q 479 94 588 94 q 309 163 374 94 q 244 350 244 232 l 244 944 l 111 944 l 111 338 m 476 1286 q 381 1249 421 1286 q 340 1157 340 1211 q 380 1069 340 1104 q 476 1033 419 1033 q 572 1069 532 1033 q 611 1157 611 1104 q 572 1249 611 1211 q 476 1286 532 1286 m 476 1100 q 435 1117 453 1100 q 418 1157 418 1135 q 435 1199 418 1182 q 476 1215 453 1215 q 517 1199 500 1215 q 533 1157 533 1182 q 517 1117 533 1135 q 476 1100 500 1100 z "},"Ű":{"ha":958,"x_min":111,"x_max":847,"o":"m 111 338 q 156 156 111 236 q 285 30 201 75 q 479 -15 368 -15 q 674 31 590 -15 q 802 156 757 76 q 847 338 847 236 l 847 944 l 713 944 l 713 350 q 650 164 713 233 q 479 94 588 94 q 309 163 374 94 q 244 350 244 232 l 244 944 l 111 944 l 111 338 m 372 1246 l 297 1050 l 389 1026 l 514 1246 l 372 1246 m 603 1246 l 528 1050 l 619 1026 l 744 1246 l 603 1246 z "},"Ų":{"ha":958,"x_min":111,"x_max":847,"o":"m 847 338 q 809 169 847 244 q 699 45 771 93 q 531 -12 626 -3 q 488 -74 506 -39 q 469 -132 469 -108 q 485 -174 469 -160 q 526 -189 500 -189 q 593 -162 560 -189 l 635 -244 q 508 -287 583 -287 q 399 -247 442 -287 q 356 -143 356 -206 q 370 -75 356 -112 q 407 -10 385 -37 q 191 106 271 11 q 111 338 111 200 l 111 944 l 244 944 l 244 350 q 309 163 244 232 q 479 94 374 94 q 650 164 588 94 q 713 350 713 233 l 713 944 l 847 944 l 847 338 z "},"Ý":{"ha":804,"x_min":14,"x_max":790,"o":"m 790 944 l 649 944 l 393 508 l 143 968 l 14 921 l 326 375 l 326 0 l 460 0 l 461 376 l 790 944 m 378 1246 l 303 1050 l 394 1026 l 519 1246 l 378 1246 z "},"Ÿ":{"ha":804,"x_min":14,"x_max":790,"o":"m 790 944 l 649 944 l 393 508 l 143 968 l 14 921 l 326 375 l 326 0 l 460 0 l 461 376 l 790 944 m 267 1056 q 320 1078 299 1056 q 342 1131 342 1100 q 320 1183 342 1161 q 267 1206 299 1206 q 214 1183 236 1206 q 192 1131 192 1161 q 214 1078 192 1100 q 267 1056 236 1056 m 508 1056 q 562 1078 540 1056 q 583 1131 583 1100 q 562 1183 583 1161 q 508 1206 540 1206 q 456 1183 478 1206 q 433 1131 433 1161 q 456 1078 433 1100 q 508 1056 478 1056 z "},"Ź":{"ha":783,"x_min":28,"x_max":756,"o":"m 756 839 l 742 944 l 67 944 l 85 839 l 604 839 l 28 104 l 43 0 l 751 0 l 738 104 l 174 104 l 756 839 m 414 1246 l 339 1050 l 431 1026 l 556 1246 l 414 1246 z "},"Ż":{"ha":783,"x_min":28,"x_max":756,"o":"m 756 839 l 742 944 l 67 944 l 85 839 l 604 839 l 28 104 l 43 0 l 751 0 l 738 104 l 174 104 l 756 839 m 428 1050 q 486 1074 463 1050 q 510 1133 510 1099 q 486 1193 510 1168 q 428 1218 463 1218 q 368 1193 393 1218 q 343 1133 343 1168 q 368 1074 343 1099 q 428 1050 393 1050 z "},"Ž":{"ha":783,"x_min":28,"x_max":756,"o":"m 756 839 l 742 944 l 67 944 l 85 839 l 604 839 l 28 104 l 43 0 l 751 0 l 738 104 l 174 104 l 756 839 m 206 1232 l 385 1026 l 476 1026 l 654 1232 l 533 1246 l 429 1125 l 325 1246 l 206 1232 z "},"Ş":{"ha":719,"x_min":56,"x_max":678,"o":"m 678 236 q 600 61 678 129 q 381 -17 522 -7 l 364 -58 q 438 -103 408 -69 q 468 -174 468 -136 q 419 -272 468 -237 q 303 -307 371 -307 q 242 -298 276 -307 q 186 -275 207 -289 l 217 -193 q 260 -209 236 -201 q 303 -217 285 -217 q 347 -206 328 -217 q 367 -176 367 -196 q 332 -133 367 -151 q 243 -108 297 -114 l 281 -14 q 156 13 218 -6 q 72 51 93 32 l 103 157 q 213 115 147 133 q 336 97 278 97 q 489 134 435 97 q 543 233 543 171 q 516 312 543 278 q 439 374 489 346 q 300 442 389 403 q 160 517 213 481 q 82 603 108 554 q 56 722 56 653 q 93 847 56 792 q 201 935 131 903 q 365 967 271 967 q 497 949 431 967 q 615 904 563 931 l 571 799 q 478 835 522 822 q 375 849 435 849 q 240 817 292 849 q 189 725 189 785 q 215 645 189 679 q 290 583 242 611 q 433 513 339 556 q 619 394 560 456 q 678 236 678 333 z "},"Ţ":{"ha":794,"x_min":14,"x_max":781,"o":"m 419 -58 q 494 -103 464 -69 q 524 -174 524 -136 q 475 -272 524 -237 q 358 -307 426 -307 q 297 -298 332 -307 q 242 -275 263 -289 l 272 -193 q 316 -209 292 -201 q 358 -217 340 -217 q 403 -206 383 -217 q 422 -176 422 -196 q 388 -133 422 -151 q 299 -108 353 -114 l 342 0 l 321 0 l 321 839 l 14 839 l 14 944 l 763 944 l 781 839 l 456 839 l 456 0 l 443 0 l 419 -58 z "},"Ș":{"ha":719,"x_min":56,"x_max":678,"o":"m 72 51 q 188 4 100 26 q 338 -18 276 -18 q 521 14 444 -18 q 638 103 597 46 q 678 236 678 161 q 619 394 678 333 q 433 513 560 456 q 290 583 339 556 q 215 645 242 611 q 189 725 189 679 q 240 817 189 785 q 375 849 292 849 q 478 835 435 849 q 571 799 522 822 l 615 904 q 497 949 563 931 q 365 967 431 967 q 201 935 271 967 q 93 847 131 903 q 56 722 56 792 q 82 603 56 653 q 160 517 108 554 q 300 442 213 481 q 439 374 389 403 q 516 312 489 346 q 543 233 543 278 q 489 134 543 171 q 336 97 435 97 q 213 115 278 97 q 103 157 147 133 l 72 51 m 340 -29 q 281 -55 307 -29 q 256 -114 256 -81 q 277 -170 256 -144 q 324 -197 299 -196 q 298 -251 319 -228 q 249 -290 276 -275 l 281 -354 q 383 -261 342 -324 q 425 -129 425 -199 q 401 -57 425 -85 q 340 -29 376 -29 z "},"à":{"ha":685,"x_min":65,"x_max":607,"o":"m 143 526 q 338 572 246 572 q 442 528 413 572 q 472 403 472 485 l 313 403 q 133 348 200 403 q 65 194 65 293 q 125 41 65 99 q 300 -17 185 -17 q 406 7 351 -17 q 497 64 460 31 l 514 0 l 607 0 l 607 457 q 572 575 607 521 q 474 660 536 629 q 335 692 411 692 q 215 674 288 692 q 106 632 142 657 l 143 526 m 185 194 q 218 279 185 244 q 310 314 251 314 l 474 314 l 474 178 q 392 113 438 138 q 297 89 346 89 q 214 120 243 89 q 185 194 185 151 m 335 1038 l 193 1038 l 318 818 l 410 842 l 335 1038 z "},"á":{"ha":685,"x_min":65,"x_max":607,"o":"m 143 526 q 338 572 246 572 q 442 528 413 572 q 472 403 472 485 l 313 403 q 133 348 200 403 q 65 194 65 293 q 125 41 65 99 q 300 -17 185 -17 q 406 7 351 -17 q 497 64 460 31 l 514 0 l 607 0 l 607 457 q 572 575 607 521 q 474 660 536 629 q 335 692 411 692 q 215 674 288 692 q 106 632 142 657 l 143 526 m 185 194 q 218 279 185 244 q 310 314 251 314 l 474 314 l 474 178 q 392 113 438 138 q 297 89 346 89 q 214 120 243 89 q 185 194 185 151 m 318 1038 l 243 842 l 335 818 l 460 1038 l 318 1038 z "},"â":{"ha":685,"x_min":65,"x_max":607,"o":"m 143 526 q 338 572 246 572 q 442 528 413 572 q 472 403 472 485 l 313 403 q 133 348 200 403 q 65 194 65 293 q 125 41 65 99 q 300 -17 185 -17 q 406 7 351 -17 q 497 64 460 31 l 514 0 l 607 0 l 607 457 q 572 575 607 521 q 474 660 536 629 q 335 692 411 692 q 215 674 288 692 q 106 632 142 657 l 143 526 m 185 194 q 218 279 185 244 q 310 314 251 314 l 474 314 l 474 178 q 392 113 438 138 q 297 89 346 89 q 214 120 243 89 q 185 194 185 151 m 553 832 l 374 1038 l 282 1038 l 104 832 l 225 818 l 329 939 l 433 818 l 553 832 z "},"ã":{"ha":685,"x_min":65,"x_max":607,"o":"m 143 526 q 338 572 246 572 q 442 528 413 572 q 472 403 472 485 l 313 403 q 133 348 200 403 q 65 194 65 293 q 125 41 65 99 q 300 -17 185 -17 q 406 7 351 -17 q 497 64 460 31 l 514 0 l 607 0 l 607 457 q 572 575 607 521 q 474 660 536 629 q 335 692 411 692 q 215 674 288 692 q 106 632 142 657 l 143 526 m 185 194 q 218 279 185 244 q 310 314 251 314 l 474 314 l 474 178 q 392 113 438 138 q 297 89 346 89 q 214 120 243 89 q 185 194 185 151 m 457 982 q 442 944 456 958 q 411 931 429 931 q 380 937 393 931 q 346 956 367 943 q 303 979 322 971 q 256 988 285 988 q 160 953 196 988 q 124 842 124 919 l 214 842 q 230 878 215 863 q 261 893 244 893 q 293 887 279 893 q 325 867 307 881 q 367 843 349 851 q 413 835 385 835 q 508 869 471 835 q 544 982 544 904 l 457 982 z "},"ä":{"ha":685,"x_min":65,"x_max":607,"o":"m 143 526 q 338 572 246 572 q 442 528 413 572 q 472 403 472 485 l 313 403 q 133 348 200 403 q 65 194 65 293 q 125 41 65 99 q 300 -17 185 -17 q 406 7 351 -17 q 497 64 460 31 l 514 0 l 607 0 l 607 457 q 572 575 607 521 q 474 660 536 629 q 335 692 411 692 q 215 674 288 692 q 106 632 142 657 l 143 526 m 185 194 q 218 279 185 244 q 310 314 251 314 l 474 314 l 474 178 q 392 113 438 138 q 297 89 346 89 q 214 120 243 89 q 185 194 185 151 m 194 847 q 248 869 226 847 q 269 922 269 892 q 248 975 269 953 q 194 997 226 997 q 142 975 164 997 q 119 922 119 953 q 142 869 119 892 q 194 847 164 847 m 436 847 q 490 869 468 847 q 511 922 511 892 q 490 975 511 953 q 436 997 468 997 q 383 975 406 997 q 361 922 361 953 q 383 869 361 892 q 436 847 406 847 z "},"å":{"ha":685,"x_min":65,"x_max":607,"o":"m 143 526 q 338 572 246 572 q 442 528 413 572 q 472 403 472 485 l 313 403 q 133 348 200 403 q 65 194 65 293 q 125 41 65 99 q 300 -17 185 -17 q 406 7 351 -17 q 497 64 460 31 l 514 0 l 607 0 l 607 457 q 572 575 607 521 q 474 660 536 629 q 335 692 411 692 q 215 674 288 692 q 106 632 142 657 l 143 526 m 185 194 q 218 279 185 244 q 310 314 251 314 l 474 314 l 474 178 q 392 113 438 138 q 297 89 346 89 q 214 120 243 89 q 185 194 185 151 m 331 1078 q 235 1040 275 1078 q 194 949 194 1003 q 234 860 194 896 q 331 825 274 825 q 426 860 386 825 q 465 949 465 896 q 426 1040 465 1003 q 331 1078 386 1078 m 331 892 q 290 909 307 892 q 272 949 272 926 q 290 990 272 974 q 331 1007 307 1007 q 371 990 354 1007 q 388 949 388 974 q 371 909 388 926 q 331 892 354 892 z "},"ā":{"ha":685,"x_min":65,"x_max":607,"o":"m 143 526 q 338 572 246 572 q 442 528 413 572 q 472 403 472 485 l 313 403 q 133 348 200 403 q 65 194 65 293 q 125 41 65 99 q 300 -17 185 -17 q 406 7 351 -17 q 497 64 460 31 l 514 0 l 607 0 l 607 457 q 572 575 607 521 q 474 660 536 629 q 335 692 411 692 q 215 674 288 692 q 106 632 142 657 l 143 526 m 185 194 q 218 279 185 244 q 310 314 251 314 l 474 314 l 474 178 q 392 113 438 138 q 297 89 346 89 q 214 120 243 89 q 185 194 185 151 m 488 975 l 151 975 l 151 869 l 500 869 l 488 975 z "},"ă":{"ha":685,"x_min":65,"x_max":607,"o":"m 143 526 q 338 572 246 572 q 442 528 413 572 q 472 403 472 485 l 313 403 q 133 348 200 403 q 65 194 65 293 q 125 41 65 99 q 300 -17 185 -17 q 406 7 351 -17 q 497 64 460 31 l 514 0 l 607 0 l 607 457 q 572 575 607 521 q 474 660 536 629 q 335 692 411 692 q 215 674 288 692 q 106 632 142 657 l 143 526 m 185 194 q 218 279 185 244 q 310 314 251 314 l 474 314 l 474 178 q 392 113 438 138 q 297 89 346 89 q 214 120 243 89 q 185 194 185 151 m 431 1031 q 404 956 431 989 q 331 924 378 924 q 258 956 283 924 q 232 1031 232 989 l 139 1031 q 188 886 139 944 q 331 826 236 828 q 474 886 425 828 q 524 1031 524 944 l 431 1031 z "},"ą":{"ha":685,"x_min":65,"x_max":722,"o":"m 722 -244 q 596 -287 671 -287 q 486 -247 529 -287 q 443 -143 443 -206 q 463 -63 443 -107 q 508 6 482 -19 l 513 6 l 497 64 q 406 7 460 31 q 300 -17 351 -17 q 125 41 185 -17 q 65 194 65 99 q 133 348 65 293 q 313 403 200 403 l 472 403 q 442 528 472 485 q 338 572 413 572 q 143 526 246 572 l 106 632 q 215 674 142 657 q 335 692 288 692 q 474 660 411 692 q 572 575 536 629 q 607 457 607 521 l 607 6 l 638 6 q 583 -60 608 -17 q 557 -132 557 -103 q 572 -174 557 -160 q 614 -189 588 -189 q 681 -162 647 -189 l 722 -244 m 310 314 q 218 279 251 314 q 185 194 185 244 q 214 120 185 151 q 297 89 243 89 q 392 113 346 89 q 474 178 438 138 l 474 314 l 310 314 z "},"ç":{"ha":644,"x_min":42,"x_max":608,"o":"m 606 46 q 520 8 572 24 q 418 -15 468 -8 l 401 -58 q 476 -103 446 -69 q 506 -174 506 -136 q 457 -272 506 -237 q 340 -307 408 -307 q 279 -298 314 -307 q 224 -275 244 -289 l 254 -193 q 298 -209 274 -201 q 340 -217 322 -217 q 385 -206 365 -217 q 404 -176 404 -196 q 369 -133 404 -151 q 281 -108 335 -114 l 318 -14 q 115 99 189 4 q 42 338 42 194 q 83 522 42 442 q 202 647 125 603 q 382 692 279 692 q 497 673 428 692 q 608 626 567 654 l 569 532 q 473 567 513 556 q 381 578 433 578 q 234 510 289 578 q 178 339 179 442 q 231 163 178 231 q 376 96 283 96 q 475 107 433 96 q 565 142 517 118 l 606 46 z "},"ć":{"ha":644,"x_min":42,"x_max":608,"o":"m 565 142 q 475 107 517 118 q 376 96 433 96 q 231 163 283 96 q 178 339 178 231 q 234 510 179 442 q 381 578 289 578 q 473 567 433 578 q 569 532 513 556 l 608 626 q 497 673 567 654 q 382 692 428 692 q 202 647 279 692 q 83 522 125 603 q 42 338 42 442 q 83 151 42 232 q 199 26 124 71 q 376 -18 275 -18 q 494 0 424 -18 q 606 46 564 18 l 565 142 m 328 1038 l 253 842 l 344 818 l 469 1038 l 328 1038 z "},"č":{"ha":644,"x_min":42,"x_max":608,"o":"m 565 142 q 475 107 517 118 q 376 96 433 96 q 231 163 283 96 q 178 339 178 231 q 234 510 179 442 q 381 578 289 578 q 473 567 433 578 q 569 532 513 556 l 608 626 q 497 673 567 654 q 382 692 428 692 q 202 647 279 692 q 83 522 125 603 q 42 338 42 442 q 83 151 42 232 q 199 26 124 71 q 376 -18 275 -18 q 494 0 424 -18 q 606 46 564 18 l 565 142 m 121 1024 l 300 818 l 392 818 l 569 1024 l 449 1038 l 344 917 l 240 1038 l 121 1024 z "},"ď":{"ha":981,"x_min":42,"x_max":939,"o":"m 853 1003 q 913 974 888 1003 q 939 903 939 946 q 894 760 939 832 q 783 653 849 688 l 751 715 q 811 772 790 746 q 836 835 832 797 q 790 862 811 836 q 768 918 768 888 q 794 976 768 949 q 853 1003 819 1003 m 658 979 l 658 0 l 582 0 l 556 51 q 463 0 514 18 q 376 -18 413 -18 q 198 26 274 -18 q 82 152 122 71 q 42 342 42 233 q 83 525 42 446 q 201 648 125 604 q 378 692 278 692 q 447 681 407 692 q 524 649 486 669 l 524 965 l 658 979 m 178 343 q 230 164 178 232 q 376 96 282 96 q 457 110 422 96 q 524 153 492 124 l 524 525 q 456 565 492 553 q 376 578 421 578 q 231 512 283 578 q 178 343 178 446 z "},"è":{"ha":700,"x_min":42,"x_max":658,"o":"m 658 343 q 584 594 658 496 q 364 692 510 692 q 192 647 265 692 q 81 522 119 603 q 42 338 42 442 q 136 79 42 175 q 407 -17 231 -17 q 651 57 529 -17 l 610 154 q 499 108 539 121 q 407 94 460 94 q 244 151 299 94 q 181 307 189 208 l 658 307 l 658 343 m 183 397 q 238 530 193 482 q 360 578 283 578 q 529 397 503 578 l 183 397 m 365 1038 l 224 1038 l 349 818 l 440 842 l 365 1038 z "},"é":{"ha":700,"x_min":42,"x_max":658,"o":"m 658 343 q 584 594 658 496 q 364 692 510 692 q 192 647 265 692 q 81 522 119 603 q 42 338 42 442 q 136 79 42 175 q 407 -17 231 -17 q 651 57 529 -17 l 610 154 q 499 108 539 121 q 407 94 460 94 q 244 151 299 94 q 181 307 189 208 l 658 307 l 658 343 m 183 397 q 238 530 193 482 q 360 578 283 578 q 529 397 503 578 l 183 397 m 349 1038 l 274 842 l 365 818 l 490 1038 l 349 1038 z "},"ê":{"ha":700,"x_min":42,"x_max":658,"o":"m 658 343 q 584 594 658 496 q 364 692 510 692 q 192 647 265 692 q 81 522 119 603 q 42 338 42 442 q 136 79 42 175 q 407 -17 231 -17 q 651 57 529 -17 l 610 154 q 499 108 539 121 q 407 94 460 94 q 244 151 299 94 q 181 307 189 208 l 658 307 l 658 343 m 183 397 q 238 530 193 482 q 360 578 283 578 q 529 397 503 578 l 183 397 m 583 832 l 404 1038 l 313 1038 l 135 832 l 256 818 l 360 939 l 464 818 l 583 832 z "},"ë":{"ha":700,"x_min":42,"x_max":658,"o":"m 658 343 q 584 594 658 496 q 364 692 510 692 q 192 647 265 692 q 81 522 119 603 q 42 338 42 442 q 136 79 42 175 q 407 -17 231 -17 q 651 57 529 -17 l 610 154 q 499 108 539 121 q 407 94 460 94 q 244 151 299 94 q 181 307 189 208 l 658 307 l 658 343 m 183 397 q 238 530 193 482 q 360 578 283 578 q 529 397 503 578 l 183 397 m 225 847 q 278 869 257 847 q 300 922 300 892 q 278 975 300 953 q 225 997 257 997 q 172 975 194 997 q 150 922 150 953 q 172 869 150 892 q 225 847 194 847 m 467 847 q 520 869 499 847 q 542 922 542 892 q 520 975 542 953 q 467 997 499 997 q 414 975 436 997 q 392 922 392 953 q 414 869 392 892 q 467 847 436 847 z "},"ē":{"ha":700,"x_min":42,"x_max":658,"o":"m 658 343 q 584 594 658 496 q 364 692 510 692 q 192 647 265 692 q 81 522 119 603 q 42 338 42 442 q 136 79 42 175 q 407 -17 231 -17 q 651 57 529 -17 l 610 154 q 499 108 539 121 q 407 94 460 94 q 244 151 299 94 q 181 307 189 208 l 658 307 l 658 343 m 183 397 q 238 530 193 482 q 360 578 283 578 q 529 397 503 578 l 183 397 m 518 975 l 182 975 l 182 869 l 531 869 l 518 975 z "},"ė":{"ha":700,"x_min":42,"x_max":658,"o":"m 658 343 q 584 594 658 496 q 364 692 510 692 q 192 647 265 692 q 81 522 119 603 q 42 338 42 442 q 136 79 42 175 q 407 -17 231 -17 q 651 57 529 -17 l 610 154 q 499 108 539 121 q 407 94 460 94 q 244 151 299 94 q 181 307 189 208 l 658 307 l 658 343 m 183 397 q 238 530 193 482 q 360 578 283 578 q 529 397 503 578 l 183 397 m 361 842 q 419 866 396 842 q 443 925 443 890 q 419 985 443 960 q 361 1010 396 1010 q 301 985 326 1010 q 276 925 276 960 q 301 866 276 890 q 361 842 326 842 z "},"ę":{"ha":700,"x_min":42,"x_max":658,"o":"m 181 307 q 244 151 189 208 q 407 94 299 94 q 499 108 460 94 q 610 154 539 121 l 651 57 q 542 6 594 24 q 487 -60 513 -17 q 461 -132 461 -103 q 476 -174 461 -160 q 518 -189 492 -189 q 585 -162 551 -189 l 626 -244 q 500 -287 575 -287 q 390 -247 433 -287 q 347 -143 347 -206 q 360 -79 347 -114 q 393 -17 374 -44 q 133 83 224 -12 q 42 338 42 179 q 81 522 42 442 q 192 647 119 603 q 364 692 265 692 q 584 594 510 692 q 658 343 658 496 l 658 307 l 181 307 m 529 397 q 360 578 501 578 q 238 530 283 578 q 183 397 193 482 l 529 397 z "},"ě":{"ha":700,"x_min":42,"x_max":658,"o":"m 658 343 q 584 594 658 496 q 364 692 510 692 q 192 647 265 692 q 81 522 119 603 q 42 338 42 442 q 136 79 42 175 q 407 -17 231 -17 q 651 57 529 -17 l 610 154 q 499 108 539 121 q 407 94 460 94 q 244 151 299 94 q 181 307 189 208 l 658 307 l 658 343 m 183 397 q 238 530 193 482 q 360 578 283 578 q 529 397 503 578 l 183 397 m 142 1024 l 321 818 l 413 818 l 590 1024 l 469 1038 l 365 917 l 261 1038 l 142 1024 z "},"ğ":{"ha":750,"x_min":42,"x_max":658,"o":"m 658 -60 q 620 -194 658 -135 q 510 -286 582 -253 q 336 -319 438 -319 q 214 -301 288 -319 q 97 -253 140 -282 l 138 -157 q 242 -199 207 -187 q 332 -211 278 -211 q 471 -172 418 -211 q 524 -58 524 -132 l 524 29 q 446 -6 486 7 q 376 -18 406 -18 q 198 26 274 -18 q 82 152 122 71 q 42 342 42 233 q 83 525 42 446 q 201 648 125 604 q 378 692 278 692 q 464 675 414 692 q 556 626 514 658 l 582 674 l 658 674 l 658 -60 m 376 96 q 457 110 422 96 q 524 153 492 124 l 524 525 q 456 565 492 553 q 376 578 421 578 q 231 512 283 578 q 178 343 178 446 q 230 164 178 232 q 376 96 282 96 m 458 1031 q 432 956 458 989 q 358 924 406 924 q 285 956 311 924 q 260 1031 260 989 l 167 1031 q 215 886 167 944 q 358 826 264 828 q 502 886 453 828 q 551 1031 551 944 l 458 1031 z "},"ì":{"ha":301,"x_min":11,"x_max":228,"o":"m 83 674 l 83 0 l 218 0 l 218 674 l 83 674 m 153 1038 l 11 1038 l 136 818 l 228 842 l 153 1038 z "},"í":{"ha":301,"x_min":61,"x_max":278,"o":"m 83 674 l 83 0 l 218 0 l 218 674 l 83 674 m 136 1038 l 61 842 l 153 818 l 278 1038 l 136 1038 z "},"î":{"ha":301,"x_min":-78,"x_max":371,"o":"m 83 674 l 83 0 l 218 0 l 218 674 l 83 674 m 371 832 l 192 1038 l 100 1038 l -78 832 l 43 818 l 147 939 l 251 818 l 371 832 z "},"ï":{"ha":301,"x_min":-62,"x_max":329,"o":"m 83 674 l 83 0 l 218 0 l 218 674 l 83 674 m 13 847 q 66 869 44 847 q 88 922 88 892 q 66 975 88 953 q 13 997 44 997 q -40 975 -18 997 q -62 922 -62 953 q -40 869 -62 892 q 13 847 -18 847 m 254 847 q 308 869 286 847 q 329 922 329 892 q 308 975 329 953 q 254 997 286 997 q 201 975 224 997 q 179 922 179 953 q 201 869 179 892 q 254 847 224 847 z "},"ī":{"ha":301,"x_min":-31,"x_max":318,"o":"m 83 674 l 83 0 l 218 0 l 218 674 l 83 674 m 306 975 l -31 975 l -31 869 l 318 869 l 306 975 z "},"į":{"ha":301,"x_min":14,"x_max":293,"o":"m 149 842 q 89 866 114 842 q 64 925 64 890 q 89 985 64 960 q 149 1010 114 1010 q 207 985 183 1010 q 231 925 231 960 q 207 866 231 890 q 149 842 183 842 m 293 -244 q 167 -287 242 -287 q 57 -247 100 -287 q 14 -143 14 -206 q 33 -63 14 -107 q 79 6 53 -19 l 83 6 l 83 674 l 218 674 l 218 0 l 201 0 q 151 -65 174 -25 q 128 -132 128 -104 q 143 -174 128 -160 q 185 -189 158 -189 q 251 -162 218 -189 l 293 -244 z "},"ľ":{"ha":553,"x_min":97,"x_max":511,"o":"m 425 1003 q 366 976 392 1003 q 340 918 340 949 q 362 862 340 888 q 408 835 383 836 q 383 772 404 797 q 324 715 363 746 l 356 653 q 466 760 421 688 q 511 903 511 832 q 485 974 511 946 q 425 1003 460 1003 m 97 965 l 97 0 l 231 0 l 231 981 l 97 965 z "},"ñ":{"ha":751,"x_min":83,"x_max":674,"o":"m 217 475 q 326 552 271 522 q 429 582 382 582 q 516 544 492 582 q 540 432 540 506 l 540 0 l 674 0 l 674 444 q 620 628 674 560 q 457 696 567 696 q 322 665 390 696 q 200 585 254 633 l 176 674 l 83 674 l 83 0 l 217 0 l 217 475 m 515 982 q 501 944 514 958 q 469 931 488 931 q 438 937 451 931 q 404 956 425 943 q 362 979 381 971 q 314 988 343 988 q 218 953 254 988 q 182 842 182 919 l 272 842 q 288 878 274 863 q 319 893 303 893 q 351 887 338 893 q 383 867 365 881 q 425 843 407 851 q 471 835 443 835 q 566 869 529 835 q 603 982 603 904 l 515 982 z "},"ń":{"ha":751,"x_min":83,"x_max":674,"o":"m 217 475 q 326 552 271 522 q 429 582 382 582 q 516 544 492 582 q 540 432 540 506 l 540 0 l 674 0 l 674 444 q 620 628 674 560 q 457 696 567 696 q 322 665 390 696 q 200 585 254 633 l 176 674 l 83 674 l 83 0 l 217 0 l 217 475 m 376 1038 l 301 842 l 393 818 l 518 1038 l 376 1038 z "},"ň":{"ha":751,"x_min":83,"x_max":674,"o":"m 217 475 q 326 552 271 522 q 429 582 382 582 q 516 544 492 582 q 540 432 540 506 l 540 0 l 674 0 l 674 444 q 620 628 674 560 q 457 696 567 696 q 322 665 390 696 q 200 585 254 633 l 176 674 l 83 674 l 83 0 l 217 0 l 217 475 m 169 1024 l 349 818 l 440 818 l 618 1024 l 497 1038 l 393 917 l 289 1038 l 169 1024 z "},"ò":{"ha":757,"x_min":42,"x_max":715,"o":"m 715 336 q 674 151 715 232 q 555 26 632 71 q 375 -18 478 -18 q 198 26 274 -18 q 82 151 122 71 q 42 338 42 232 q 83 522 42 442 q 201 647 125 603 q 381 692 278 692 q 558 647 482 692 q 674 522 633 603 q 715 336 715 442 m 376 96 q 523 164 468 96 q 579 335 578 232 q 526 510 579 443 q 381 578 474 578 q 234 510 289 578 q 178 339 179 442 q 231 163 178 231 q 376 96 283 96 m 382 1038 l 240 1038 l 365 818 l 457 842 l 382 1038 z "},"ó":{"ha":757,"x_min":42,"x_max":715,"o":"m 715 336 q 674 151 715 232 q 555 26 632 71 q 375 -18 478 -18 q 198 26 274 -18 q 82 151 122 71 q 42 338 42 232 q 83 522 42 442 q 201 647 125 603 q 381 692 278 692 q 558 647 482 692 q 674 522 633 603 q 715 336 715 442 m 376 96 q 523 164 468 96 q 579 335 578 232 q 526 510 579 443 q 381 578 474 578 q 234 510 289 578 q 178 339 179 442 q 231 163 178 231 q 376 96 283 96 m 365 1038 l 290 842 l 382 818 l 507 1038 l 365 1038 z "},"ô":{"ha":757,"x_min":42,"x_max":715,"o":"m 715 336 q 674 151 715 232 q 555 26 632 71 q 375 -18 478 -18 q 198 26 274 -18 q 82 151 122 71 q 42 338 42 232 q 83 522 42 442 q 201 647 125 603 q 381 692 278 692 q 558 647 482 692 q 674 522 633 603 q 715 336 715 442 m 376 96 q 523 164 468 96 q 579 335 578 232 q 526 510 579 443 q 381 578 474 578 q 234 510 289 578 q 178 339 179 442 q 231 163 178 231 q 376 96 283 96 m 600 832 l 421 1038 l 329 1038 l 151 832 l 272 818 l 376 939 l 481 818 l 600 832 z "},"õ":{"ha":757,"x_min":42,"x_max":715,"o":"m 715 336 q 674 151 715 232 q 555 26 632 71 q 375 -18 478 -18 q 198 26 274 -18 q 82 151 122 71 q 42 338 42 232 q 83 522 42 442 q 201 647 125 603 q 381 692 278 692 q 558 647 482 692 q 674 522 633 603 q 715 336 715 442 m 376 96 q 523 164 468 96 q 579 335 578 232 q 526 510 579 443 q 381 578 474 578 q 234 510 289 578 q 178 339 179 442 q 231 163 178 231 q 376 96 283 96 m 504 982 q 490 944 503 958 q 458 931 476 931 q 427 937 440 931 q 393 956 414 943 q 351 979 369 971 q 303 988 332 988 q 207 953 243 988 q 171 842 171 919 l 261 842 q 277 878 263 863 q 308 893 292 893 q 340 887 326 893 q 372 867 354 881 q 414 843 396 851 q 460 835 432 835 q 555 869 518 835 q 592 982 592 904 l 504 982 z "},"ö":{"ha":757,"x_min":42,"x_max":715,"o":"m 715 336 q 674 151 715 232 q 555 26 632 71 q 375 -18 478 -18 q 198 26 274 -18 q 82 151 122 71 q 42 338 42 232 q 83 522 42 442 q 201 647 125 603 q 381 692 278 692 q 558 647 482 692 q 674 522 633 603 q 715 336 715 442 m 376 96 q 523 164 468 96 q 579 335 578 232 q 526 510 579 443 q 381 578 474 578 q 234 510 289 578 q 178 339 179 442 q 231 163 178 231 q 376 96 283 96 m 242 847 q 295 869 274 847 q 317 922 317 892 q 295 975 317 953 q 242 997 274 997 q 189 975 211 997 q 167 922 167 953 q 189 869 167 892 q 242 847 211 847 m 483 847 q 537 869 515 847 q 558 922 558 892 q 537 975 558 953 q 483 997 515 997 q 431 975 453 997 q 408 922 408 953 q 431 869 408 892 q 483 847 453 847 z "},"ō":{"ha":757,"x_min":42,"x_max":715,"o":"m 715 336 q 674 151 715 232 q 555 26 632 71 q 375 -18 478 -18 q 198 26 274 -18 q 82 151 122 71 q 42 338 42 232 q 83 522 42 442 q 201 647 125 603 q 381 692 278 692 q 558 647 482 692 q 674 522 633 603 q 715 336 715 442 m 376 96 q 523 164 468 96 q 579 335 578 232 q 526 510 579 443 q 381 578 474 578 q 234 510 289 578 q 178 339 179 442 q 231 163 178 231 q 376 96 283 96 m 535 975 l 199 975 l 199 869 l 547 869 l 535 975 z "},"ő":{"ha":757,"x_min":42,"x_max":715,"o":"m 715 336 q 674 151 715 232 q 555 26 632 71 q 375 -18 478 -18 q 198 26 274 -18 q 82 151 122 71 q 42 338 42 232 q 83 522 42 442 q 201 647 125 603 q 381 692 278 692 q 558 647 482 692 q 674 522 633 603 q 715 336 715 442 m 376 96 q 523 164 468 96 q 579 335 578 232 q 526 510 579 443 q 381 578 474 578 q 234 510 289 578 q 178 339 179 442 q 231 163 178 231 q 376 96 283 96 m 276 1038 l 201 842 l 293 818 l 418 1038 l 276 1038 m 507 1038 l 432 842 l 524 818 l 649 1038 l 507 1038 z "},"ŕ":{"ha":469,"x_min":83,"x_max":456,"o":"m 217 446 q 336 531 269 496 q 456 567 403 567 l 426 674 q 313 639 378 674 q 201 564 249 604 l 158 674 l 83 674 l 83 0 l 217 0 l 217 446 m 224 1038 l 149 842 l 240 818 l 365 1038 l 224 1038 z "},"ř":{"ha":469,"x_min":17,"x_max":465,"o":"m 217 446 q 336 531 269 496 q 456 567 403 567 l 426 674 q 313 639 378 674 q 201 564 249 604 l 158 674 l 83 674 l 83 0 l 217 0 l 217 446 m 17 1024 l 196 818 l 288 818 l 465 1024 l 344 1038 l 240 917 l 136 1038 l 17 1024 z "},"ś":{"ha":585,"x_min":44,"x_max":543,"o":"m 47 43 q 153 -1 86 15 q 269 -18 221 -18 q 472 35 401 -18 q 543 183 543 88 q 315 401 543 319 q 213 447 249 424 q 176 499 178 471 q 210 559 176 535 q 297 583 244 583 q 386 572 346 583 q 475 538 426 560 l 517 628 q 412 674 476 656 q 300 692 347 692 q 113 640 182 692 q 44 496 44 588 q 265 293 44 365 q 415 176 415 246 q 376 114 415 138 q 269 90 336 90 q 89 136 183 90 l 47 43 m 282 1038 l 207 842 l 299 818 l 424 1038 l 282 1038 z "},"š":{"ha":585,"x_min":44,"x_max":543,"o":"m 47 43 q 153 -1 86 15 q 269 -18 221 -18 q 472 35 401 -18 q 543 183 543 88 q 315 401 543 319 q 213 447 249 424 q 176 499 178 471 q 210 559 176 535 q 297 583 244 583 q 386 572 346 583 q 475 538 426 560 l 517 628 q 412 674 476 656 q 300 692 347 692 q 113 640 182 692 q 44 496 44 588 q 265 293 44 365 q 415 176 415 246 q 376 114 415 138 q 269 90 336 90 q 89 136 183 90 l 47 43 m 75 1024 l 254 818 l 346 818 l 524 1024 l 403 1038 l 299 917 l 194 1038 l 75 1024 z "},"ť":{"ha":657,"x_min":21,"x_max":615,"o":"m 529 1003 q 470 976 496 1003 q 444 918 444 949 q 466 862 444 888 q 513 835 488 836 q 488 772 508 797 q 428 715 467 746 l 460 653 q 570 760 525 688 q 615 903 615 832 q 590 974 615 946 q 529 1003 564 1003 m 250 864 l 117 833 l 117 665 l 21 665 l 22 564 l 117 564 l 117 188 q 174 31 117 86 q 332 -24 232 -24 q 392 -15 360 -24 q 446 6 425 -6 l 411 107 q 346 92 371 92 q 274 123 297 92 q 250 208 250 154 l 250 564 l 414 564 l 372 665 l 250 665 l 250 864 z "},"ù":{"ha":751,"x_min":78,"x_max":668,"o":"m 535 199 q 425 122 481 151 q 322 92 369 92 q 235 130 260 92 q 211 242 211 168 l 211 674 l 78 674 l 78 229 q 131 46 78 114 q 294 -22 185 -22 q 429 9 361 -22 q 551 89 497 40 l 575 0 l 668 0 l 668 674 l 535 674 l 535 199 m 374 1038 l 232 1038 l 357 818 l 449 842 l 374 1038 z "},"ú":{"ha":751,"x_min":78,"x_max":668,"o":"m 535 199 q 425 122 481 151 q 322 92 369 92 q 235 130 260 92 q 211 242 211 168 l 211 674 l 78 674 l 78 229 q 131 46 78 114 q 294 -22 185 -22 q 429 9 361 -22 q 551 89 497 40 l 575 0 l 668 0 l 668 674 l 535 674 l 535 199 m 357 1038 l 282 842 l 374 818 l 499 1038 l 357 1038 z "},"û":{"ha":751,"x_min":78,"x_max":668,"o":"m 535 199 q 425 122 481 151 q 322 92 369 92 q 235 130 260 92 q 211 242 211 168 l 211 674 l 78 674 l 78 229 q 131 46 78 114 q 294 -22 185 -22 q 429 9 361 -22 q 551 89 497 40 l 575 0 l 668 0 l 668 674 l 535 674 l 535 199 m 592 832 l 413 1038 l 321 1038 l 143 832 l 264 818 l 368 939 l 472 818 l 592 832 z "},"ü":{"ha":751,"x_min":78,"x_max":668,"o":"m 535 199 q 425 122 481 151 q 322 92 369 92 q 235 130 260 92 q 211 242 211 168 l 211 674 l 78 674 l 78 229 q 131 46 78 114 q 294 -22 185 -22 q 429 9 361 -22 q 551 89 497 40 l 575 0 l 668 0 l 668 674 l 535 674 l 535 199 m 233 847 q 287 869 265 847 q 308 922 308 892 q 287 975 308 953 q 233 997 265 997 q 181 975 203 997 q 158 922 158 953 q 181 869 158 892 q 233 847 203 847 m 475 847 q 528 869 507 847 q 550 922 550 892 q 528 975 550 953 q 475 997 507 997 q 422 975 444 997 q 400 922 400 953 q 422 869 400 892 q 475 847 444 847 z "},"ū":{"ha":751,"x_min":78,"x_max":668,"o":"m 535 199 q 425 122 481 151 q 322 92 369 92 q 235 130 260 92 q 211 242 211 168 l 211 674 l 78 674 l 78 229 q 131 46 78 114 q 294 -22 185 -22 q 429 9 361 -22 q 551 89 497 40 l 575 0 l 668 0 l 668 674 l 535 674 l 535 199 m 526 975 l 190 975 l 190 869 l 539 869 l 526 975 z "},"ů":{"ha":751,"x_min":78,"x_max":668,"o":"m 535 199 q 425 122 481 151 q 322 92 369 92 q 235 130 260 92 q 211 242 211 168 l 211 674 l 78 674 l 78 229 q 131 46 78 114 q 294 -22 185 -22 q 429 9 361 -22 q 551 89 497 40 l 575 0 l 668 0 l 668 674 l 535 674 l 535 199 m 369 1078 q 274 1040 314 1078 q 233 949 233 1003 q 273 860 233 896 q 369 825 313 825 q 465 860 425 825 q 504 949 504 896 q 465 1040 504 1003 q 369 1078 425 1078 m 369 892 q 328 909 346 892 q 311 949 311 926 q 328 990 311 974 q 369 1007 346 1007 q 410 990 393 1007 q 426 949 426 974 q 410 909 426 926 q 369 892 393 892 z "},"ű":{"ha":751,"x_min":78,"x_max":668,"o":"m 535 199 q 425 122 481 151 q 322 92 369 92 q 235 130 260 92 q 211 242 211 168 l 211 674 l 78 674 l 78 229 q 131 46 78 114 q 294 -22 185 -22 q 429 9 361 -22 q 551 89 497 40 l 575 0 l 668 0 l 668 674 l 535 674 l 535 199 m 268 1038 l 193 842 l 285 818 l 410 1038 l 268 1038 m 499 1038 l 424 842 l 515 818 l 640 1038 l 499 1038 z "},"ų":{"ha":751,"x_min":78,"x_max":774,"o":"m 774 -244 q 647 -287 722 -287 q 538 -247 581 -287 q 494 -143 494 -206 q 514 -63 494 -107 q 560 6 533 -19 l 574 6 l 551 89 q 429 9 497 40 q 294 -22 361 -22 q 131 46 185 -22 q 78 229 78 114 l 78 674 l 211 674 l 211 242 q 235 130 211 168 q 322 92 260 92 q 425 122 369 92 q 535 199 481 151 l 535 674 l 668 674 l 668 6 l 689 6 q 634 -60 660 -17 q 608 -132 608 -103 q 624 -174 608 -160 q 665 -189 639 -189 q 732 -162 699 -189 l 774 -244 z "},"ý":{"ha":657,"x_min":14,"x_max":643,"o":"m 221 -85 q 169 -151 206 -126 q 67 -204 133 -175 l 111 -307 q 256 -240 192 -289 q 344 -122 319 -190 l 643 674 l 506 674 l 328 190 l 140 699 l 14 651 l 260 18 l 221 -85 m 306 1038 l 231 842 l 322 818 l 447 1038 l 306 1038 z "},"ÿ":{"ha":657,"x_min":14,"x_max":643,"o":"m 221 -85 q 169 -151 206 -126 q 67 -204 133 -175 l 111 -307 q 256 -240 192 -289 q 344 -122 319 -190 l 643 674 l 506 674 l 328 190 l 140 699 l 14 651 l 260 18 l 221 -85 m 182 847 q 235 869 214 847 q 257 922 257 892 q 235 975 257 953 q 182 997 214 997 q 129 975 151 997 q 107 922 107 953 q 129 869 107 892 q 182 847 151 847 m 424 847 q 477 869 456 847 q 499 922 499 892 q 477 975 499 953 q 424 997 456 997 q 371 975 393 997 q 349 922 349 953 q 371 869 349 892 q 424 847 393 847 z "},"ź":{"ha":603,"x_min":25,"x_max":578,"o":"m 82 565 l 403 565 l 25 69 l 42 0 l 578 0 l 564 106 l 192 106 l 575 600 l 568 674 l 53 674 l 82 565 m 296 1038 l 221 842 l 313 818 l 438 1038 l 296 1038 z "},"ż":{"ha":603,"x_min":25,"x_max":578,"o":"m 82 565 l 403 565 l 25 69 l 42 0 l 578 0 l 564 106 l 192 106 l 575 600 l 568 674 l 53 674 l 82 565 m 308 842 q 367 866 343 842 q 390 925 390 890 q 367 985 390 960 q 308 1010 343 1010 q 249 985 274 1010 q 224 925 224 960 q 249 866 224 890 q 308 842 274 842 z "},"ž":{"ha":603,"x_min":25,"x_max":578,"o":"m 82 565 l 403 565 l 25 69 l 42 0 l 578 0 l 564 106 l 192 106 l 575 600 l 568 674 l 53 674 l 82 565 m 89 1024 l 268 818 l 360 818 l 538 1024 l 417 1038 l 313 917 l 208 1038 l 89 1024 z "},"ş":{"ha":585,"x_min":44,"x_max":543,"o":"m 543 183 q 483 44 543 96 q 311 -17 424 -8 l 294 -58 q 369 -103 339 -69 q 399 -174 399 -136 q 350 -272 399 -237 q 233 -307 301 -307 q 172 -298 207 -307 q 117 -275 138 -289 l 147 -193 q 191 -209 167 -201 q 233 -217 215 -217 q 278 -206 258 -217 q 297 -176 297 -196 q 263 -133 297 -151 q 174 -108 228 -114 l 211 -12 q 119 8 164 -6 q 47 43 75 22 l 89 136 q 269 90 183 90 q 376 114 336 90 q 415 176 415 138 q 265 293 415 246 q 44 496 44 365 q 113 640 44 588 q 300 692 182 692 q 412 674 347 692 q 517 628 476 656 l 475 538 q 386 572 426 560 q 297 583 346 583 q 210 559 244 583 q 176 499 176 535 q 213 447 178 471 q 315 401 249 424 q 543 183 543 319 z "},"ţ":{"ha":474,"x_min":21,"x_max":446,"o":"m 317 -58 q 391 -103 361 -69 q 421 -174 421 -136 q 372 -272 421 -237 q 256 -307 324 -307 q 194 -298 229 -307 q 139 -275 160 -289 l 169 -193 q 213 -209 189 -201 q 256 -217 238 -217 q 300 -206 281 -217 q 319 -176 319 -196 q 285 -133 319 -151 q 196 -108 250 -114 l 236 -7 q 148 64 179 14 q 117 188 117 114 l 117 564 l 22 564 l 21 665 l 117 665 l 117 833 l 250 864 l 250 665 l 372 665 l 414 564 l 250 564 l 250 208 q 274 123 250 154 q 346 92 297 92 q 411 107 371 92 l 446 6 q 392 -15 425 -6 q 331 -24 360 -24 l 317 -58 z "},"ș":{"ha":585,"x_min":44,"x_max":543,"o":"m 47 43 q 153 -1 86 15 q 269 -18 221 -18 q 472 35 401 -18 q 543 183 543 88 q 315 401 543 319 q 213 447 249 424 q 176 499 178 471 q 210 559 176 535 q 297 583 244 583 q 386 572 346 583 q 475 538 426 560 l 517 628 q 412 674 476 656 q 300 692 347 692 q 113 640 182 692 q 44 496 44 588 q 265 293 44 365 q 415 176 415 246 q 376 114 415 138 q 269 90 336 90 q 89 136 183 90 l 47 43 m 271 -29 q 212 -55 238 -29 q 186 -114 186 -81 q 208 -170 186 -144 q 254 -197 229 -196 q 228 -251 250 -228 q 179 -290 207 -275 l 211 -354 q 314 -261 272 -324 q 356 -129 356 -199 q 331 -57 356 -85 q 271 -29 307 -29 z "},"­":{"ha":167,"x_min":0,"x_max":0,"o":""},"µ":{"ha":765,"x_min":92,"x_max":682,"o":"m 682 0 l 589 0 l 565 89 q 443 9 511 40 q 308 -22 375 -22 q 225 -10 260 -22 l 225 -289 l 92 -304 l 92 674 l 225 674 l 225 242 q 249 130 225 168 q 336 92 274 92 q 439 122 383 92 q 549 199 494 151 l 549 674 l 682 674 l 682 0 z "},"ˉ":{"ha":376,"x_min":14,"x_max":363,"o":"m 349 975 l 14 975 l 14 869 l 363 869 l 349 975 z "},"ℓ":{"ha":531,"x_min":14,"x_max":489,"o":"m 46 235 q 108 275 82 253 l 108 219 q 156 46 108 107 q 314 -15 203 -15 q 394 -1 354 -15 q 465 43 433 14 l 419 126 q 328 99 374 99 q 260 133 278 99 q 243 235 243 168 l 243 379 q 420 585 351 476 q 489 783 489 693 q 438 923 489 871 q 306 975 386 975 q 164 921 219 975 q 108 774 108 867 l 108 419 q 14 349 78 394 l 46 235 m 357 778 q 243 543 357 678 l 243 769 q 303 860 243 857 q 342 840 326 860 q 357 778 357 821 z "},"Ω":{"ha":990,"x_min":56,"x_max":935,"o":"m 790 474 q 745 251 790 357 q 626 107 700 146 l 624 0 l 926 0 l 935 107 l 792 107 q 894 266 857 164 q 931 475 931 368 q 878 728 931 618 q 728 901 826 839 q 494 967 631 964 q 262 901 360 964 q 112 728 164 839 q 60 475 60 618 q 97 266 60 368 q 199 107 133 164 l 56 107 l 64 0 l 367 0 l 363 107 q 244 251 289 146 q 199 474 199 357 q 237 671 199 585 q 342 804 275 757 q 494 851 408 851 q 648 804 581 851 q 753 671 715 757 q 790 474 790 585 z "},"∆":{"ha":868,"x_min":14,"x_max":854,"o":"m 854 0 l 854 19 l 490 944 l 369 944 l 14 0 l 854 0 m 428 765 l 681 107 l 183 107 l 428 765 z "},"∕":{"ha":582,"x_min":14,"x_max":568,"o":"m 146 -6 l 568 981 l 435 986 l 14 0 l 146 -6 z "},"∙":{"ha":347,"x_min":42,"x_max":306,"o":"m 174 325 q 267 363 229 325 q 306 456 306 401 q 267 549 306 510 q 174 588 229 588 q 80 549 118 588 q 42 456 42 510 q 80 363 42 401 q 174 325 118 325 z "},"₺":{"ha":713,"x_min":0,"x_max":685,"o":"m 222 0 q 452 55 346 0 q 622 212 558 110 q 685 449 685 314 l 549 449 q 508 285 549 360 q 398 165 467 210 q 253 121 329 121 l 253 508 l 507 599 l 488 699 l 253 617 l 253 683 l 507 772 l 488 872 l 253 790 l 253 981 l 119 965 l 119 742 l 0 700 l 18 599 l 119 635 l 119 569 l 0 526 l 18 426 l 119 461 l 119 0 l 222 0 z "},"₽":{"ha":794,"x_min":40,"x_max":753,"o":"m 258 279 l 660 279 l 671 176 l 258 176 l 258 0 l 125 0 l 125 176 l 51 176 l 40 279 l 125 279 l 125 351 l 51 351 l 40 454 l 125 454 l 125 944 l 396 944 q 655 872 557 944 q 753 650 753 800 q 703 481 753 549 q 569 380 653 413 q 382 347 485 347 l 258 347 l 258 279 m 388 458 q 549 504 489 458 q 614 644 610 550 q 558 790 614 747 q 394 832 503 832 l 258 832 l 258 458 l 388 458 z "},"¢":{"ha":644,"x_min":42,"x_max":608,"o":"m 606 46 q 538 14 579 28 q 456 -8 497 0 l 456 -157 l 333 -157 l 333 -15 q 119 94 197 -1 q 42 338 42 189 q 120 578 43 483 q 332 689 197 674 l 332 831 l 454 844 l 454 683 q 608 626 556 663 l 569 532 q 473 567 513 556 q 381 578 433 578 q 234 510 289 578 q 178 339 179 442 q 231 163 178 231 q 376 96 283 96 q 475 107 433 96 q 565 142 517 118 l 606 46 z "},"£":{"ha":650,"x_min":69,"x_max":636,"o":"m 618 104 l 268 104 q 307 294 307 153 l 307 431 l 528 431 l 483 532 l 307 532 l 307 715 q 329 801 307 769 q 400 833 351 833 q 465 818 425 833 l 500 918 q 449 940 482 931 q 386 950 415 950 q 226 885 281 950 q 172 704 172 819 l 172 532 l 69 532 l 71 431 l 172 431 l 172 222 q 148 135 172 167 q 72 104 124 104 l 85 0 l 636 0 l 618 104 z "},"¤":{"ha":947,"x_min":42,"x_max":906,"o":"m 767 138 q 825 335 824 225 q 768 535 824 449 l 906 676 l 826 772 l 681 625 q 478 692 592 690 q 269 622 365 690 l 121 772 l 42 676 l 183 532 q 142 442 157 493 q 126 338 126 392 q 181 138 126 228 l 42 -6 l 121 -100 l 267 49 q 469 -18 356 -17 q 679 49 592 -18 l 826 -100 l 906 -6 l 767 138 m 688 333 q 658 217 688 269 q 580 135 629 165 q 471 104 531 104 q 322 172 379 106 q 264 339 264 239 q 292 454 264 401 q 369 537 321 507 q 478 567 418 567 q 585 536 538 567 q 660 452 633 506 q 688 333 688 399 z "},"¥":{"ha":804,"x_min":14,"x_max":790,"o":"m 461 200 l 700 200 l 713 100 l 460 100 l 460 0 l 326 0 l 326 100 l 104 100 l 92 200 l 326 200 l 326 331 l 104 331 l 92 432 l 294 432 l 14 921 l 143 968 l 393 508 l 649 944 l 790 944 l 493 432 l 700 432 l 713 331 l 461 331 l 461 200 z "},"€":{"ha":838,"x_min":0,"x_max":810,"o":"m 810 36 q 690 -3 764 13 q 557 -19 617 -19 q 288 66 394 -19 q 140 294 181 151 l 15 294 l 0 396 l 121 396 q 117 467 117 432 q 121 544 117 507 l 15 544 l 0 644 l 142 644 q 297 877 186 790 q 565 964 407 964 q 688 949 615 964 q 806 907 760 935 l 764 811 q 663 842 701 833 q 563 850 624 850 q 397 795 471 850 q 286 644 324 740 l 608 644 l 621 544 l 261 544 q 256 468 256 511 q 260 396 256 432 l 608 396 l 621 294 l 285 294 q 388 149 319 203 q 551 94 457 94 q 758 136 668 94 l 810 36 z "},"$":{"ha":719,"x_min":56,"x_max":678,"o":"m 504 947 q 615 904 567 928 l 571 799 q 478 835 522 822 q 375 849 435 849 q 240 817 292 849 q 189 725 189 785 q 215 645 189 679 q 290 583 242 611 q 433 513 339 556 q 619 394 560 456 q 678 236 678 333 q 633 97 678 157 q 504 8 588 38 l 504 -165 l 410 -165 l 410 -14 q 346 -18 376 -18 l 324 -18 l 324 -165 l 231 -165 l 231 -6 q 72 51 133 15 l 103 157 q 213 115 147 133 q 336 97 278 97 q 489 134 435 97 q 543 233 543 171 q 516 312 543 278 q 439 374 489 346 q 300 442 389 403 q 160 517 213 481 q 82 603 108 554 q 56 722 56 653 q 101 858 56 799 q 231 946 147 918 l 231 1103 l 324 1117 l 324 967 l 347 967 q 410 964 379 967 l 410 1103 l 504 1117 l 504 947 z "},",":{"ha":257,"x_min":28,"x_max":215,"o":"m 129 167 q 71 142 96 167 q 46 83 46 117 q 67 27 46 53 q 114 0 89 1 q 89 -63 110 -37 q 28 -119 68 -89 l 60 -182 q 171 -76 126 -147 q 215 67 215 -4 q 191 139 215 111 q 129 167 167 167 z "},".":{"ha":250,"x_min":42,"x_max":208,"o":"m 126 0 q 185 24 161 0 q 208 83 208 49 q 185 142 208 118 q 126 167 161 167 q 66 142 90 167 q 42 83 42 118 q 66 24 42 49 q 126 0 90 0 z "},"!":{"ha":251,"x_min":42,"x_max":210,"o":"m 199 975 l 53 975 l 76 319 l 178 272 l 199 975 m 126 167 q 67 142 92 167 q 42 83 42 118 q 67 24 42 49 q 126 0 92 0 q 185 24 161 0 q 210 83 210 49 q 185 142 210 118 q 126 167 161 167 z "},"¡":{"ha":251,"x_min":42,"x_max":210,"o":"m 126 806 q 185 831 161 806 q 210 890 210 856 q 185 950 210 925 q 126 975 161 975 q 67 950 92 975 q 42 890 42 925 q 67 831 42 856 q 126 806 92 806 m 53 0 l 199 0 l 178 654 l 75 701 l 53 0 z "},":":{"ha":250,"x_min":42,"x_max":208,"o":"m 125 474 q 184 498 160 474 q 208 557 208 522 q 184 617 208 592 q 125 642 160 642 q 66 617 90 642 q 42 557 42 592 q 66 498 42 522 q 125 474 90 474 m 125 25 q 184 49 160 25 q 208 108 208 74 q 184 169 208 144 q 125 193 160 193 q 66 169 90 193 q 42 108 42 144 q 66 49 42 74 q 125 25 90 25 z "},";":{"ha":258,"x_min":28,"x_max":217,"o":"m 133 642 q 72 617 97 642 q 47 557 47 592 q 72 498 47 522 q 133 474 97 474 q 192 498 168 474 q 217 557 217 522 q 192 617 217 592 q 133 642 168 642 m 129 193 q 71 167 96 193 q 46 108 46 142 q 67 51 46 76 q 114 25 89 26 q 89 -38 110 -12 q 28 -94 68 -64 l 60 -157 q 171 -51 126 -122 q 215 92 215 21 q 191 165 215 138 q 129 193 167 193 z "},"?":{"ha":582,"x_min":14,"x_max":540,"o":"m 271 974 q 138 953 196 974 q 14 893 79 933 l 31 775 q 151 840 94 818 q 267 861 208 861 q 374 829 336 861 q 413 733 413 797 q 347 610 413 667 q 176 518 282 553 l 188 260 l 283 221 l 300 450 q 474 580 408 501 q 540 736 540 658 q 472 909 540 844 q 271 974 404 974 m 229 167 q 170 142 194 167 q 146 83 146 118 q 170 24 146 49 q 229 0 194 0 q 289 24 264 0 q 314 83 314 49 q 289 142 314 118 q 229 167 264 167 z "},"¿":{"ha":582,"x_min":42,"x_max":568,"o":"m 353 724 q 413 749 388 724 q 438 808 438 774 q 413 868 438 843 q 353 893 388 893 q 293 868 318 893 q 268 808 268 843 q 293 749 268 774 q 353 724 318 724 m 311 -82 q 446 -62 386 -82 q 568 -1 506 -42 l 551 118 q 431 52 488 74 q 315 31 374 31 q 208 63 246 31 q 169 157 169 94 q 234 282 169 225 q 407 375 299 339 l 394 632 l 299 672 l 282 443 q 108 313 175 392 q 42 156 42 233 q 110 -17 42 47 q 311 -82 178 -82 z "},"*":{"ha":504,"x_min":14,"x_max":490,"o":"m 197 921 l 43 954 l 14 864 l 169 833 l 61 679 l 140 619 l 253 769 l 364 619 l 443 679 l 335 833 l 490 864 l 461 954 l 306 921 l 304 1069 l 200 1069 l 197 921 z "},"\"":{"ha":486,"x_min":28,"x_max":444,"o":"m 129 1003 q 70 976 96 1003 q 44 918 44 949 q 66 862 44 888 q 113 835 88 836 q 88 772 108 797 q 28 715 67 746 l 60 653 q 170 760 125 688 q 215 903 215 832 q 190 974 215 946 q 129 1003 164 1003 m 360 1003 q 301 976 326 1003 q 275 918 275 949 q 297 862 275 888 q 344 835 318 836 q 317 771 338 797 q 257 715 296 744 l 290 653 q 400 760 356 688 q 444 903 444 832 q 419 975 444 947 q 360 1003 394 1003 z "},"'":{"ha":257,"x_min":28,"x_max":215,"o":"m 129 1003 q 70 976 96 1003 q 44 918 44 949 q 66 862 44 888 q 113 835 88 836 q 88 772 108 797 q 28 715 67 746 l 60 653 q 170 760 125 688 q 215 903 215 832 q 190 974 215 946 q 129 1003 164 1003 z "},"‘":{"ha":257,"x_min":42,"x_max":229,"o":"m 126 653 q 185 678 160 653 q 210 738 210 704 q 189 794 210 768 q 142 821 168 819 q 167 883 146 858 q 229 939 188 907 l 196 1003 q 86 896 131 968 q 42 753 42 824 q 66 681 42 710 q 126 653 90 653 z "},"’":{"ha":257,"x_min":28,"x_max":215,"o":"m 129 1003 q 70 976 96 1003 q 44 918 44 949 q 66 862 44 888 q 113 835 88 836 q 88 772 108 797 q 28 715 67 746 l 60 653 q 170 760 125 688 q 215 903 215 832 q 190 974 215 946 q 129 1003 164 1003 z "},"‚":{"ha":257,"x_min":28,"x_max":215,"o":"m 129 167 q 70 142 96 167 q 44 83 44 117 q 66 27 44 53 q 113 0 88 1 q 88 -63 108 -37 q 28 -119 67 -89 l 60 -182 q 170 -75 125 -147 q 215 67 215 -3 q 190 139 215 111 q 129 167 165 167 z "},"“":{"ha":488,"x_min":42,"x_max":460,"o":"m 126 653 q 185 678 160 653 q 210 738 210 704 q 189 794 210 768 q 142 821 168 819 q 167 883 146 858 q 229 939 188 907 l 196 1003 q 86 896 131 968 q 42 753 42 824 q 66 681 42 710 q 126 653 90 653 m 356 653 q 416 679 390 653 q 442 738 442 706 q 420 793 442 767 q 374 821 399 819 q 399 883 378 858 q 460 939 419 908 l 426 1003 q 317 896 361 968 q 272 753 272 824 q 297 681 272 710 q 356 653 321 653 z "},"”":{"ha":486,"x_min":28,"x_max":444,"o":"m 129 1003 q 70 976 96 1003 q 44 918 44 949 q 66 862 44 888 q 113 835 88 836 q 88 772 108 797 q 28 715 67 746 l 60 653 q 170 760 125 688 q 215 903 215 832 q 190 974 215 946 q 129 1003 164 1003 m 360 1003 q 301 976 326 1003 q 275 918 275 949 q 297 862 275 888 q 344 835 318 836 q 317 771 338 797 q 257 715 296 744 l 290 653 q 400 760 356 688 q 444 903 444 832 q 419 975 444 947 q 360 1003 394 1003 z "},"„":{"ha":486,"x_min":28,"x_max":444,"o":"m 129 167 q 70 142 96 167 q 44 83 44 117 q 66 27 44 53 q 113 0 88 1 q 88 -62 108 -37 q 28 -118 68 -87 l 60 -182 q 170 -75 125 -147 q 215 67 215 -3 q 190 139 215 111 q 129 167 165 167 m 360 167 q 301 142 326 167 q 275 83 275 117 q 297 27 275 53 q 344 0 318 1 q 317 -64 338 -37 q 257 -119 296 -90 l 290 -182 q 400 -76 356 -147 q 444 67 444 -4 q 420 139 444 111 q 360 167 396 167 z "},"·":{"ha":250,"x_min":42,"x_max":208,"o":"m 126 279 q 185 304 161 279 q 208 364 208 329 q 185 423 208 399 q 126 447 161 447 q 66 423 90 447 q 42 364 42 399 q 66 304 42 329 q 126 279 90 279 z "},"(":{"ha":388,"x_min":69,"x_max":346,"o":"m 346 -14 q 272 112 307 29 q 217 286 238 194 q 196 446 196 378 q 242 690 196 549 q 346 904 288 831 l 240 942 q 113 699 156 829 q 69 444 69 569 q 113 185 69 317 q 240 -53 157 54 l 346 -14 z "},")":{"ha":388,"x_min":42,"x_max":318,"o":"m 42 903 q 115 777 81 860 q 169 603 149 694 q 190 444 190 513 q 145 199 190 342 q 42 -15 100 57 l 147 -53 q 274 192 231 63 q 318 444 318 322 q 274 702 318 571 q 147 942 229 833 l 42 903 z "},"[":{"ha":442,"x_min":139,"x_max":428,"o":"m 408 -21 l 268 -21 l 268 864 l 408 864 l 428 967 l 139 967 l 139 -122 l 428 -122 l 408 -21 z "},"]":{"ha":440,"x_min":14,"x_max":301,"o":"m 32 864 l 171 864 l 171 -21 l 32 -21 l 14 -122 l 301 -122 l 301 967 l 14 967 l 32 864 z "},"{":{"ha":388,"x_min":42,"x_max":374,"o":"m 225 431 q 277 485 261 450 q 293 574 293 519 q 286 620 293 597 q 267 676 279 643 q 251 719 258 697 q 244 760 244 742 q 263 797 244 781 q 319 814 282 814 l 361 814 l 374 915 l 336 915 q 185 878 238 915 q 133 768 133 842 q 153 668 133 726 q 165 621 160 646 q 171 568 171 596 q 150 499 171 526 q 96 471 129 471 l 42 471 l 42 383 l 96 383 q 153 358 126 383 q 179 297 179 332 q 173 255 179 278 q 162 219 167 232 q 156 201 157 206 q 137 146 143 167 q 131 103 131 125 q 181 -18 131 22 q 336 -58 231 -58 l 374 -58 l 361 42 l 319 42 q 264 58 283 42 q 244 97 244 75 q 251 138 244 115 q 262 172 257 160 q 268 189 267 185 q 287 240 281 218 q 293 283 293 263 q 225 431 293 386 z "},"}":{"ha":386,"x_min":13,"x_max":344,"o":"m 161 431 q 93 283 93 386 q 99 240 93 263 q 118 189 106 218 q 127 165 119 185 q 138 128 135 144 q 142 97 142 111 q 122 58 142 75 q 67 42 103 42 l 25 42 l 13 -58 l 50 -58 q 206 -18 156 -58 q 256 103 256 22 q 249 146 256 125 q 231 201 243 167 q 222 226 229 206 q 210 265 214 247 q 207 297 207 282 q 233 358 207 332 q 290 383 260 383 l 344 383 l 344 471 l 290 471 q 236 499 257 471 q 215 568 215 526 q 220 617 215 596 q 235 668 225 639 q 247 716 242 690 q 253 768 253 742 q 201 878 253 842 q 50 915 149 915 l 13 915 l 25 814 l 67 814 q 123 797 104 814 q 142 760 142 781 q 135 719 142 742 q 119 676 128 697 q 100 620 107 643 q 93 574 93 597 q 109 485 93 519 q 161 431 125 450 z "},"/":{"ha":582,"x_min":14,"x_max":568,"o":"m 146 -6 l 568 981 l 435 986 l 14 0 l 146 -6 z "},"\\":{"ha":582,"x_min":14,"x_max":568,"o":"m 14 981 l 435 -6 l 568 0 l 147 986 l 14 981 z "},"|":{"ha":382,"x_min":125,"x_max":257,"o":"m 257 -10 l 257 978 l 125 988 l 125 0 l 257 -10 z "},"¦":{"ha":382,"x_min":125,"x_max":257,"o":"m 257 564 l 257 978 l 125 988 l 125 574 l 257 564 m 257 -10 l 257 400 l 125 408 l 125 0 l 257 -10 z "},"«":{"ha":531,"x_min":42,"x_max":503,"o":"m 281 204 l 143 340 l 281 476 l 250 565 l 42 372 l 42 308 l 250 115 l 281 204 m 503 204 l 365 340 l 503 476 l 474 565 l 264 372 l 264 308 l 474 115 l 503 204 z "},"»":{"ha":532,"x_min":28,"x_max":490,"o":"m 28 476 l 165 340 l 28 204 l 60 115 l 267 308 l 267 372 l 60 565 l 28 476 m 251 476 l 389 340 l 251 204 l 282 115 l 490 308 l 490 372 l 282 565 l 251 476 z "},"π":{"ha":860,"x_min":14,"x_max":846,"o":"m 576 568 l 576 0 l 710 0 l 710 568 l 846 568 l 846 674 l 14 674 l 14 568 l 149 568 l 149 0 l 282 0 l 282 568 l 576 568 z "},"†":{"ha":569,"x_min":42,"x_max":528,"o":"m 42 868 l 68 750 l 215 750 l 229 0 l 343 -6 l 358 750 l 528 750 l 501 868 l 358 868 l 358 1083 l 215 1088 l 215 868 l 42 868 z "},"‡":{"ha":579,"x_min":42,"x_max":538,"o":"m 538 236 l 513 354 l 361 354 l 364 719 l 538 719 l 513 839 l 361 839 l 368 1083 l 215 1088 l 222 839 l 42 839 l 68 719 l 219 719 l 215 354 l 42 354 l 68 236 l 219 236 l 213 -8 l 365 1 l 358 236 l 538 236 z "},"•":{"ha":347,"x_min":42,"x_max":306,"o":"m 174 325 q 267 363 229 325 q 306 456 306 401 q 267 549 306 510 q 174 588 229 588 q 80 549 118 588 q 42 456 42 510 q 80 363 42 401 q 174 325 118 325 z "},"…":{"ha":679,"x_min":42,"x_max":638,"o":"m 119 0 q 175 22 153 0 q 197 76 197 44 q 175 133 197 110 q 119 156 153 156 q 65 133 88 156 q 42 76 42 110 q 65 22 42 44 q 119 0 88 0 m 343 0 q 397 22 374 0 q 419 76 419 44 q 397 133 419 110 q 343 156 374 156 q 287 133 310 156 q 264 76 264 110 q 287 22 264 44 q 343 0 310 0 m 560 0 q 615 22 592 0 q 638 76 638 44 q 615 133 638 110 q 560 156 592 156 q 505 133 528 156 q 482 76 482 110 q 505 22 482 44 q 560 0 528 0 z "},"‹":{"ha":308,"x_min":42,"x_max":281,"o":"m 281 208 l 149 340 l 281 471 l 250 567 l 42 374 l 42 307 l 250 115 l 281 208 z "},"›":{"ha":308,"x_min":28,"x_max":267,"o":"m 28 471 l 160 340 l 28 208 l 58 115 l 267 307 l 267 374 l 58 567 l 28 471 z "},"-":{"ha":450,"x_min":42,"x_max":408,"o":"m 54 326 l 408 326 l 396 432 l 42 432 l 54 326 z "},"_":{"ha":611,"x_min":42,"x_max":569,"o":"m 54 0 l 569 0 l 557 104 l 42 104 l 54 0 z "},"–":{"ha":611,"x_min":42,"x_max":569,"o":"m 54 326 l 569 326 l 557 432 l 42 432 l 54 326 z "},"—":{"ha":751,"x_min":42,"x_max":710,"o":"m 54 326 l 710 326 l 699 432 l 42 432 l 54 326 z "},"#":{"ha":750,"x_min":42,"x_max":708,"o":"m 329 540 l 369 707 l 257 710 l 217 540 l 42 540 l 54 439 l 192 439 l 153 269 l 42 269 l 54 168 l 129 168 l 90 -3 l 201 -10 l 243 168 l 421 168 l 382 -3 l 493 -10 l 533 168 l 708 168 l 697 269 l 557 269 l 597 439 l 708 439 l 697 540 l 621 540 l 660 707 l 546 710 l 507 540 l 329 540 m 267 269 l 307 439 l 483 439 l 443 269 l 267 269 z "},"%":{"ha":1229,"x_min":42,"x_max":1188,"o":"m 468 -6 l 889 981 l 757 986 l 336 0 l 468 -6 m 42 739 q 72 613 42 667 q 152 532 101 560 q 265 504 203 504 q 376 533 325 504 q 458 616 428 563 q 489 739 489 669 q 425 912 489 849 q 265 975 361 975 q 154 946 206 975 q 72 863 103 917 q 42 739 42 808 m 161 740 q 192 840 161 806 q 265 874 222 874 q 340 840 310 874 q 369 739 369 806 q 339 638 369 672 q 265 604 308 604 q 190 638 219 604 q 161 740 161 672 m 743 235 q 807 63 743 126 q 967 0 871 0 q 1076 29 1025 0 q 1157 112 1126 58 q 1188 235 1188 165 q 1125 407 1188 344 q 967 469 1063 469 q 855 440 906 469 q 774 358 804 411 q 743 235 743 304 m 861 236 q 892 335 861 301 q 967 369 924 369 q 1040 334 1010 369 q 1069 235 1069 299 q 1039 133 1069 168 q 967 99 1008 99 q 891 133 921 99 q 861 236 861 168 z "},"+":{"ha":746,"x_min":42,"x_max":704,"o":"m 438 738 l 314 742 l 314 432 l 42 432 l 53 328 l 314 328 l 314 11 l 438 6 l 438 328 l 704 328 l 690 432 l 438 432 l 438 738 z "},"÷":{"ha":699,"x_min":42,"x_max":657,"o":"m 349 500 q 414 527 388 500 q 440 592 440 554 q 414 658 440 631 q 349 685 388 685 q 283 658 310 685 q 256 592 256 631 q 283 527 256 554 q 349 500 310 500 m 54 326 l 657 326 l 644 432 l 42 432 l 54 326 m 350 56 q 416 83 389 56 q 443 149 443 111 q 416 215 443 188 q 350 242 389 242 q 284 215 311 242 q 257 149 257 188 q 284 83 257 111 q 350 56 311 56 z "},"×":{"ha":733,"x_min":42,"x_max":692,"o":"m 533 42 l 365 257 l 178 42 l 42 42 l 303 351 l 64 658 l 200 658 l 368 443 l 556 658 l 692 658 l 431 349 l 669 42 l 533 42 z "},"±":{"ha":667,"x_min":42,"x_max":625,"o":"m 393 738 l 276 742 l 276 511 l 42 511 l 54 417 l 276 417 l 276 179 l 393 172 l 393 417 l 625 417 l 614 511 l 393 511 l 393 738 m 54 0 l 625 0 l 617 96 l 43 96 l 54 0 z "},"<":{"ha":465,"x_min":42,"x_max":438,"o":"m 438 547 l 406 653 l 42 376 l 42 303 l 406 26 l 438 132 l 171 340 l 438 547 z "},"=":{"ha":703,"x_min":42,"x_max":661,"o":"m 54 439 l 661 439 l 650 540 l 42 540 l 54 439 m 54 168 l 661 168 l 650 269 l 42 269 l 54 168 z "},">":{"ha":465,"x_min":28,"x_max":424,"o":"m 28 547 l 294 340 l 28 132 l 60 26 l 424 303 l 424 376 l 60 653 l 28 547 z "},"°":{"ha":342,"x_min":14,"x_max":328,"o":"m 171 990 q 60 946 107 990 q 14 839 14 901 q 60 733 14 776 q 171 690 107 690 q 281 733 235 690 q 328 839 328 776 q 281 946 328 901 q 171 990 235 990 m 171 768 q 122 789 142 768 q 101 839 101 810 q 122 887 101 867 q 171 907 142 907 q 220 887 200 907 q 240 838 240 867 q 220 789 240 810 q 171 768 200 768 z "},"¹":{"ha":386,"x_min":14,"x_max":289,"o":"m 210 1061 l 14 968 l 61 885 l 168 939 l 168 467 l 289 467 l 289 1061 l 210 1061 z "},"²":{"ha":503,"x_min":22,"x_max":475,"o":"m 240 1071 q 131 1055 178 1071 q 56 1024 83 1039 q 22 1007 29 1010 l 68 918 q 152 957 113 942 q 235 972 192 972 q 308 948 282 972 q 335 890 335 924 q 313 810 335 849 q 238 726 290 772 l 35 554 l 35 467 l 475 467 l 461 560 l 189 560 l 308 660 q 422 781 388 728 q 457 890 457 833 q 434 976 457 935 q 363 1044 411 1018 q 240 1071 314 1071 z "},"³":{"ha":503,"x_min":0,"x_max":454,"o":"m 228 1071 q 118 1053 168 1071 q 17 1003 68 1035 l 64 919 q 134 958 99 943 q 215 972 169 972 q 294 950 267 972 q 321 894 321 928 q 288 821 321 849 q 183 793 254 793 l 132 793 l 146 700 l 176 700 q 296 671 258 700 q 333 583 333 642 q 297 510 333 538 q 206 483 261 483 q 128 494 161 483 q 51 531 96 506 l 0 447 q 213 386 117 386 q 340 413 285 386 q 424 484 394 439 q 454 585 454 529 q 421 694 454 649 q 340 749 388 739 q 413 804 382 763 q 443 896 443 846 q 388 1021 443 971 q 228 1071 332 1071 z "},"¼":{"ha":1139,"x_min":14,"x_max":1111,"o":"m 210 1061 l 14 968 l 61 885 l 168 939 l 168 467 l 289 467 l 289 1061 l 210 1061 m 215 -186 l 933 972 l 793 972 l 76 -186 l 215 -186 m 1111 -11 l 994 -11 l 994 446 l 913 446 l 565 -11 l 576 -108 l 876 -108 l 876 -228 l 994 -228 l 994 -108 l 1101 -108 l 1111 -11 m 689 -11 l 876 238 l 876 -11 l 689 -11 z "},"½":{"ha":1172,"x_min":14,"x_max":1144,"o":"m 210 1061 l 14 968 l 61 885 l 168 939 l 168 467 l 289 467 l 289 1061 l 210 1061 m 201 -186 l 919 972 l 779 972 l 63 -186 l 201 -186 m 910 451 q 800 435 847 451 q 726 405 753 419 q 692 388 699 390 l 738 299 q 822 338 782 322 q 904 353 861 353 q 978 328 951 353 q 1004 271 1004 304 q 982 191 1004 229 q 907 107 960 153 l 704 -65 l 704 -153 l 1144 -153 l 1131 -60 l 858 -60 l 978 40 q 1092 161 1057 108 q 1126 271 1126 214 q 1103 357 1126 315 q 1032 425 1081 399 q 910 451 983 451 z "},"¾":{"ha":1153,"x_min":0,"x_max":1125,"o":"m 228 1071 q 118 1053 168 1071 q 17 1003 68 1035 l 64 919 q 134 958 99 943 q 215 972 169 972 q 294 949 268 972 q 321 894 321 925 q 280 818 321 843 q 183 793 239 793 l 132 793 l 146 700 l 176 700 q 296 671 258 700 q 333 583 333 642 q 297 510 333 538 q 206 483 261 483 q 128 494 161 483 q 51 531 96 506 l 0 447 q 213 386 117 386 q 340 413 285 386 q 424 484 394 439 q 454 585 454 529 q 421 694 454 649 q 340 749 388 739 q 413 804 382 763 q 443 896 443 846 q 388 1021 443 971 q 228 1071 332 1071 m 290 -186 l 1008 972 l 868 972 l 151 -186 l 290 -186 m 579 -11 l 590 -108 l 890 -108 l 890 -228 l 1008 -228 l 1008 -108 l 1115 -108 l 1125 -11 l 1008 -11 l 1008 446 l 926 446 l 579 -11 m 890 -11 l 703 -11 l 890 238 l 890 -11 z "},"℮":{"ha":700,"x_min":42,"x_max":658,"o":"m 658 343 q 584 594 658 496 q 364 692 510 692 q 192 647 265 692 q 81 522 119 603 q 42 338 42 442 q 136 79 42 175 q 407 -17 231 -17 q 651 57 529 -17 l 610 154 q 499 108 539 121 q 407 94 460 94 q 244 151 299 94 q 181 307 189 208 l 658 307 l 658 343 m 183 397 q 238 530 193 482 q 360 578 283 578 q 529 397 503 578 l 183 397 z "},"∂":{"ha":757,"x_min":42,"x_max":715,"o":"m 161 1042 q 571 765 426 947 q 715 349 715 583 q 676 159 715 242 q 561 29 638 76 q 375 -18 485 -18 q 198 26 274 -18 q 82 151 122 71 q 42 338 42 232 q 83 522 42 442 q 201 647 125 603 q 381 692 278 692 q 493 667 432 692 q 122 944 388 838 l 161 1042 m 376 96 q 523 164 468 96 q 579 335 578 232 q 561 506 579 428 q 484 559 526 540 q 381 578 442 578 q 234 510 289 578 q 178 339 179 442 q 231 163 178 231 q 376 96 283 96 z "},"∏":{"ha":885,"x_min":125,"x_max":760,"o":"m 254 843 l 629 843 l 629 0 l 760 0 l 760 944 l 125 944 l 125 0 l 254 0 l 254 843 z "},"∑":{"ha":647,"x_min":42,"x_max":619,"o":"m 44 842 l 301 478 l 42 104 l 42 0 l 619 0 l 601 104 l 183 104 l 421 454 l 421 504 l 186 842 l 572 842 l 554 944 l 44 944 l 44 842 z "},"−":{"ha":664,"x_min":42,"x_max":622,"o":"m 53 326 l 622 326 l 607 432 l 42 432 l 53 326 z "},"√":{"ha":808,"x_min":14,"x_max":794,"o":"m 149 446 l 14 440 l 246 0 l 388 -6 l 794 981 l 664 986 l 314 138 l 149 446 z "},"∞":{"ha":1139,"x_min":42,"x_max":1097,"o":"m 331 643 q 183 603 249 643 q 79 494 117 563 q 42 342 42 425 q 78 194 42 258 q 182 93 115 129 q 333 57 249 57 q 557 192 465 57 q 671 93 607 128 q 808 58 735 58 q 958 98 892 58 q 1060 206 1024 138 q 1097 358 1097 275 q 1060 506 1097 442 q 957 607 1024 571 q 806 643 890 643 q 678 606 735 643 q 581 510 621 569 q 467 608 532 572 q 331 643 403 643 m 622 335 q 693 474 646 415 q 806 533 740 533 q 929 483 882 533 q 976 361 976 433 q 930 226 976 282 q 807 169 883 169 q 694 204 746 169 q 611 296 643 239 l 622 335 m 517 367 q 447 226 493 285 q 333 167 401 167 q 210 217 257 167 q 163 339 163 267 q 210 475 163 419 q 335 531 257 531 q 447 495 396 529 q 528 404 497 461 l 517 367 z "},"∫":{"ha":506,"x_min":0,"x_max":506,"o":"m 318 856 q 407 972 318 972 q 469 957 429 972 l 506 1058 q 456 1079 488 1071 q 394 1088 424 1088 q 240 1029 294 1088 q 185 867 185 971 l 185 -15 q 165 -101 185 -71 q 96 -132 144 -132 q 33 -118 69 -132 l 0 -219 q 49 -240 18 -232 q 110 -249 81 -249 q 263 -190 208 -249 q 318 -26 318 -131 l 318 856 z "},"≈":{"ha":714,"x_min":42,"x_max":672,"o":"m 571 572 q 547 528 568 542 q 504 513 526 514 q 361 543 444 513 q 224 572 275 572 q 96 542 150 572 q 42 428 42 513 l 142 406 q 166 450 143 436 q 213 464 189 464 q 361 435 279 464 q 492 404 439 404 q 618 435 564 404 q 672 549 672 467 l 571 572 m 571 313 q 547 268 568 282 q 504 253 526 254 q 361 283 444 253 q 224 314 278 314 q 96 283 150 314 q 42 168 42 253 l 142 147 q 167 190 143 176 q 213 204 190 204 q 361 175 279 204 q 492 144 439 144 q 618 176 564 144 q 672 289 672 207 l 571 313 z "},"≠":{"ha":704,"x_min":42,"x_max":663,"o":"m 42 540 l 56 439 l 328 439 l 251 269 l 42 269 l 56 168 l 207 168 l 126 -14 l 243 -21 l 329 168 l 663 168 l 650 269 l 374 269 l 449 439 l 663 439 l 650 540 l 493 540 l 572 718 l 453 722 l 372 540 l 42 540 z "},"≤":{"ha":479,"x_min":42,"x_max":451,"o":"m 451 576 l 421 683 l 42 460 l 42 371 l 421 150 l 451 257 l 183 417 l 451 576 m 53 0 l 449 0 l 440 97 l 43 97 l 53 0 z "},"≥":{"ha":481,"x_min":28,"x_max":439,"o":"m 28 576 l 297 417 l 28 257 l 60 150 l 439 371 l 439 460 l 60 683 l 28 576 m 39 0 l 435 0 l 425 97 l 29 97 l 39 0 z "},"‰":{"ha":1747,"x_min":42,"x_max":1706,"o":"m 469 -6 l 890 981 l 758 986 l 338 0 l 469 -6 m 265 975 q 154 946 206 975 q 72 863 103 917 q 42 739 42 808 q 72 613 42 667 q 152 532 101 560 q 265 504 203 504 q 376 533 325 504 q 458 616 428 563 q 489 739 489 669 q 425 912 489 849 q 265 975 361 975 m 265 874 q 340 840 310 874 q 369 739 369 806 q 339 638 369 672 q 265 604 308 604 q 190 638 219 604 q 161 740 161 672 q 192 840 161 806 q 265 874 222 874 m 967 469 q 855 440 906 469 q 774 358 804 411 q 743 235 743 304 q 807 63 743 126 q 967 0 871 0 q 1076 29 1025 0 q 1157 112 1126 58 q 1188 235 1188 165 q 1125 407 1188 344 q 967 469 1063 469 m 1482 469 q 1370 440 1421 469 q 1289 358 1319 411 q 1258 235 1258 304 q 1322 63 1258 125 q 1483 0 1385 0 q 1593 29 1542 0 q 1675 112 1644 58 q 1706 235 1706 165 q 1676 360 1706 307 q 1595 442 1646 414 q 1482 469 1544 469 m 967 369 q 1040 334 1010 369 q 1069 235 1069 299 q 1039 133 1069 168 q 967 99 1008 99 q 891 133 921 99 q 861 236 861 168 q 892 335 861 301 q 967 369 924 369 m 1482 369 q 1556 334 1526 369 q 1586 235 1586 299 q 1556 133 1586 168 q 1483 99 1525 99 q 1407 134 1438 99 q 1376 236 1376 169 q 1408 335 1376 301 q 1482 369 1440 369 z "},"⁄":{"ha":582,"x_min":14,"x_max":568,"o":"m 146 -6 l 568 981 l 435 986 l 14 0 l 146 -6 z "},"◊":{"ha":764,"x_min":42,"x_max":722,"o":"m 722 435 l 408 832 l 356 832 l 42 435 l 42 397 l 356 0 l 408 0 l 722 397 l 722 435 m 381 147 l 172 415 l 381 686 l 592 415 l 381 147 z "},"©":{"ha":1121,"x_min":42,"x_max":1079,"o":"m 1079 467 q 1015 727 1079 610 q 833 913 951 844 q 560 981 715 981 q 287 913 404 981 q 106 727 169 844 q 42 467 42 610 q 106 207 42 324 q 287 22 169 90 q 560 -46 404 -46 q 833 22 715 -46 q 1015 207 951 90 q 1079 467 1079 324 m 140 468 q 192 688 140 590 q 338 840 243 785 q 560 896 433 896 q 783 840 688 896 q 929 688 878 785 q 981 468 981 590 q 929 249 981 346 q 783 96 878 151 q 560 40 688 40 q 338 96 433 40 q 192 249 243 151 q 140 468 140 346 m 582 144 q 688 161 628 144 q 788 206 747 178 l 749 303 q 667 267 700 278 q 583 257 635 257 q 410 472 410 257 q 456 624 410 567 q 586 681 501 681 q 670 671 639 681 q 753 636 701 661 l 790 735 q 691 778 750 763 q 586 794 632 794 q 421 754 492 794 q 312 640 350 714 q 274 471 274 567 q 355 233 274 322 q 582 144 436 144 z "},"®":{"ha":999,"x_min":42,"x_max":957,"o":"m 957 676 q 901 908 957 804 q 741 1071 844 1011 q 500 1131 638 1131 q 258 1071 363 1131 q 98 908 154 1011 q 42 676 42 804 q 98 447 42 550 q 258 285 154 344 q 500 225 363 225 q 741 285 638 225 q 901 447 844 344 q 957 676 957 550 m 133 678 q 178 870 133 786 q 305 1001 222 954 q 500 1049 388 1049 q 694 1001 611 1049 q 821 869 776 954 q 865 678 865 785 q 821 488 865 572 q 694 356 776 404 q 500 307 611 307 q 305 356 388 307 q 178 488 222 404 q 133 678 133 572 m 606 653 q 670 706 646 671 q 694 790 694 740 q 641 906 694 868 q 499 944 588 944 l 326 944 l 326 422 l 425 422 l 425 631 l 513 632 l 618 422 l 729 422 l 606 653 m 472 864 q 565 850 536 864 q 593 786 593 836 q 561 726 593 742 q 469 710 529 710 l 425 710 l 425 864 l 472 864 z "},"™":{"ha":1031,"x_min":14,"x_max":975,"o":"m 14 864 l 175 864 l 175 424 l 275 424 l 275 864 l 444 864 l 433 944 l 14 944 l 14 864 m 875 424 l 975 424 l 975 944 l 929 944 l 747 694 l 553 944 l 507 944 l 507 424 l 608 424 l 608 728 l 735 561 l 763 567 l 875 721 l 875 424 z "},"&":{"ha":935,"x_min":56,"x_max":893,"o":"m 665 904 q 550 950 606 933 q 431 967 494 967 q 285 932 347 967 q 191 839 224 897 q 158 711 158 781 q 200 574 158 635 q 96 453 135 526 q 56 296 57 379 q 103 126 56 196 q 233 20 151 56 q 417 -17 314 -15 q 708 90 601 -17 l 818 -11 l 893 85 l 781 186 q 847 458 839 300 l 733 503 q 681 275 725 369 l 424 514 q 322 622 351 579 q 293 719 293 665 q 331 813 293 774 q 432 851 369 851 q 519 840 483 851 q 582 816 554 829 q 619 799 610 803 l 665 904 m 614 176 q 417 100 538 100 q 258 151 324 100 q 193 299 193 201 q 218 406 194 357 q 282 486 242 456 q 342 425 306 460 l 614 176 z "},"@":{"ha":1061,"x_min":42,"x_max":1019,"o":"m 615 585 q 461 549 533 585 q 344 449 389 514 q 300 301 300 385 q 360 145 300 203 q 536 88 419 88 q 663 128 599 88 q 774 86 704 86 q 952 173 885 86 q 1019 424 1019 260 q 964 633 1019 540 q 809 778 908 725 q 585 831 710 831 q 299 760 422 831 q 108 568 175 689 q 42 304 42 447 q 106 72 42 174 q 274 -85 169 -29 q 493 -142 378 -142 q 771 -83 658 -142 l 738 17 q 628 -20 689 -8 q 508 -32 567 -32 q 335 9 414 -32 q 210 126 257 50 q 164 304 164 203 q 222 525 164 429 q 376 673 281 621 q 582 725 472 725 q 751 685 678 725 q 866 576 825 646 q 907 415 907 506 q 872 252 907 314 q 783 190 836 190 q 742 206 761 190 q 728 253 724 222 l 760 536 l 721 585 l 615 585 m 535 190 q 449 223 476 190 q 421 301 421 256 q 480 440 421 390 q 624 489 539 489 l 646 489 l 617 260 q 590 208 611 226 q 535 190 568 190 z "},"^":{"ha":600,"x_min":14,"x_max":586,"o":"m 586 199 l 349 542 l 253 542 l 14 199 l 149 199 l 300 418 l 451 199 l 586 199 z "},"~":{"ha":599,"x_min":42,"x_max":557,"o":"m 154 261 q 204 315 160 315 q 252 308 232 315 q 297 289 272 301 q 349 268 326 275 q 404 261 372 261 q 515 304 472 261 q 557 442 557 347 l 443 442 q 426 398 442 411 q 392 385 410 385 q 350 391 368 385 q 304 410 332 397 q 250 433 274 425 q 194 440 226 440 q 84 397 126 440 q 42 261 42 354 l 154 261 z "},"§":{"ha":810,"x_min":56,"x_max":768,"o":"m 768 353 q 742 244 768 293 q 668 163 717 196 q 678 89 678 132 q 638 -44 678 14 q 521 -133 597 -101 q 338 -165 444 -165 q 188 -143 276 -165 q 72 -96 100 -121 l 103 10 q 213 -32 147 -14 q 336 -50 278 -50 q 489 -13 435 -50 q 543 86 543 24 q 516 165 543 131 q 439 227 489 199 q 300 294 389 256 q 160 370 213 333 q 82 456 108 407 q 56 575 56 506 q 81 680 56 632 q 156 763 107 728 q 146 839 146 793 q 183 964 146 908 q 291 1051 221 1019 q 456 1083 361 1083 q 587 1065 521 1083 q 706 1021 653 1047 l 661 915 q 569 952 613 939 q 465 965 525 965 q 331 933 382 965 q 279 842 279 901 q 306 762 279 796 q 381 700 332 728 q 524 629 429 672 q 709 511 650 572 q 768 353 768 450 m 433 365 q 600 267 540 318 q 633 350 633 300 q 606 428 633 394 q 529 491 579 463 q 390 558 479 519 q 224 657 272 611 q 189 578 189 626 q 215 498 189 532 q 290 436 242 464 q 433 365 339 408 z "},"ª":{"ha":458,"x_min":42,"x_max":417,"o":"m 93 849 q 159 870 129 863 q 222 878 189 878 q 287 853 265 878 q 308 788 308 828 l 211 788 q 89 750 136 788 q 42 647 42 713 q 85 544 42 583 q 203 504 129 504 q 270 520 236 504 q 329 558 304 536 l 353 515 l 417 515 l 417 807 q 391 890 417 851 q 321 952 365 929 q 221 975 276 975 q 141 963 189 975 q 69 935 93 951 l 93 849 m 147 651 q 169 691 147 676 q 228 706 190 706 l 311 706 l 311 650 q 206 599 263 599 q 163 614 178 599 q 147 651 147 629 z "},"¬":{"ha":714,"x_min":14,"x_max":672,"o":"m 25 458 l 556 458 l 556 163 l 672 156 l 672 494 l 661 564 l 14 564 l 25 458 z "},"¶":{"ha":1196,"x_min":42,"x_max":1154,"o":"m 886 839 l 886 0 l 1021 0 l 1021 839 l 1154 839 l 1154 944 l 397 944 q 139 872 236 944 q 42 650 42 800 q 92 481 42 549 q 226 380 142 413 q 413 347 310 347 l 456 347 l 456 0 l 589 0 l 589 839 l 886 839 z "},"º":{"ha":533,"x_min":42,"x_max":492,"o":"m 265 975 q 103 910 165 975 q 42 739 42 846 q 101 567 42 631 q 263 504 161 504 q 428 568 364 504 q 492 738 492 632 q 431 911 492 847 q 265 975 369 975 m 267 878 q 344 842 315 878 q 372 738 372 807 q 342 635 372 669 q 264 600 311 600 q 188 635 217 600 q 160 739 160 671 q 191 843 160 808 q 267 878 222 878 z "},"Ģ":{"ha":872,"x_min":56,"x_max":803,"o":"m 679 118 q 525 94 603 94 q 356 140 431 94 q 238 271 281 186 q 194 468 194 356 q 243 674 194 588 q 372 806 292 761 q 546 850 451 850 q 645 842 607 850 q 746 811 683 833 l 788 907 q 669 949 742 935 q 543 964 596 964 q 294 901 406 964 q 119 724 183 838 q 56 467 56 611 q 114 219 56 329 q 279 44 172 108 q 528 -19 386 -19 q 676 -1 601 -19 q 801 47 751 18 l 803 496 l 485 496 l 474 394 l 679 394 l 679 118 m 529 -29 q 470 -55 496 -29 q 444 -114 444 -81 q 466 -170 444 -144 q 513 -197 488 -196 q 487 -251 508 -228 q 438 -290 465 -275 l 469 -354 q 572 -261 531 -324 q 614 -129 614 -199 q 590 -57 614 -85 q 529 -29 565 -29 z "},"Ķ":{"ha":868,"x_min":125,"x_max":854,"o":"m 258 326 l 258 0 l 125 0 l 125 944 l 258 944 l 258 507 l 689 965 l 783 888 l 449 531 l 854 0 l 692 0 l 360 435 l 258 326 m 471 -29 q 412 -55 438 -29 q 386 -114 386 -81 q 408 -170 386 -144 q 454 -197 429 -196 q 428 -251 450 -228 q 379 -290 407 -275 l 411 -354 q 514 -261 472 -324 q 556 -129 556 -199 q 531 -57 556 -85 q 471 -29 507 -29 z "},"Ļ":{"ha":715,"x_min":125,"x_max":701,"o":"m 258 944 l 125 944 l 125 0 l 701 0 l 685 104 l 258 104 l 258 944 m 475 -29 q 416 -55 442 -29 q 390 -114 390 -81 q 412 -170 390 -144 q 458 -197 433 -196 q 433 -251 454 -228 q 383 -290 411 -275 l 415 -354 q 518 -261 476 -324 q 560 -129 560 -199 q 535 -57 560 -85 q 475 -29 511 -29 z "},"Ņ":{"ha":993,"x_min":125,"x_max":868,"o":"m 749 0 l 868 0 l 868 944 l 733 944 l 733 246 l 243 944 l 125 944 l 125 0 l 258 0 l 258 704 l 749 0 m 503 -29 q 444 -55 469 -29 q 418 -114 418 -81 q 440 -170 418 -144 q 486 -197 461 -196 q 460 -251 482 -228 q 411 -290 439 -275 l 443 -354 q 546 -261 504 -324 q 588 -129 588 -199 q 563 -57 588 -85 q 503 -29 539 -29 z "},"Ŗ":{"ha":839,"x_min":125,"x_max":825,"o":"m 258 0 l 258 378 l 382 378 q 469 382 446 378 l 681 0 l 825 0 l 588 417 q 707 512 663 449 q 753 664 751 575 q 654 875 753 806 q 396 944 556 944 l 125 944 l 125 0 l 258 0 m 394 832 q 558 792 501 832 q 614 658 614 753 q 551 527 613 568 q 388 486 489 486 l 258 486 l 258 832 l 394 832 m 453 -29 q 394 -55 419 -29 q 368 -114 368 -81 q 390 -170 368 -144 q 436 -197 411 -196 q 410 -251 432 -228 q 361 -290 389 -275 l 393 -354 q 496 -261 454 -324 q 538 -129 538 -199 q 513 -57 538 -85 q 453 -29 489 -29 z "},"Ț":{"ha":794,"x_min":14,"x_max":781,"o":"m 14 839 l 321 839 l 321 0 l 456 0 l 456 839 l 781 839 l 763 944 l 14 944 l 14 839 m 396 -29 q 337 -55 363 -29 q 311 -114 311 -81 q 333 -170 311 -144 q 379 -197 354 -196 q 353 -251 375 -228 q 304 -290 332 -275 l 336 -354 q 439 -261 397 -324 q 481 -129 481 -199 q 456 -57 481 -85 q 396 -29 432 -29 z "},"ģ":{"ha":750,"x_min":42,"x_max":658,"o":"m 368 768 q 308 797 333 768 q 283 869 283 825 q 325 999 283 938 q 426 1093 367 1061 l 460 1029 q 383 936 393 994 q 431 909 408 935 q 453 854 453 883 q 427 794 453 821 q 368 768 401 768 m 658 -60 q 620 -194 658 -135 q 510 -286 582 -253 q 336 -319 438 -319 q 214 -301 288 -319 q 97 -253 140 -282 l 138 -157 q 242 -199 207 -187 q 332 -211 278 -211 q 471 -172 418 -211 q 524 -58 524 -132 l 524 29 q 446 -6 486 7 q 376 -18 406 -18 q 198 26 274 -18 q 82 152 122 71 q 42 342 42 233 q 83 525 42 446 q 201 648 125 604 q 378 692 278 692 q 464 675 414 692 q 556 626 514 658 l 582 674 l 658 674 l 658 -60 m 376 96 q 457 110 422 96 q 524 153 492 124 l 524 525 q 456 565 492 553 q 376 578 421 578 q 231 512 283 578 q 178 343 178 446 q 230 164 178 232 q 376 96 282 96 z "},"ķ":{"ha":676,"x_min":97,"x_max":676,"o":"m 317 325 l 521 0 l 676 0 l 408 411 l 608 603 l 531 692 l 231 399 l 231 981 l 97 965 l 97 0 l 231 0 l 231 242 l 317 325 m 379 -29 q 320 -55 346 -29 q 294 -114 294 -81 q 316 -170 294 -144 q 363 -197 338 -196 q 337 -251 358 -228 q 288 -290 315 -275 l 319 -354 q 422 -261 381 -324 q 464 -129 464 -199 q 440 -57 464 -85 q 379 -29 415 -29 z "},"ļ":{"ha":328,"x_min":78,"x_max":254,"o":"m 97 965 l 97 0 l 231 0 l 231 981 l 97 965 m 169 -29 q 110 -55 136 -29 q 85 -114 85 -81 q 106 -170 85 -144 q 153 -197 128 -196 q 127 -251 149 -228 q 78 -290 106 -275 l 110 -354 q 213 -261 171 -324 q 254 -129 254 -199 q 230 -57 254 -85 q 169 -29 206 -29 z "},"ņ":{"ha":751,"x_min":83,"x_max":674,"o":"m 217 475 q 326 552 271 522 q 429 582 382 582 q 516 544 492 582 q 540 432 540 506 l 540 0 l 674 0 l 674 444 q 620 628 674 560 q 457 696 567 696 q 322 665 390 696 q 200 585 254 633 l 176 674 l 83 674 l 83 0 l 217 0 l 217 475 m 393 -29 q 334 -55 360 -29 q 308 -114 308 -81 q 330 -170 308 -144 q 376 -197 351 -196 q 351 -251 372 -228 q 301 -290 329 -275 l 333 -354 q 436 -261 394 -324 q 478 -129 478 -199 q 453 -57 478 -85 q 393 -29 429 -29 z "},"ŗ":{"ha":469,"x_min":64,"x_max":456,"o":"m 217 446 q 336 531 269 496 q 456 567 403 567 l 426 674 q 313 639 378 674 q 201 564 249 604 l 158 674 l 83 674 l 83 0 l 217 0 l 217 446 m 156 -29 q 97 -55 122 -29 q 71 -114 71 -81 q 92 -170 71 -144 q 139 -197 114 -196 q 113 -251 135 -228 q 64 -290 92 -275 l 96 -354 q 199 -261 157 -324 q 240 -129 240 -199 q 216 -57 240 -85 q 156 -29 192 -29 z "},"ț":{"ha":474,"x_min":21,"x_max":446,"o":"m 250 864 l 117 833 l 117 665 l 21 665 l 22 564 l 117 564 l 117 188 q 174 31 117 86 q 332 -24 232 -24 q 392 -15 360 -24 q 446 6 425 -6 l 411 107 q 346 92 371 92 q 274 123 297 92 q 250 208 250 154 l 250 564 l 414 564 l 372 665 l 250 665 l 250 864 m 293 -29 q 234 -55 260 -29 q 208 -114 208 -81 q 230 -170 208 -144 q 276 -197 251 -196 q 251 -251 272 -228 q 201 -290 229 -275 l 233 -354 q 336 -261 294 -324 q 378 -129 378 -199 q 353 -57 378 -85 q 293 -29 329 -29 z "},"அ":{"ha":1497,"x_min":42,"x_max":1372,"o":"m 1372 -175 l 1251 -175 l 1251 81 l 983 81 q 777 -125 915 -50 q 453 -200 639 -200 q 241 -169 335 -200 q 94 -85 147 -139 q 42 36 42 -32 q 87 136 42 99 q 214 174 132 174 l 889 174 q 914 319 914 240 q 881 481 914 410 q 785 593 847 553 q 640 633 724 633 q 536 615 586 633 q 627 559 593 601 q 661 457 661 517 q 610 337 660 383 q 483 290 560 290 q 351 337 403 290 q 300 457 300 383 q 344 601 300 538 q 465 701 388 665 q 640 738 543 738 q 851 684 761 738 q 991 535 942 631 q 1040 319 1040 440 q 1021 174 1040 244 l 1251 174 l 1251 713 l 1372 713 l 1372 -175 m 481 390 q 529 410 510 390 q 549 457 549 429 q 530 503 549 485 q 482 522 511 522 q 432 503 451 522 q 413 457 413 485 q 432 410 413 429 q 481 390 451 390 m 453 -96 q 681 -49 581 -96 q 840 81 781 -3 l 214 81 q 180 68 192 81 q 168 36 168 56 q 205 -31 168 -1 q 306 -78 242 -61 q 453 -96 371 -96 z "},"ஆ":{"ha":1779,"x_min":42,"x_max":1765,"o":"m 1524 142 q 1699 74 1632 142 q 1765 -104 1765 6 q 1698 -320 1765 -225 q 1509 -469 1631 -415 q 1231 -524 1388 -524 q 1058 -495 1133 -524 q 941 -417 983 -467 q 899 -307 899 -368 q 952 -190 899 -235 q 1090 -146 1006 -146 l 1119 -146 l 1119 -240 l 1090 -240 q 1043 -258 1061 -240 q 1025 -307 1025 -276 q 1082 -387 1025 -354 q 1231 -419 1139 -419 q 1443 -379 1350 -419 q 1588 -267 1536 -339 q 1639 -104 1639 -194 q 1605 -3 1639 -44 q 1513 38 1571 38 q 1411 -3 1450 38 q 1372 -107 1372 -43 l 1372 -175 l 1251 -175 l 1251 81 l 983 81 q 777 -125 915 -50 q 453 -200 639 -200 q 241 -169 335 -200 q 94 -85 147 -139 q 42 36 42 -32 q 87 136 42 99 q 214 174 132 174 l 889 174 q 914 319 914 240 q 881 481 914 410 q 785 593 847 553 q 640 633 724 633 q 536 615 586 633 q 627 559 593 601 q 661 457 661 517 q 610 337 660 383 q 483 290 560 290 q 351 337 403 290 q 300 457 300 383 q 344 601 300 538 q 465 701 388 665 q 640 738 543 738 q 851 684 761 738 q 991 535 942 631 q 1040 319 1040 440 q 1021 174 1040 244 l 1251 174 l 1251 713 l 1372 713 l 1372 92 q 1524 142 1435 142 m 481 390 q 529 410 510 390 q 549 457 549 429 q 530 503 549 485 q 482 522 511 522 q 432 503 451 522 q 413 457 413 485 q 432 410 413 429 q 481 390 451 390 m 453 -96 q 681 -49 581 -96 q 840 81 781 -3 l 214 81 q 180 68 192 81 q 168 36 168 56 q 205 -31 168 -1 q 306 -78 242 -61 q 453 -96 371 -96 z "},"ஐ":{"ha":1140,"x_min":69,"x_max":1071,"o":"m 999 140 q 1039 44 1026 88 q 1051 -44 1051 0 q 1018 -167 1051 -112 q 926 -253 985 -222 q 794 -285 868 -285 q 667 -258 721 -285 q 579 -183 613 -231 q 357 -285 503 -285 q 209 -252 275 -285 q 106 -162 143 -219 q 69 -32 69 -104 q 158 163 69 92 q 444 261 247 235 l 696 294 q 877 365 811 311 q 944 493 943 418 q 909 595 944 557 q 814 633 874 633 q 703 589 747 633 q 658 476 658 544 l 658 381 l 539 381 l 539 476 q 489 589 539 544 q 363 633 439 633 q 253 601 301 633 q 359 559 318 597 q 400 461 400 521 q 356 349 400 393 q 242 306 311 306 q 125 351 171 306 q 79 468 79 397 q 116 602 79 540 q 217 701 153 664 q 363 738 282 738 q 497 708 438 738 q 596 625 556 678 q 814 738 679 738 q 1000 670 929 738 q 1071 493 1071 603 q 973 298 1071 379 q 696 193 875 217 l 444 158 q 253 95 310 140 q 196 -35 196 50 q 242 -140 196 -99 q 357 -182 288 -182 q 472 -137 426 -182 q 517 -24 517 -92 l 517 72 l 638 72 l 638 -24 q 682 -137 638 -92 q 794 -182 726 -182 q 893 -142 861 -182 q 925 -37 925 -101 q 913 41 925 -7 q 876 132 900 89 l 999 140 m 313 456 q 294 503 313 485 q 246 522 275 522 q 196 503 215 522 q 176 456 176 485 q 196 407 176 426 q 246 388 215 388 q 294 407 275 388 q 313 456 313 426 z "},"ஔ":{"ha":2847,"x_min":63,"x_max":2833,"o":"m 747 182 q 913 44 749 44 l 1015 44 l 1015 -49 l 913 -49 q 844 -43 872 -49 l 844 -69 q 812 -191 844 -137 q 719 -274 779 -244 q 579 -304 658 -304 q 433 -274 496 -304 q 335 -191 369 -244 q 301 -69 301 -137 l 301 0 l 421 0 l 421 -69 q 463 -164 421 -128 q 579 -200 506 -200 q 694 -164 651 -200 q 736 -69 736 -128 l 736 -1 q 664 78 689 29 q 639 185 639 126 l 639 374 l 747 374 q 777 290 749 322 q 854 257 806 257 q 924 291 899 257 q 949 383 949 325 q 899 514 949 456 q 763 605 850 572 q 567 638 675 638 q 313 582 419 638 q 176 438 207 526 q 278 472 218 472 q 401 426 353 472 q 450 308 450 381 q 399 188 450 235 q 269 142 349 142 q 119 206 175 142 q 63 374 63 271 q 126 563 63 479 q 305 694 190 647 q 567 742 419 742 q 828 696 713 742 q 1010 568 944 650 q 1075 383 1075 486 q 1013 217 1075 281 q 854 153 951 153 q 747 182 793 153 m 271 374 q 222 355 240 374 q 203 308 203 336 q 222 260 203 279 q 269 242 240 242 q 317 260 299 242 q 338 308 336 279 q 319 355 338 336 q 271 374 300 374 m 2578 619 l 2578 0 l 2458 0 l 2458 619 l 2129 619 l 2129 0 l 2010 0 l 2010 317 q 1966 479 2010 407 q 1844 592 1922 551 q 1669 633 1767 633 q 1490 594 1567 633 q 1374 487 1414 556 q 1333 329 1333 418 q 1385 163 1333 228 q 1381 199 1381 179 q 1445 358 1381 296 q 1608 419 1510 419 q 1733 391 1678 419 q 1820 312 1789 363 q 1851 197 1851 261 q 1819 84 1851 135 q 1729 4 1786 33 q 1600 -25 1672 -25 q 1394 22 1483 -25 q 1256 150 1304 69 q 1207 329 1207 231 q 1264 540 1207 447 q 1426 685 1321 633 q 1669 738 1531 738 q 1862 698 1774 738 q 2010 589 1950 658 l 2010 713 l 2817 713 l 2833 619 l 2578 619 m 1608 325 q 1516 289 1553 325 q 1479 197 1479 253 q 1515 106 1479 142 q 1608 69 1551 69 q 1701 106 1665 69 q 1738 197 1738 142 q 1701 289 1738 253 q 1608 325 1664 325 z "},"ச":{"ha":964,"x_min":56,"x_max":922,"o":"m 681 328 l 681 285 q 639 125 681 196 q 521 15 597 54 q 342 -25 444 -25 q 192 4 257 -25 q 92 84 128 33 q 56 200 56 135 q 100 326 56 274 q 225 403 144 379 l 225 713 l 906 713 l 922 619 l 681 619 l 681 421 l 906 421 l 922 328 l 681 328 m 363 421 l 561 421 l 561 619 l 344 619 l 344 421 l 363 421 m 365 328 q 230 294 278 328 q 182 200 182 261 q 226 113 182 147 q 342 79 269 79 q 503 136 444 79 q 561 285 561 193 l 561 328 l 365 328 z "},"எ":{"ha":1217,"x_min":69,"x_max":1203,"o":"m 949 619 l 949 0 l 828 0 l 828 619 l 549 619 q 284 542 372 619 q 196 329 196 464 q 247 163 196 228 q 243 199 243 179 q 308 358 243 296 q 471 419 372 419 q 596 391 540 419 q 683 312 651 363 q 714 197 714 261 q 681 84 714 135 q 592 4 649 33 q 463 -25 535 -25 q 256 22 346 -25 q 118 150 167 69 q 69 329 69 231 q 123 528 69 442 q 281 664 176 615 q 536 713 386 713 l 1188 713 l 1203 619 l 949 619 m 471 325 q 378 289 415 325 q 342 197 342 253 q 378 106 342 142 q 471 69 414 69 q 564 106 528 69 q 600 197 600 142 q 563 289 600 253 q 471 325 526 325 z "},"ஏ":{"ha":1217,"x_min":69,"x_max":1203,"o":"m 949 619 l 949 11 q 931 -119 949 -74 q 853 -185 914 -165 l 354 -347 l 310 -257 l 757 -107 q 815 -60 803 -92 q 828 46 828 -28 l 828 619 l 549 619 q 284 542 372 619 q 196 329 196 464 q 247 163 196 228 q 243 199 243 179 q 308 358 243 296 q 471 419 372 419 q 596 391 540 419 q 683 312 651 363 q 714 197 714 261 q 681 84 714 135 q 592 4 649 33 q 463 -25 535 -25 q 256 22 346 -25 q 118 150 167 69 q 69 329 69 231 q 123 528 69 442 q 281 664 176 615 q 536 713 386 713 l 1188 713 l 1203 619 l 949 619 m 471 325 q 378 289 415 325 q 342 197 342 253 q 378 106 342 142 q 471 69 414 69 q 564 106 528 69 q 600 197 600 142 q 563 289 600 253 q 471 325 526 325 z "},"ஹ":{"ha":2246,"x_min":69,"x_max":2176,"o":"m 1861 738 q 2094 623 2013 738 q 2176 321 2176 508 q 2124 27 2176 154 q 1967 -172 2071 -100 q 1714 -244 1863 -244 l 386 -244 q 247 -267 296 -244 q 167 -337 199 -289 l 69 -283 q 183 -187 100 -222 q 385 -151 265 -151 l 1714 -151 q 1967 -23 1882 -151 q 2051 321 2051 106 q 2005 549 2051 464 q 1861 633 1958 633 q 1751 588 1792 633 q 1710 444 1710 542 l 1710 0 l 1589 0 l 1589 432 q 1551 578 1589 522 q 1442 633 1513 633 q 1303 444 1303 633 l 1303 0 l 788 0 l 788 94 q 872 354 872 211 q 833 499 872 435 q 719 598 793 563 q 544 633 644 633 q 360 594 439 633 q 238 487 281 556 q 196 329 196 418 q 247 163 196 228 q 243 199 243 179 q 308 358 243 296 q 471 419 372 419 q 596 391 540 419 q 683 312 651 363 q 714 197 714 261 q 681 84 714 135 q 592 4 649 33 q 463 -25 535 -25 q 256 22 346 -25 q 118 150 167 69 q 69 329 69 231 q 128 540 69 447 q 295 685 188 633 q 544 738 403 738 q 783 688 681 738 q 942 552 886 639 q 999 354 999 465 q 925 94 999 214 l 1183 94 l 1183 443 q 1249 658 1183 579 q 1442 738 1315 738 q 1557 708 1504 738 q 1643 625 1610 678 q 1735 708 1679 678 q 1861 738 1792 738 m 471 325 q 378 289 415 325 q 342 197 342 253 q 378 106 342 142 q 471 69 414 69 q 564 106 528 69 q 600 197 600 142 q 563 289 600 253 q 471 325 526 325 z "},"இ":{"ha":1454,"x_min":42,"x_max":1329,"o":"m 750 988 q 1049 919 917 988 q 1255 731 1181 851 q 1329 460 1329 611 l 1329 -206 l 1210 -206 l 1210 457 q 1151 676 1210 579 q 987 828 1092 774 q 750 883 882 883 q 502 829 613 883 q 330 678 392 775 q 268 460 268 582 q 339 179 268 314 q 574 211 450 211 q 815 174 699 211 q 874 419 874 288 q 822 574 874 515 q 683 633 771 633 q 586 618 632 633 q 686 563 649 607 q 724 457 724 519 q 672 337 722 383 q 546 290 622 290 q 414 338 465 290 q 363 457 363 385 q 402 601 363 538 q 514 701 442 665 q 683 738 586 738 q 849 697 778 738 q 960 583 921 656 q 1000 419 1000 511 q 926 125 1000 261 q 1044 22 1001 81 q 1086 -107 1086 -37 q 1027 -228 1086 -181 q 875 -275 968 -275 q 576 -201 726 -275 q 253 -275 418 -275 q 101 -228 161 -275 q 42 -107 42 -181 q 91 28 42 -33 q 226 135 140 90 q 142 460 142 293 q 220 731 142 611 q 438 919 299 851 q 750 988 576 988 m 625 457 q 602 514 625 492 q 544 536 579 536 q 485 514 508 536 q 461 457 461 492 q 484 399 461 422 q 543 376 507 376 q 602 399 579 376 q 625 457 625 422 m 574 107 q 399 86 479 107 q 578 -79 472 -12 q 757 81 686 -12 q 574 107 669 107 m 253 -171 q 464 -132 358 -171 q 286 44 360 -57 q 168 -107 168 -19 q 192 -153 168 -135 q 253 -171 217 -171 m 961 -107 q 937 -31 961 -67 q 868 32 913 4 q 690 -136 792 -68 q 875 -171 783 -171 q 936 -152 911 -171 q 961 -107 961 -133 z "},"ஈ":{"ha":1063,"x_min":125,"x_max":1049,"o":"m 244 619 l 244 0 l 125 0 l 125 713 l 1032 713 l 1049 619 l 719 619 l 719 0 l 599 0 l 599 619 l 244 619 m 421 229 q 475 251 453 229 q 497 304 497 274 q 474 357 497 335 q 421 379 451 379 q 369 357 390 379 q 347 304 347 335 q 369 251 347 274 q 421 229 390 229 m 894 229 q 949 251 926 229 q 971 304 971 274 q 948 357 971 335 q 894 379 925 379 q 842 357 864 379 q 821 304 821 335 q 842 251 821 274 q 894 229 864 229 z "},"ஜ":{"ha":1140,"x_min":69,"x_max":1071,"o":"m 856 122 q 1010 66 950 122 q 1071 -82 1071 10 q 1038 -183 1071 -137 q 949 -254 1006 -228 q 819 -281 892 -281 l 679 -281 l 679 -186 l 819 -186 q 909 -156 874 -186 q 944 -82 944 -125 q 919 -8 944 -36 q 856 19 894 19 q 750 -14 796 19 q 639 -117 704 -47 q 551 -204 589 -171 q 460 -261 513 -237 q 344 -285 408 -285 q 200 -252 263 -285 q 103 -162 138 -219 q 69 -32 69 -106 q 158 163 69 92 q 444 261 247 235 l 696 294 q 877 365 811 311 q 944 493 943 418 q 909 595 944 557 q 814 633 874 633 q 703 589 747 633 q 658 476 658 544 l 658 381 l 539 381 l 539 476 q 489 589 539 544 q 363 633 439 633 q 253 601 301 633 q 359 559 318 597 q 400 461 400 521 q 356 349 400 393 q 242 306 311 306 q 125 351 171 306 q 79 468 79 397 q 116 602 79 540 q 217 701 153 664 q 363 738 282 738 q 497 708 438 738 q 596 625 556 678 q 814 738 679 738 q 1000 670 929 738 q 1071 493 1071 603 q 973 298 1071 379 q 696 193 875 217 l 444 158 q 253 95 310 140 q 196 -35 196 50 q 236 -141 196 -100 q 344 -182 276 -182 q 451 -148 404 -182 q 565 -44 499 -114 q 656 44 618 11 q 744 99 694 76 q 856 122 794 122 m 313 456 q 294 503 313 485 q 246 522 275 522 q 196 503 215 522 q 176 456 176 485 q 196 407 176 426 q 246 388 215 388 q 294 407 275 388 q 313 456 313 426 z "},"க":{"ha":1064,"x_min":56,"x_max":1022,"o":"m 722 421 q 943 358 864 421 q 1022 194 1022 296 q 938 36 1022 97 q 706 -25 854 -25 l 706 69 q 848 103 800 69 q 896 194 896 138 q 853 291 896 254 q 724 328 810 328 l 681 328 l 681 285 q 639 125 681 196 q 521 15 597 54 q 342 -25 444 -25 q 192 4 257 -25 q 92 84 128 33 q 56 200 56 135 q 100 326 56 274 q 225 403 144 379 l 225 713 l 906 713 l 922 619 l 681 619 l 681 421 l 722 421 m 363 421 l 561 421 l 561 619 l 344 619 l 344 421 l 363 421 m 365 328 q 230 294 278 328 q 182 200 182 261 q 226 113 182 147 q 342 79 269 79 q 503 136 444 79 q 561 285 561 193 l 561 328 l 365 328 z "},"ல":{"ha":1444,"x_min":69,"x_max":1375,"o":"m 1257 732 q 1345 524 1315 636 q 1375 324 1375 413 q 1301 69 1375 163 q 1090 -25 1228 -25 q 892 57 963 -25 q 822 290 822 139 l 822 354 q 741 558 822 485 q 519 632 660 632 q 346 593 419 632 q 234 485 272 554 q 196 329 196 417 q 250 158 196 225 q 246 199 246 178 q 275 311 246 261 q 356 390 304 361 q 471 418 407 418 q 596 390 540 418 q 683 310 651 361 q 714 197 714 260 q 681 84 714 135 q 592 4 649 33 q 463 -25 535 -25 q 256 22 346 -25 q 118 150 167 69 q 69 329 69 231 q 124 535 69 442 q 281 683 178 628 q 519 738 383 738 q 742 690 647 738 q 890 557 838 643 q 942 354 942 471 l 942 290 q 979 133 942 185 q 1094 82 1017 82 q 1211 145 1174 82 q 1249 324 1249 208 q 1219 524 1249 413 q 1135 713 1190 635 l 1257 732 m 471 325 q 378 289 415 325 q 342 197 342 253 q 378 106 342 142 q 471 69 414 69 q 564 106 528 69 q 600 197 600 142 q 563 289 600 253 q 471 325 526 325 z "},"ள":{"ha":1710,"x_min":69,"x_max":1696,"o":"m 1440 619 l 1440 0 l 1321 0 l 1321 619 l 992 619 l 992 0 l 872 0 l 872 317 q 828 479 872 407 q 707 592 785 551 q 532 633 629 633 q 353 594 429 633 q 236 487 276 556 q 196 329 196 418 q 247 163 196 228 q 243 199 243 179 q 308 358 243 296 q 471 419 372 419 q 596 391 540 419 q 683 312 651 363 q 714 197 714 261 q 681 84 714 135 q 592 4 649 33 q 463 -25 535 -25 q 256 22 346 -25 q 118 150 167 69 q 69 329 69 231 q 126 540 69 447 q 288 685 183 633 q 532 738 393 738 q 724 698 636 738 q 872 589 813 658 l 872 713 l 1679 713 l 1696 619 l 1440 619 m 471 325 q 378 289 415 325 q 342 197 342 253 q 378 106 342 142 q 471 69 414 69 q 564 106 528 69 q 600 197 600 142 q 563 289 600 253 q 471 325 526 325 z "},"ழ":{"ha":1181,"x_min":125,"x_max":1111,"o":"m 644 -43 q 668 -121 644 -97 q 738 -144 692 -144 l 944 -144 l 960 -237 l 729 -237 q 613 -369 693 -319 q 431 -419 533 -419 q 283 -388 347 -419 q 183 -300 218 -357 q 147 -169 147 -243 l 268 -169 q 314 -275 268 -235 q 431 -315 360 -315 q 543 -286 496 -315 q 614 -211 590 -257 q 548 -150 572 -190 q 524 -56 524 -110 l 524 0 l 125 0 l 125 713 l 244 719 l 244 94 l 524 94 l 524 443 q 594 663 524 588 q 788 738 664 738 q 962 684 889 738 q 1073 537 1035 631 q 1111 321 1111 443 q 1035 87 1111 174 q 804 0 960 0 l 644 0 l 644 -43 m 804 94 q 944 154 903 94 q 985 321 985 214 q 935 548 985 463 q 788 633 885 633 q 644 444 644 633 l 644 94 l 804 94 z "},"ம":{"ha":1181,"x_min":125,"x_max":1111,"o":"m 788 738 q 962 684 889 738 q 1073 537 1035 631 q 1111 321 1111 443 q 1035 87 1111 174 q 804 0 960 0 l 125 0 l 125 713 l 244 719 l 244 94 l 524 94 l 524 443 q 594 663 524 588 q 788 738 664 738 m 804 94 q 944 154 903 94 q 985 321 985 214 q 935 548 985 463 q 788 633 885 633 q 644 444 644 633 l 644 94 l 804 94 z "},"ந":{"ha":1089,"x_min":125,"x_max":1019,"o":"m 751 489 q 892 447 831 489 q 986 328 953 404 q 1019 157 1019 253 q 976 -51 1019 40 q 854 -193 933 -142 q 668 -244 775 -244 l 442 -244 q 303 -267 351 -244 q 222 -337 254 -289 l 125 -283 q 238 -187 156 -222 q 440 -151 321 -151 l 668 -151 q 834 -65 774 -151 q 894 157 894 21 q 857 322 894 260 q 750 385 819 385 q 643 337 685 385 q 601 215 601 289 l 601 0 l 482 0 l 482 619 l 244 619 l 244 0 l 125 0 l 125 713 l 840 713 l 857 619 l 601 619 l 601 429 q 669 474 631 458 q 751 489 708 489 z "},"ங":{"ha":1397,"x_min":125,"x_max":1272,"o":"m 1272 0 l 482 0 l 482 94 l 679 94 q 823 142 776 94 q 869 272 869 190 q 835 373 869 332 q 743 414 800 414 q 640 374 679 414 q 601 269 601 333 l 601 213 l 482 213 l 482 619 l 244 619 l 244 0 l 125 0 l 125 713 l 840 713 l 857 619 l 601 619 l 601 469 q 754 518 668 518 q 928 449 863 518 q 994 272 994 381 q 924 94 994 161 l 1153 94 l 1153 713 l 1272 713 l 1272 0 z "},"ண":{"ha":2388,"x_min":69,"x_max":2374,"o":"m 2118 619 l 2118 0 l 1999 0 l 1999 619 l 1872 619 q 1693 583 1774 619 q 1792 431 1757 518 q 1826 244 1826 344 q 1763 49 1826 124 q 1588 -25 1699 -25 q 1412 50 1476 -25 q 1347 244 1347 125 q 1389 433 1347 344 q 1506 585 1431 521 q 1308 633 1415 633 q 1107 582 1197 633 q 1227 428 1185 515 q 1269 244 1269 342 q 1205 50 1269 125 q 1029 -25 1140 -25 q 853 50 918 -25 q 789 244 789 125 q 822 426 789 342 q 915 576 854 511 q 644 633 794 633 q 409 592 511 633 q 251 480 307 551 q 196 317 196 408 q 249 153 196 217 q 243 199 243 171 q 308 358 243 296 q 471 419 372 419 q 596 391 540 419 q 683 312 651 363 q 714 197 714 261 q 681 84 714 135 q 592 4 649 33 q 463 -25 535 -25 q 256 19 344 -25 q 118 142 167 64 q 69 317 69 219 q 141 533 69 438 q 344 683 213 629 q 644 738 475 738 q 1006 651 847 738 q 1308 738 1135 738 q 1610 653 1478 738 q 1872 713 1729 713 l 2357 713 l 2374 619 l 2118 619 m 1701 244 q 1673 396 1701 325 q 1593 519 1644 467 q 1505 398 1536 469 q 1474 244 1474 326 q 1502 124 1474 168 q 1588 79 1531 79 q 1673 124 1644 79 q 1701 244 1701 168 m 1143 244 q 1110 392 1143 324 q 1017 511 1078 460 q 942 392 968 460 q 915 244 915 324 q 944 124 915 168 q 1029 79 972 79 q 1115 124 1086 79 q 1143 244 1143 168 m 471 325 q 378 289 415 325 q 342 197 342 253 q 378 106 342 142 q 471 69 414 69 q 564 106 528 69 q 600 197 600 142 q 563 289 600 253 q 471 325 526 325 z "},"ன":{"ha":1829,"x_min":69,"x_max":1815,"o":"m 1561 619 l 1561 0 l 1440 0 l 1440 619 l 1314 619 q 1115 574 1207 619 q 1229 424 1189 508 q 1269 244 1269 339 q 1205 50 1269 125 q 1029 -25 1140 -25 q 853 50 918 -25 q 789 244 789 125 q 826 422 789 338 q 931 569 863 506 q 644 633 806 633 q 409 592 511 633 q 251 480 307 551 q 196 317 196 408 q 249 153 196 217 q 243 199 243 171 q 308 358 243 296 q 471 419 372 419 q 596 391 540 419 q 683 312 651 363 q 714 197 714 261 q 681 84 714 135 q 592 4 649 33 q 463 -25 535 -25 q 256 19 344 -25 q 118 142 167 64 q 69 317 69 219 q 141 533 69 438 q 344 683 213 629 q 644 738 475 738 q 1026 640 861 738 q 1314 713 1153 713 l 1800 713 l 1815 619 l 1561 619 m 1143 244 q 1112 388 1143 321 q 1022 507 1081 456 q 943 390 971 457 q 915 244 915 322 q 944 124 915 168 q 1029 79 972 79 q 1115 124 1086 79 q 1143 244 1143 168 m 471 325 q 378 289 415 325 q 342 197 342 253 q 378 106 342 142 q 471 69 414 69 q 564 106 528 69 q 600 197 600 142 q 563 289 600 253 q 471 325 526 325 z "},"ஞ":{"ha":1749,"x_min":97,"x_max":1679,"o":"m 1411 489 q 1556 448 1496 489 q 1648 338 1617 407 q 1679 185 1679 269 q 1587 -99 1679 24 q 1323 -288 1494 -221 q 921 -356 1151 -356 q 485 -278 671 -356 q 198 -61 299 -201 q 97 264 97 79 q 153 518 97 393 q 300 726 210 643 l 422 713 q 278 517 333 638 q 224 261 224 396 q 308 -8 224 107 q 550 -187 393 -124 q 921 -251 707 -251 q 1258 -198 1115 -251 q 1478 -46 1401 -144 q 1554 185 1554 53 q 1520 328 1554 272 q 1410 385 1486 385 q 1303 337 1344 385 q 1261 215 1261 289 l 1261 0 l 1142 0 l 1142 619 l 899 619 q 634 542 722 619 q 546 329 546 464 q 597 163 546 228 q 593 199 593 179 q 658 358 593 296 q 821 419 722 419 q 946 391 890 419 q 1033 312 1001 363 q 1064 197 1064 261 q 1031 84 1064 135 q 942 4 999 33 q 813 -25 885 -25 q 606 22 696 -25 q 468 150 517 69 q 419 329 419 231 q 473 528 419 442 q 631 664 526 615 q 886 713 736 713 l 1500 713 l 1517 619 l 1261 619 l 1261 429 q 1329 474 1290 458 q 1411 489 1368 489 m 821 325 q 728 289 765 325 q 692 197 692 253 q 728 106 692 142 q 821 69 764 69 q 914 106 878 69 q 950 197 950 142 q 913 289 950 253 q 821 325 876 325 z "},"ஒ":{"ha":1138,"x_min":63,"x_max":1075,"o":"m 747 182 q 913 44 749 44 l 1015 44 l 1015 -49 l 913 -49 q 844 -43 872 -49 l 844 -69 q 812 -191 844 -137 q 719 -274 779 -244 q 579 -304 658 -304 q 433 -274 496 -304 q 335 -191 369 -244 q 301 -69 301 -137 l 301 0 l 421 0 l 421 -69 q 463 -164 421 -128 q 579 -200 506 -200 q 694 -164 651 -200 q 736 -69 736 -128 l 736 -1 q 664 78 689 29 q 639 185 639 126 l 639 374 l 747 374 q 777 290 749 322 q 854 257 806 257 q 924 291 899 257 q 949 383 949 325 q 899 514 949 456 q 763 605 850 572 q 567 638 675 638 q 313 582 419 638 q 176 438 207 526 q 278 472 218 472 q 401 426 353 472 q 450 308 450 381 q 399 188 450 235 q 269 142 349 142 q 119 206 175 142 q 63 374 63 271 q 126 563 63 479 q 305 694 190 647 q 567 742 419 742 q 828 696 713 742 q 1010 568 944 650 q 1075 383 1075 486 q 1013 217 1075 281 q 854 153 951 153 q 747 182 793 153 m 271 374 q 222 355 240 374 q 203 308 203 336 q 222 260 203 279 q 269 242 240 242 q 317 260 299 242 q 338 308 336 279 q 319 355 338 336 q 271 374 300 374 z "},"ௐ":{"ha":1151,"x_min":63,"x_max":1075,"o":"m 747 182 q 913 44 749 44 l 1015 44 l 1015 -49 l 913 -49 q 844 -43 872 -49 l 844 -69 q 812 -191 844 -137 q 719 -274 779 -244 q 579 -304 658 -304 q 433 -274 496 -304 q 335 -191 369 -244 q 301 -69 301 -137 l 301 0 l 421 0 l 421 -69 q 463 -164 421 -128 q 579 -200 506 -200 q 694 -164 651 -200 q 736 -69 736 -128 l 736 -1 q 664 78 689 29 q 639 185 639 126 l 639 374 l 747 374 q 777 290 749 322 q 854 257 806 257 q 924 291 899 257 q 949 383 949 325 q 899 514 949 456 q 763 605 850 572 q 567 638 675 638 q 313 582 419 638 q 176 438 207 526 q 278 472 218 472 q 401 426 353 472 q 450 308 450 381 q 399 188 450 235 q 269 142 349 142 q 119 206 175 142 q 63 374 63 271 q 126 563 63 479 q 305 694 190 647 q 567 742 419 742 q 828 696 713 742 q 1010 568 944 650 q 1075 383 1075 486 q 1013 217 1075 281 q 854 153 951 153 q 747 182 793 153 m 271 374 q 222 355 240 374 q 203 308 203 336 q 222 260 203 279 q 269 242 240 242 q 317 260 299 242 q 338 308 336 279 q 319 355 338 336 q 271 374 300 374 m 588 40 q 574 46 579 40 q 568 60 568 51 q 574 76 568 69 q 588 82 579 82 q 601 76 596 82 q 607 60 607 69 q 601 46 607 51 q 588 40 596 40 m 532 -87 l 571 -87 l 571 -36 q 585 3 571 -12 q 622 19 599 19 q 668 1 651 19 q 685 -50 685 -18 q 667 -98 685 -79 q 619 -117 650 -117 l 501 -117 l 501 15 l 532 17 l 532 -87 m 622 -87 q 645 -77 636 -87 q 654 -50 654 -67 q 647 -19 654 -31 q 626 -7 640 -7 q 603 -37 603 -7 l 603 -87 l 622 -87 z "},"ஓ":{"ha":1138,"x_min":63,"x_max":1075,"o":"m 747 182 q 913 44 750 44 l 1015 44 l 1015 -49 l 913 -49 q 836 -42 874 -49 l 836 -69 q 800 -190 836 -136 q 700 -274 764 -243 q 556 -304 636 -304 q 414 -278 476 -304 q 316 -208 351 -253 q 281 -107 281 -164 q 334 14 281 -33 q 471 61 388 61 l 500 61 l 500 -32 l 471 -32 q 420 -53 440 -32 q 400 -107 400 -75 q 444 -174 400 -147 q 556 -200 488 -200 q 679 -163 631 -200 q 728 -69 728 -126 l 728 4 q 662 83 685 36 q 639 185 639 129 l 639 374 l 747 374 q 777 290 749 322 q 854 257 806 257 q 924 291 899 257 q 949 383 949 325 q 899 514 949 456 q 763 605 850 572 q 567 638 675 638 q 313 582 419 638 q 176 438 207 526 q 278 472 218 472 q 401 426 353 472 q 450 308 450 381 q 399 188 450 235 q 269 142 349 142 q 119 206 175 142 q 63 374 63 271 q 126 563 63 479 q 305 694 190 647 q 567 742 419 742 q 828 696 713 742 q 1010 568 944 650 q 1075 383 1075 486 q 1013 217 1075 281 q 854 153 951 153 q 747 182 793 153 m 271 374 q 222 355 240 374 q 203 308 203 336 q 222 260 203 279 q 269 242 240 242 q 317 260 299 242 q 338 308 336 279 q 319 355 338 336 q 271 374 300 374 z "},"ப":{"ha":1011,"x_min":125,"x_max":886,"o":"m 125 0 l 125 713 l 244 719 l 244 94 l 767 94 l 767 713 l 886 713 l 886 0 l 125 0 z "},"ர":{"ha":963,"x_min":125,"x_max":949,"o":"m 694 11 q 688 -78 694 -44 q 662 -140 682 -112 q 599 -185 642 -167 l 225 -347 l 181 -249 l 503 -107 q 561 -57 549 -87 q 574 46 574 -26 l 574 619 l 244 619 l 244 0 l 125 0 l 125 713 l 932 713 l 949 619 l 694 619 l 694 11 z "},"ற":{"ha":1175,"x_min":111,"x_max":1106,"o":"m 789 738 q 1023 623 940 738 q 1106 321 1106 508 q 1053 27 1106 154 q 895 -172 1000 -100 q 642 -244 790 -244 l 428 -244 q 289 -267 338 -244 q 208 -337 240 -289 l 111 -283 q 224 -187 142 -222 q 426 -151 307 -151 l 642 -151 q 894 -23 810 -151 q 979 321 979 106 q 933 549 979 464 q 789 633 886 633 q 678 588 719 633 q 638 444 638 542 l 638 0 l 518 0 l 518 432 q 480 578 518 522 q 369 633 442 633 q 231 444 231 633 l 231 0 l 111 0 l 111 443 q 177 658 111 579 q 369 738 243 738 q 484 708 432 738 q 571 625 536 678 q 663 708 607 678 q 789 738 719 738 z "},"ஸ":{"ha":1851,"x_min":69,"x_max":1782,"o":"m 1664 732 q 1752 525 1722 636 q 1782 324 1782 414 q 1708 69 1782 163 q 1499 -25 1635 -25 q 1299 57 1369 -25 q 1229 290 1229 139 l 1229 451 q 1201 585 1229 538 q 1104 632 1172 632 q 985 555 1029 632 q 942 354 942 478 l 942 0 l 822 0 l 822 354 q 741 558 822 485 q 519 632 660 632 q 346 593 419 632 q 234 485 272 554 q 196 329 196 417 q 250 158 196 225 q 246 199 246 178 q 275 311 246 261 q 356 390 304 361 q 471 418 407 418 q 596 390 540 418 q 683 310 651 361 q 714 197 714 260 q 681 84 714 135 q 592 4 649 33 q 463 -25 535 -25 q 256 22 346 -25 q 118 150 167 69 q 69 329 69 231 q 124 535 69 442 q 281 683 178 628 q 519 738 383 738 q 733 695 640 738 q 878 575 825 653 q 967 695 910 653 q 1104 738 1024 738 q 1288 661 1225 738 q 1350 457 1350 585 l 1350 290 q 1388 133 1350 185 q 1501 82 1425 82 q 1656 324 1656 82 q 1626 524 1656 413 q 1542 713 1597 635 l 1664 732 m 471 325 q 378 289 415 325 q 342 197 342 253 q 378 106 342 142 q 471 69 414 69 q 564 106 528 69 q 600 197 600 142 q 563 289 600 253 q 471 325 526 325 z "},"ஶ":{"ha":1503,"x_min":111,"x_max":1433,"o":"m 1126 713 q 1358 626 1282 713 q 1433 392 1433 539 q 1395 176 1433 269 q 1284 28 1357 82 q 1110 -25 1211 -25 q 916 50 986 -25 q 846 269 846 125 l 846 619 l 654 619 l 654 269 q 580 51 654 126 q 382 -25 506 -25 q 185 51 260 -25 q 111 269 111 126 l 111 713 l 231 719 l 231 268 q 272 125 231 171 q 382 79 313 79 q 492 125 451 79 q 533 268 533 171 l 533 713 l 1126 713 m 1110 79 q 1257 165 1207 79 q 1307 392 1307 250 q 1266 560 1307 500 q 1126 619 1225 619 l 967 619 l 967 268 q 1110 79 967 79 z "},"ஷ":{"ha":1965,"x_min":69,"x_max":1840,"o":"m 1554 0 l 1554 -337 l 1435 -337 l 1435 0 l 788 0 l 788 94 q 872 354 872 211 q 833 499 872 435 q 719 598 793 563 q 544 633 644 633 q 360 594 439 633 q 238 487 281 556 q 196 329 196 418 q 247 163 196 228 q 243 199 243 179 q 308 358 243 296 q 471 419 372 419 q 596 391 540 419 q 683 312 651 363 q 714 197 714 261 q 681 84 714 135 q 592 4 649 33 q 463 -25 535 -25 q 256 22 346 -25 q 118 150 167 69 q 69 329 69 231 q 128 540 69 447 q 295 685 188 633 q 544 738 403 738 q 783 688 681 738 q 942 552 886 639 q 999 354 999 465 q 979 217 999 285 q 925 94 960 150 l 1435 94 l 1435 282 q 1350 276 1400 276 q 1203 308 1268 276 q 1102 392 1139 339 q 1065 513 1065 446 q 1131 676 1065 614 q 1311 738 1197 738 q 1488 674 1421 738 q 1554 513 1554 611 l 1554 440 q 1721 619 1661 508 l 1840 619 l 1840 0 l 1554 0 m 1350 381 q 1435 390 1386 381 l 1435 506 q 1401 598 1435 563 q 1311 633 1368 633 q 1222 601 1253 633 q 1192 513 1192 568 q 1236 419 1192 457 q 1350 381 1281 381 m 1721 428 q 1554 314 1647 350 l 1554 94 l 1721 94 l 1721 428 m 471 325 q 378 289 415 325 q 342 197 342 253 q 378 106 342 142 q 471 69 414 69 q 564 106 528 69 q 600 197 600 142 q 563 289 600 253 q 471 325 526 325 z "},"த":{"ha":1090,"x_min":56,"x_max":1035,"o":"m 710 421 q 877 381 803 421 q 993 269 951 340 q 1035 107 1035 197 q 985 -75 1035 6 q 849 -201 936 -156 q 649 -246 761 -246 l 369 -246 q 233 -268 281 -246 q 153 -339 185 -290 l 56 -285 q 169 -188 86 -224 q 371 -153 251 -153 l 649 -153 q 784 -119 725 -153 q 876 -27 843 -86 q 908 107 908 32 q 853 265 908 203 q 711 328 797 328 l 681 328 l 681 285 q 639 125 681 196 q 521 15 597 54 q 342 -25 444 -25 q 192 4 257 -25 q 92 84 128 33 q 56 200 56 135 q 100 326 56 274 q 225 403 144 379 l 225 713 l 906 713 l 922 619 l 681 619 l 681 421 l 710 421 m 363 421 l 561 421 l 561 619 l 344 619 l 344 421 l 363 421 m 365 328 q 230 294 278 328 q 182 200 182 261 q 226 113 182 147 q 342 79 269 79 q 503 136 444 79 q 561 285 561 193 l 561 328 l 365 328 z "},"ட":{"ha":1003,"x_min":125,"x_max":989,"o":"m 244 719 l 125 713 l 125 0 l 989 0 l 974 94 l 244 94 l 244 719 z "},"உ":{"ha":1376,"x_min":42,"x_max":1363,"o":"m 1363 0 l 107 0 l 107 94 l 417 94 q 574 131 504 94 q 683 233 643 168 q 722 379 722 297 q 687 510 722 451 q 589 601 651 568 q 449 633 526 633 q 239 564 319 633 q 264 565 247 565 q 419 510 358 565 q 481 371 481 456 q 419 230 481 286 q 264 174 358 174 q 151 200 201 174 q 71 274 100 226 q 42 379 42 321 q 94 563 42 482 q 240 691 147 644 q 449 738 332 738 q 654 691 563 738 q 797 563 746 644 q 849 379 849 482 q 810 217 849 290 q 703 94 772 143 l 1363 94 l 1363 0 m 367 372 q 337 447 367 417 q 261 476 307 476 q 185 447 214 476 q 156 372 156 417 q 185 297 156 326 q 261 267 214 267 q 337 297 307 267 q 367 372 367 326 z "},"ஊ":{"ha":2321,"x_min":42,"x_max":2307,"o":"m 2307 0 l 107 0 l 107 94 l 417 94 q 574 131 504 94 q 683 233 643 168 q 722 379 722 297 q 687 510 722 451 q 589 601 651 568 q 449 633 526 633 q 239 564 319 633 q 264 565 247 565 q 419 510 358 565 q 481 371 481 456 q 419 230 481 286 q 264 174 358 174 q 151 200 201 174 q 71 274 100 226 q 42 379 42 321 q 94 563 42 482 q 240 691 147 644 q 449 738 332 738 q 654 691 563 738 q 797 563 746 644 q 849 379 849 482 q 810 217 849 290 q 703 94 772 143 l 2307 94 l 2307 0 m 1274 149 q 1109 183 1182 149 q 995 280 1036 218 q 954 419 954 342 q 1001 580 954 508 q 1130 692 1047 651 q 1317 732 1213 732 q 1465 701 1397 732 q 1579 615 1532 671 l 1579 713 l 2232 713 l 2249 619 l 2049 619 l 2049 169 l 1929 169 l 1929 619 l 1699 619 l 1699 169 l 1579 169 l 1579 385 q 1545 510 1579 454 q 1451 597 1511 565 q 1317 628 1392 628 q 1194 601 1249 628 q 1108 526 1139 574 q 1076 419 1076 479 q 1099 324 1076 363 q 1149 451 1099 403 q 1279 500 1200 500 q 1417 451 1363 500 q 1472 324 1472 401 q 1446 235 1472 275 q 1374 172 1419 194 q 1274 149 1329 149 m 367 372 q 337 447 367 417 q 261 476 307 476 q 185 447 214 476 q 156 372 156 417 q 185 297 156 326 q 261 267 214 267 q 337 297 307 267 q 367 372 367 326 m 1279 408 q 1216 385 1240 408 q 1192 324 1192 363 q 1216 263 1192 288 q 1279 239 1240 239 q 1341 263 1317 239 q 1365 324 1365 288 q 1341 385 1365 363 q 1279 408 1317 408 z "},"வ":{"ha":1465,"x_min":69,"x_max":1340,"o":"m 1340 0 l 788 0 l 788 94 q 872 354 872 211 q 833 499 872 436 q 720 598 794 563 q 544 633 646 633 q 360 594 439 633 q 238 487 281 556 q 196 329 196 418 q 247 163 196 228 q 243 199 243 179 q 308 358 243 296 q 471 419 372 419 q 596 391 540 419 q 683 312 651 363 q 714 197 714 261 q 681 84 714 135 q 592 4 649 33 q 463 -25 535 -25 q 256 22 346 -25 q 118 150 167 69 q 69 329 69 231 q 128 540 69 447 q 295 685 188 633 q 544 738 403 738 q 783 688 681 738 q 942 552 886 639 q 999 354 999 465 q 978 216 999 283 q 924 94 958 149 l 1221 94 l 1221 713 l 1340 713 l 1340 0 m 471 325 q 378 289 415 325 q 342 197 342 253 q 378 106 342 142 q 471 69 414 69 q 564 106 528 69 q 600 197 600 142 q 563 289 600 253 q 471 325 526 325 z "},"ஃ":{"ha":953,"x_min":69,"x_max":883,"o":"m 476 414 q 595 459 544 414 q 646 571 646 504 q 596 686 646 640 q 476 732 546 732 q 357 686 407 732 q 307 571 307 640 q 358 459 307 504 q 476 414 408 414 m 476 500 q 423 520 444 500 q 401 571 401 540 q 423 625 401 604 q 476 646 444 646 q 530 625 508 646 q 551 571 551 604 q 530 520 551 540 q 476 500 508 500 m 239 -19 q 358 26 307 -19 q 408 139 408 71 q 358 253 408 208 q 239 299 307 299 q 120 253 171 299 q 69 139 69 208 q 120 26 69 71 q 239 -19 171 -19 m 714 -19 q 833 26 782 -19 q 883 139 883 71 q 833 253 883 208 q 714 299 782 299 q 595 253 646 299 q 544 139 544 208 q 595 26 544 71 q 714 -19 646 -19 m 239 68 q 185 88 207 68 q 164 139 164 108 q 185 192 164 171 q 239 214 207 214 q 292 192 271 214 q 314 139 314 171 q 292 88 314 108 q 239 68 271 68 m 714 68 q 660 88 682 68 q 639 139 639 108 q 660 192 639 171 q 714 214 682 214 q 767 192 746 214 q 789 139 789 171 q 767 88 789 108 q 714 68 746 68 z "},"ய":{"ha":1306,"x_min":111,"x_max":1181,"o":"m 1181 0 l 557 0 l 557 47 q 383 -25 485 -25 q 184 51 257 -25 q 111 269 111 126 l 111 713 l 231 719 l 231 268 q 383 79 231 79 q 512 137 467 79 q 557 288 557 194 l 557 713 l 678 713 l 678 94 l 1061 94 l 1061 713 l 1181 713 l 1181 0 z "},"௮":{"ha":1497,"x_min":42,"x_max":1372,"o":"m 1372 -175 l 1251 -175 l 1251 81 l 983 81 q 777 -125 915 -50 q 453 -200 639 -200 q 241 -169 335 -200 q 94 -85 147 -139 q 42 36 42 -32 q 87 136 42 99 q 214 174 132 174 l 385 174 q 312 276 338 217 q 286 407 286 336 q 333 577 286 501 q 464 695 381 653 q 653 738 547 738 q 857 684 769 738 q 992 535 944 631 q 1040 319 1040 440 q 1021 174 1040 244 l 1251 174 l 1251 713 l 1372 713 l 1372 -175 m 889 174 q 914 319 914 240 q 844 546 914 458 q 653 633 774 633 q 530 604 585 633 q 444 524 475 575 q 413 407 413 472 q 470 238 413 301 q 618 174 528 174 l 889 174 m 453 -96 q 681 -49 581 -96 q 840 81 781 -3 l 214 81 q 180 68 192 81 q 168 36 168 56 q 205 -31 168 -1 q 306 -78 242 -61 q 453 -96 371 -96 z "},"௫":{"ha":1824,"x_min":97,"x_max":1699,"o":"m 1579 467 q 1498 738 1579 619 q 1265 924 1417 857 q 908 990 1113 990 q 545 906 700 990 q 307 672 390 821 q 224 331 224 522 q 298 24 224 156 q 508 -180 372 -108 q 821 -251 643 -251 q 1082 -202 968 -251 q 1260 -60 1196 -153 q 1324 157 1324 33 q 1286 322 1324 260 q 1179 385 1249 385 q 1072 337 1114 385 q 1031 215 1031 289 l 1031 0 l 911 0 l 911 619 l 660 619 l 660 0 l 540 0 l 540 713 l 1269 713 l 1286 619 l 1031 619 l 1031 429 q 1181 489 1094 489 q 1321 447 1260 489 q 1416 328 1382 404 q 1450 157 1450 253 q 1369 -113 1450 3 q 1147 -292 1289 -229 q 821 -356 1004 -356 q 442 -270 607 -356 q 188 -28 278 -185 q 97 333 97 128 q 197 727 97 554 q 480 997 296 900 q 908 1094 664 1094 q 1326 1015 1147 1094 q 1602 792 1506 935 q 1699 469 1699 650 l 1699 0 l 1579 0 l 1579 467 z "},"௪":{"ha":1183,"x_min":56,"x_max":1128,"o":"m 681 328 l 681 285 q 639 125 681 196 q 521 15 597 54 q 342 -25 444 -25 q 192 4 257 -25 q 92 84 128 33 q 56 200 56 135 q 100 326 56 274 q 225 403 144 379 l 225 713 l 906 713 l 922 619 l 681 619 l 681 421 l 1021 421 l 1021 713 l 1128 713 l 1128 328 l 681 328 m 363 421 l 561 421 l 561 619 l 344 619 l 344 421 l 363 421 m 365 328 q 230 294 278 328 q 182 200 182 261 q 226 113 182 147 q 342 79 269 79 q 503 136 444 79 q 561 285 561 193 l 561 328 l 365 328 z "},"௯":{"ha":1392,"x_min":56,"x_max":1350,"o":"m 1088 439 q 1222 408 1163 439 q 1316 324 1282 378 q 1350 201 1350 269 q 1338 97 1350 143 q 1299 -8 1325 51 l 1175 0 q 1211 101 1197 46 q 1225 201 1225 157 q 1187 299 1225 263 q 1088 335 1149 335 q 1054 333 1065 335 q 1124 153 1124 257 q 1072 26 1124 76 q 942 -25 1019 -25 q 812 26 864 -25 q 760 153 760 76 q 822 328 760 254 l 813 328 l 681 328 l 681 285 q 639 125 681 196 q 521 15 597 54 q 342 -25 444 -25 q 192 4 257 -25 q 92 84 128 33 q 56 200 56 135 q 100 326 56 274 q 225 403 144 379 l 225 713 l 906 713 l 922 619 l 681 619 l 681 421 l 838 421 q 931 407 889 421 q 1088 439 1001 439 m 363 421 l 561 421 l 561 619 l 344 619 l 344 421 l 363 421 m 365 328 q 230 294 278 328 q 182 200 182 261 q 226 113 182 147 q 342 79 269 79 q 503 136 444 79 q 561 285 561 193 l 561 328 l 365 328 m 1010 153 q 992 229 1010 194 q 940 289 974 264 q 892 229 910 264 q 874 153 874 194 q 892 95 874 118 q 942 72 911 72 q 990 95 971 72 q 1010 153 1010 118 z "},"௧":{"ha":1064,"x_min":56,"x_max":1022,"o":"m 722 421 q 943 358 864 421 q 1022 194 1022 296 q 938 36 1022 97 q 706 -25 854 -25 l 706 69 q 848 103 800 69 q 896 194 896 138 q 853 291 896 254 q 724 328 810 328 l 681 328 l 681 285 q 639 125 681 196 q 521 15 597 54 q 342 -25 444 -25 q 192 4 257 -25 q 92 84 128 33 q 56 200 56 135 q 100 326 56 274 q 225 403 144 379 l 225 713 l 906 713 l 922 619 l 681 619 l 681 421 l 722 421 m 363 421 l 561 421 l 561 619 l 344 619 l 344 421 l 363 421 m 365 328 q 230 294 278 328 q 182 200 182 261 q 226 113 182 147 q 342 79 269 79 q 503 136 444 79 q 561 285 561 193 l 561 328 l 365 328 z "},"௭":{"ha":1081,"x_min":76,"x_max":956,"o":"m 956 0 l 835 0 l 835 619 l 556 619 q 291 542 379 619 q 203 329 203 464 q 254 163 203 228 q 250 199 250 179 q 315 358 250 296 q 478 419 379 419 q 603 391 547 419 q 690 312 658 363 q 721 197 721 261 q 688 84 721 135 q 599 4 656 33 q 469 -25 542 -25 q 263 22 353 -25 q 125 150 174 69 q 76 329 76 231 q 130 528 76 442 q 288 664 183 615 q 543 713 393 713 l 956 713 l 956 0 m 478 325 q 385 289 422 325 q 349 197 349 253 q 385 106 349 142 q 478 69 421 69 q 571 106 535 69 q 607 197 607 142 q 570 289 607 253 q 478 325 533 325 z "},"௬":{"ha":1531,"x_min":56,"x_max":1517,"o":"m 1517 0 l 1093 0 l 1093 94 q 1206 129 1167 94 q 1246 222 1246 164 q 1210 306 1246 274 q 1117 339 1174 339 q 1008 294 1050 339 q 965 182 965 250 l 965 0 l 846 0 l 846 182 q 681 328 846 324 l 681 285 q 639 125 681 196 q 521 15 597 54 q 342 -25 444 -25 q 192 4 257 -25 q 92 84 128 33 q 56 200 56 135 q 100 326 56 274 q 225 403 144 379 l 225 713 l 906 713 l 922 619 l 681 619 l 681 421 q 908 339 835 419 q 1001 415 944 388 q 1128 443 1058 443 q 1254 415 1199 443 q 1341 336 1310 386 q 1372 222 1372 286 q 1322 94 1372 149 l 1517 94 l 1517 0 m 363 421 l 561 421 l 561 619 l 344 619 l 344 421 l 363 421 m 342 79 q 503 136 444 79 q 561 285 561 193 l 561 328 l 365 328 q 230 294 278 328 q 182 200 182 261 q 226 113 182 147 q 342 79 269 79 z "},"௩":{"ha":1167,"x_min":125,"x_max":1153,"o":"m 1153 0 l 482 0 l 482 94 l 679 94 q 823 142 776 94 q 869 272 869 190 q 835 373 869 332 q 743 414 800 414 q 640 374 679 414 q 601 269 601 333 l 601 213 l 482 213 l 482 619 l 244 619 l 244 0 l 125 0 l 125 713 l 840 713 l 857 619 l 601 619 l 601 469 q 754 518 668 518 q 928 449 863 518 q 994 272 994 381 q 924 94 994 161 l 1153 94 l 1153 0 z "},"௨":{"ha":1099,"x_min":42,"x_max":1085,"o":"m 1085 0 l 107 0 l 107 94 l 417 94 q 574 131 504 94 q 683 233 643 168 q 722 379 722 297 q 687 510 722 451 q 589 601 651 568 q 449 633 526 633 q 239 564 319 633 q 264 565 247 565 q 419 510 358 565 q 481 371 481 456 q 419 230 481 286 q 264 174 358 174 q 151 200 201 174 q 71 274 100 226 q 42 379 42 321 q 94 563 42 482 q 240 691 147 644 q 449 738 332 738 q 654 691 563 738 q 797 563 746 644 q 849 379 849 482 q 810 217 849 290 q 703 94 772 143 l 1085 94 l 1085 0 m 367 372 q 337 447 367 417 q 261 476 307 476 q 185 447 214 476 q 156 372 156 417 q 185 297 156 326 q 261 267 214 267 q 337 297 307 267 q 367 372 367 326 z "},"௦":{"ha":983,"x_min":69,"x_max":914,"o":"m 492 738 q 708 688 611 738 q 859 552 804 639 q 914 357 914 465 q 859 160 914 247 q 708 24 804 74 q 492 -25 611 -25 q 276 24 372 -25 q 126 160 181 74 q 69 357 71 247 q 126 552 71 465 q 276 688 181 639 q 492 738 372 738 m 492 79 q 644 115 576 79 q 750 213 711 150 q 789 357 789 276 q 750 499 789 436 q 644 598 711 563 q 492 633 576 633 q 341 598 408 633 q 235 499 274 563 q 196 357 196 436 q 235 213 196 276 q 341 115 274 150 q 492 79 408 79 z "},"௱":{"ha":1394,"x_min":111,"x_max":1381,"o":"m 1126 0 l 1006 0 l 1006 619 l 678 619 l 678 0 l 557 0 l 557 425 q 512 576 557 518 q 383 633 467 633 q 231 444 231 633 l 231 0 l 111 0 l 111 443 q 184 662 111 586 q 383 738 257 738 q 557 665 488 738 l 557 713 l 1365 713 l 1381 619 l 1126 619 l 1126 0 z "},"௰":{"ha":1124,"x_min":69,"x_max":1054,"o":"m 938 732 q 1024 524 994 636 q 1054 324 1054 413 q 981 69 1054 163 q 771 -25 907 -25 q 563 69 633 -25 q 353 -25 492 -25 q 143 69 217 -25 q 69 324 69 163 q 99 525 69 414 q 188 732 129 636 l 310 713 q 225 524 254 635 q 196 324 196 413 q 350 82 196 82 q 464 133 426 82 q 501 290 501 185 l 501 469 l 622 469 l 622 290 q 660 133 622 185 q 775 82 697 82 q 891 145 854 82 q 928 324 928 208 q 899 524 928 413 q 814 713 869 635 l 938 732 z "},"௲":{"ha":1529,"x_min":56,"x_max":1488,"o":"m 1229 207 q 1364 174 1306 207 q 1455 81 1422 140 q 1488 -51 1488 22 q 1449 -198 1488 -133 q 1342 -299 1411 -262 q 1185 -336 1274 -336 l 983 -336 q 793 -396 833 -336 l 694 -342 q 784 -267 719 -292 q 974 -243 849 -243 l 1185 -243 q 1315 -188 1264 -243 q 1365 -51 1365 -133 q 1328 65 1365 18 q 1231 113 1290 113 l 1210 113 l 1210 92 q 1135 -87 1210 -24 q 939 -151 1060 -151 q 817 -128 871 -151 q 732 -62 763 -104 q 701 31 701 -21 q 767 158 701 108 q 933 207 832 207 l 1089 207 l 1089 328 l 681 328 l 681 285 q 639 125 681 196 q 521 15 597 54 q 342 -25 444 -25 q 192 4 257 -25 q 92 84 128 33 q 56 200 56 135 q 100 326 56 274 q 225 403 144 379 l 225 713 l 906 713 l 922 619 l 681 619 l 681 421 l 1435 421 l 1440 328 l 1210 328 l 1210 207 l 1229 207 m 363 421 l 561 421 l 561 619 l 344 619 l 344 421 l 363 421 m 365 328 q 230 294 278 328 q 182 200 182 261 q 226 113 182 147 q 342 79 269 79 q 503 136 444 79 q 561 285 561 193 l 561 328 l 365 328 m 936 113 q 857 90 886 113 q 828 31 828 68 q 858 -25 828 -3 q 939 -47 888 -47 q 1047 -11 1006 -47 q 1089 92 1089 25 l 1089 113 l 936 113 z "},"௹":{"ha":1547,"x_min":97,"x_max":1478,"o":"m 1208 489 q 1349 447 1288 489 q 1444 328 1410 404 q 1478 157 1478 253 q 1399 -108 1478 8 q 1174 -290 1321 -225 q 831 -356 1028 -356 q 442 -261 608 -356 q 187 1 276 -167 q 97 382 97 168 q 194 814 97 624 q 468 1112 292 1004 q 876 1219 644 1219 q 1150 1183 1031 1219 q 1336 1082 1269 1146 q 1403 936 1403 1018 q 1356 824 1403 868 q 1240 779 1310 779 q 1122 822 1168 779 q 1075 932 1075 865 q 1100 1017 1075 981 q 1168 1072 1125 1054 q 876 1115 1049 1115 q 533 1021 681 1115 q 304 760 385 926 q 224 381 224 593 q 297 53 224 197 q 507 -171 369 -90 q 831 -251 644 -251 q 1110 -199 992 -251 q 1290 -55 1228 -147 q 1351 157 1351 38 q 1314 322 1351 260 q 1207 385 1276 385 q 1100 337 1142 385 q 1058 215 1058 289 l 1058 0 l 939 0 l 939 619 l 660 619 l 660 0 l 540 0 l 540 713 l 1297 713 l 1314 619 l 1058 619 l 1058 429 q 1208 489 1121 489 m 1240 861 q 1291 881 1271 861 q 1311 932 1311 901 q 1291 981 1311 961 q 1240 1001 1271 1001 q 1190 981 1210 1001 q 1169 932 1169 961 q 1190 881 1169 901 q 1240 861 1210 861 z "},"௺":{"ha":1397,"x_min":125,"x_max":1397,"o":"m 1397 781 l 1024 781 l 1024 874 q 1097 906 1068 874 q 1126 990 1126 939 q 1083 1080 1126 1044 q 969 1115 1040 1115 q 899 1108 936 1115 q 951 1026 932 1071 q 969 932 969 981 q 919 803 969 850 q 789 756 868 756 q 658 803 710 756 q 607 932 607 850 q 627 1028 607 982 q 685 1113 647 1075 q 639 1115 657 1115 q 491 1060 546 1115 q 436 915 436 1004 q 486 769 436 826 q 613 713 536 713 l 840 713 l 857 619 l 601 619 l 601 429 q 669 474 631 458 q 751 489 708 489 q 892 447 831 489 q 986 328 953 404 q 1019 157 1019 253 q 976 -51 1019 40 q 854 -193 933 -142 q 668 -244 775 -244 l 442 -244 q 303 -267 351 -244 q 222 -337 254 -289 l 125 -283 q 238 -187 156 -222 q 440 -151 321 -151 l 668 -151 q 834 -65 774 -151 q 894 157 894 21 q 857 322 894 260 q 750 385 819 385 q 643 337 685 385 q 601 215 601 289 l 601 0 l 482 0 l 482 619 l 244 619 l 244 0 l 125 0 l 125 713 l 388 713 q 330 803 350 751 q 310 915 310 856 q 351 1072 310 1003 q 467 1181 392 1142 q 639 1219 542 1219 q 794 1185 722 1219 q 969 1219 875 1219 q 1116 1190 1051 1219 q 1217 1108 1181 1160 q 1253 990 1253 1056 q 1211 874 1253 926 l 1397 874 l 1397 781 m 857 932 q 796 1068 857 1019 q 740 1009 760 1044 q 719 932 719 974 q 739 875 719 897 q 789 853 758 853 q 838 875 818 853 q 857 932 857 897 z "},"௴":{"ha":1715,"x_min":125,"x_max":1715,"o":"m 1715 781 l 1342 781 l 1342 874 q 1415 906 1386 874 q 1444 990 1444 939 q 1401 1080 1444 1044 q 1288 1115 1358 1115 q 1217 1108 1254 1115 q 1269 1026 1250 1071 q 1288 932 1288 981 q 1236 803 1288 851 q 1107 756 1185 756 q 976 803 1028 756 q 924 932 924 851 q 944 1028 924 982 q 1001 1113 964 1075 q 957 1115 974 1115 q 809 1060 864 1115 q 754 915 754 1004 q 780 804 754 853 q 850 732 806 756 q 1042 597 974 708 q 1111 321 1111 486 q 1035 87 1111 174 q 804 0 960 0 l 125 0 l 125 713 l 244 719 l 244 94 l 524 94 l 524 443 q 568 628 524 557 q 694 725 613 700 q 628 915 628 806 q 669 1072 628 1003 q 785 1181 710 1142 q 957 1219 860 1219 q 1113 1186 1039 1219 q 1288 1219 1193 1219 q 1433 1190 1369 1219 q 1533 1108 1497 1160 q 1569 990 1569 1056 q 1529 874 1569 925 l 1715 874 l 1715 781 m 1174 932 q 1113 1068 1174 1018 q 1057 1008 1076 1043 q 1038 932 1038 974 q 1057 875 1038 897 q 1107 853 1076 853 q 1154 875 1135 853 q 1174 932 1174 897 m 985 321 q 935 548 985 463 q 788 633 885 633 q 644 444 644 633 l 644 94 l 804 94 q 944 154 903 94 q 985 321 985 214 z "},"௸":{"ha":2651,"x_min":69,"x_max":2526,"o":"m 2240 0 l 2240 -337 l 2121 -337 l 2121 0 l 1474 0 l 1474 94 q 1519 240 1503 164 q 1535 376 1535 315 q 1469 563 1535 492 q 1276 633 1403 633 q 1100 589 1182 633 q 1225 433 1181 521 q 1269 244 1269 344 q 1205 50 1269 125 q 1029 -25 1140 -25 q 853 50 918 -25 q 789 244 789 125 q 823 425 789 340 q 918 575 857 510 q 644 633 797 633 q 409 592 511 633 q 251 480 307 551 q 196 317 196 408 q 249 153 196 217 q 243 199 243 171 q 308 358 243 296 q 471 419 372 419 q 596 391 540 419 q 683 312 651 363 q 714 197 714 261 q 681 84 714 135 q 592 4 649 33 q 463 -25 535 -25 q 256 19 344 -25 q 118 142 167 64 q 69 317 69 219 q 141 533 69 438 q 344 683 213 629 q 644 738 475 738 q 1006 651 847 738 q 1135 715 1067 693 q 1276 738 1204 738 q 1484 692 1397 738 q 1616 564 1571 646 q 1661 376 1661 482 q 1646 240 1661 314 q 1600 94 1631 167 l 2121 94 l 2121 282 q 2036 276 2086 276 q 1890 308 1954 276 q 1788 392 1825 339 q 1751 513 1751 446 q 1817 676 1751 614 q 1997 738 1883 738 q 2174 674 2107 738 q 2240 513 2240 611 l 2240 440 q 2407 619 2347 508 l 2526 619 l 2526 0 l 2240 0 m 2036 381 q 2121 390 2072 381 l 2121 506 q 2088 598 2121 563 q 1997 633 2054 633 q 1908 601 1939 633 q 1878 513 1878 568 q 1922 419 1878 457 q 2036 381 1967 381 m 1143 244 q 1109 394 1143 325 q 1011 517 1075 464 q 940 394 965 464 q 915 244 915 325 q 944 124 915 168 q 1029 79 972 79 q 1115 124 1086 79 q 1143 244 1143 168 m 2407 428 q 2240 314 2333 350 l 2240 94 l 2407 94 l 2407 428 m 471 325 q 378 289 415 325 q 342 197 342 253 q 378 106 342 142 q 471 69 414 69 q 564 106 528 69 q 600 197 600 142 q 563 289 600 253 q 471 325 526 325 z "},"௳":{"ha":1235,"x_min":69,"x_max":1221,"o":"m 1221 0 l 788 0 l 788 94 q 872 354 872 211 q 833 499 872 435 q 719 598 793 563 q 544 633 644 633 q 360 594 439 633 q 238 487 281 556 q 196 329 196 418 q 247 163 196 228 q 243 199 243 179 q 308 358 243 296 q 471 419 372 419 q 596 391 540 419 q 683 312 651 363 q 714 197 714 261 q 681 84 714 135 q 592 4 649 33 q 463 -25 535 -25 q 256 22 346 -25 q 118 150 167 69 q 69 329 69 231 q 128 540 69 447 q 295 685 188 633 q 544 738 403 738 q 783 688 681 738 q 942 552 886 639 q 999 354 999 465 q 979 217 999 285 q 925 94 960 150 l 1221 94 l 1221 0 m 471 325 q 378 289 415 325 q 342 197 342 253 q 378 106 342 142 q 471 69 414 69 q 564 106 528 69 q 600 197 600 142 q 563 289 600 253 q 471 325 526 325 z "},"௶":{"ha":1388,"x_min":125,"x_max":1263,"o":"m 878 -222 q 734 -408 850 -337 q 442 -478 618 -478 q 208 -426 292 -478 q 125 -293 125 -375 q 184 -175 125 -221 q 340 -129 243 -129 l 767 -129 l 767 0 l 125 0 l 125 713 l 244 719 l 244 94 l 767 94 l 767 713 l 886 713 l 886 -129 l 1143 -129 l 1143 713 l 1263 713 l 1263 -222 l 878 -222 m 442 -374 q 644 -333 563 -374 q 754 -222 726 -292 l 340 -222 q 274 -242 297 -222 q 251 -293 251 -261 q 301 -351 251 -329 q 442 -374 351 -374 z "},"௷":{"ha":1896,"x_min":69,"x_max":1882,"o":"m 1882 0 l 1508 0 l 1508 94 q 1582 127 1553 94 q 1611 210 1611 160 q 1566 300 1611 265 q 1439 335 1521 335 q 1364 328 1403 335 q 1429 153 1429 256 q 1378 26 1429 76 q 1249 -25 1326 -25 q 1118 26 1171 -25 q 1065 153 1065 76 q 1142 326 1065 250 l 1119 328 l 949 328 l 949 0 l 828 0 l 828 619 l 549 619 q 284 542 372 619 q 196 329 196 464 q 247 163 196 228 q 243 199 243 179 q 308 358 243 296 q 471 419 372 419 q 596 391 540 419 q 683 312 651 363 q 714 197 714 261 q 681 84 714 135 q 592 4 649 33 q 463 -25 535 -25 q 256 22 346 -25 q 118 150 167 69 q 69 329 69 231 q 123 528 69 442 q 281 664 176 615 q 536 713 386 713 l 1188 713 l 1203 619 l 949 619 l 949 421 l 1143 421 q 1253 403 1199 421 q 1439 439 1340 439 q 1598 410 1531 439 q 1701 328 1665 381 q 1738 210 1738 276 q 1696 94 1738 144 l 1882 94 l 1882 0 m 471 325 q 378 289 415 325 q 342 197 342 253 q 378 106 342 142 q 471 69 414 69 q 564 106 528 69 q 600 197 600 142 q 563 289 600 253 q 471 325 526 325 m 1315 153 q 1299 226 1315 193 q 1253 283 1282 260 q 1199 225 1218 258 q 1179 153 1179 192 q 1199 95 1179 118 q 1249 72 1218 72 q 1297 95 1278 72 q 1315 153 1315 118 z "},"௵":{"ha":2496,"x_min":97,"x_max":2426,"o":"m 2157 489 q 2297 447 2236 489 q 2392 328 2358 404 q 2426 157 2426 253 q 2336 -129 2426 -11 q 2076 -308 2246 -247 q 1667 -369 1906 -369 l 921 -369 q 479 -298 664 -369 q 196 -90 294 -226 q 97 236 97 46 q 154 507 97 368 q 300 726 211 646 l 422 713 q 280 505 336 639 q 224 233 224 371 q 308 -41 224 74 q 550 -216 393 -156 q 921 -276 707 -276 l 1667 -276 q 2005 -226 1863 -276 q 2224 -77 2147 -175 q 2300 157 2300 21 q 2263 322 2300 260 q 2156 385 2225 385 q 2049 337 2090 385 q 2007 215 2007 289 l 2007 0 l 1888 0 l 1888 619 l 1642 619 l 1642 0 l 1138 0 l 1138 94 q 1222 354 1222 211 q 1183 499 1222 436 q 1070 598 1144 563 q 894 633 996 633 q 710 594 789 633 q 588 487 631 556 q 546 329 546 418 q 597 163 546 228 q 593 199 593 179 q 658 358 593 296 q 821 419 722 419 q 946 391 890 419 q 1033 312 1001 363 q 1064 197 1064 261 q 1031 84 1064 135 q 942 4 999 33 q 813 -25 885 -25 q 606 22 696 -25 q 468 150 517 69 q 419 329 419 231 q 478 540 419 447 q 645 685 538 633 q 894 738 753 738 q 1133 688 1031 738 q 1292 552 1236 639 q 1349 354 1349 465 q 1329 217 1349 285 q 1275 94 1310 150 l 1521 94 l 1521 713 l 2246 713 l 2263 619 l 2007 619 l 2007 429 q 2157 489 2071 489 m 821 325 q 728 289 765 325 q 692 197 692 253 q 728 106 692 142 q 821 69 764 69 q 914 106 878 69 q 950 197 950 142 q 913 289 950 253 q 821 325 876 325 z "},"ௗ":{"ha":1710,"x_min":69,"x_max":1696,"o":"m 1440 619 l 1440 0 l 1321 0 l 1321 619 l 992 619 l 992 0 l 872 0 l 872 317 q 828 479 872 407 q 707 592 785 551 q 532 633 629 633 q 353 594 429 633 q 236 487 276 556 q 196 329 196 418 q 247 163 196 228 q 243 199 243 179 q 308 358 243 296 q 471 419 372 419 q 596 391 540 419 q 683 312 651 363 q 714 197 714 261 q 681 84 714 135 q 592 4 649 33 q 463 -25 535 -25 q 256 22 346 -25 q 118 150 167 69 q 69 329 69 231 q 126 540 69 447 q 288 685 183 633 q 532 738 393 738 q 725 699 638 738 q 872 589 813 660 l 872 713 l 1679 713 l 1696 619 l 1440 619 m 471 325 q 378 289 415 325 q 342 197 342 253 q 378 106 342 142 q 471 69 414 69 q 564 106 528 69 q 600 197 600 142 q 563 289 600 253 q 471 325 526 325 z "},"ா":{"ha":935,"x_min":125,"x_max":921,"o":"m 546 0 l 546 619 l 244 619 l 244 0 l 125 0 l 125 713 l 904 713 l 921 619 l 667 619 l 667 0 l 546 0 z "},"ை":{"ha":1731,"x_min":69,"x_max":1661,"o":"m 1276 738 q 1484 692 1397 738 q 1616 564 1571 646 q 1661 376 1661 482 q 1632 183 1661 289 q 1543 -19 1603 76 l 1421 0 q 1506 184 1476 79 q 1535 376 1535 289 q 1469 563 1535 492 q 1276 633 1403 633 q 1100 589 1182 633 q 1225 433 1181 521 q 1269 244 1269 344 q 1205 50 1269 125 q 1029 -25 1140 -25 q 853 50 918 -25 q 789 244 789 125 q 823 425 789 340 q 918 575 857 510 q 644 633 797 633 q 409 592 511 633 q 251 480 307 551 q 196 317 196 408 q 249 153 196 217 q 243 199 243 171 q 308 358 243 296 q 471 419 372 419 q 596 391 540 419 q 683 312 651 363 q 714 197 714 261 q 681 84 714 135 q 592 4 649 33 q 463 -25 535 -25 q 256 19 344 -25 q 118 142 167 64 q 69 317 69 219 q 141 533 69 438 q 344 683 213 629 q 644 738 475 738 q 1006 651 847 738 q 1135 715 1067 693 q 1276 738 1204 738 m 1143 244 q 1109 394 1143 325 q 1011 517 1075 464 q 940 394 965 464 q 915 244 915 325 q 944 124 915 168 q 1029 79 972 79 q 1115 124 1086 79 q 1143 244 1143 168 m 471 325 q 378 289 415 325 q 342 197 342 253 q 378 106 342 142 q 471 69 414 69 q 564 106 528 69 q 600 197 600 142 q 563 289 600 253 q 471 325 526 325 z "},"ௌ":{"ha":3531,"x_min":76,"x_max":3517,"o":"m 551 938 q 788 881 686 938 q 944 721 889 825 q 999 479 999 617 l 999 0 l 879 0 l 879 479 q 791 738 879 642 q 551 833 703 833 q 367 783 446 833 q 245 644 288 733 q 203 442 203 556 q 250 207 203 300 q 317 360 253 300 q 478 419 381 419 q 603 391 547 419 q 690 312 658 363 q 721 197 721 261 q 688 84 721 135 q 599 4 656 33 q 469 -25 542 -25 q 267 34 357 -25 q 127 199 178 93 q 76 442 76 306 q 135 697 76 585 q 302 874 194 810 q 551 938 410 938 m 478 325 q 385 289 422 325 q 349 197 349 253 q 385 106 349 142 q 478 69 421 69 q 571 106 535 69 q 607 197 607 142 q 570 289 607 253 q 478 325 533 325 m 3261 619 l 3261 0 l 3142 0 l 3142 619 l 2813 619 l 2813 0 l 2693 0 l 2693 317 q 2649 479 2693 407 q 2528 592 2606 551 q 2353 633 2450 633 q 2174 594 2250 633 q 2057 487 2097 556 q 2017 329 2017 418 q 2068 163 2017 228 q 2064 199 2064 179 q 2128 358 2064 296 q 2292 419 2193 419 q 2417 391 2361 419 q 2503 312 2472 363 q 2535 197 2535 261 q 2502 84 2535 135 q 2413 4 2469 33 q 2283 -25 2356 -25 q 2077 22 2167 -25 q 1939 150 1988 69 q 1890 329 1890 231 q 1947 540 1890 447 q 2109 685 2004 633 q 2353 738 2214 738 q 2546 699 2458 738 q 2693 589 2633 660 l 2693 713 l 3500 713 l 3517 619 l 3261 619 m 2292 325 q 2199 289 2236 325 q 2163 197 2163 253 q 2199 106 2163 142 q 2292 69 2235 69 q 2385 106 2349 69 q 2421 197 2421 142 q 2384 289 2421 253 q 2292 325 2347 325 m 1450 638 q 1479 649 1468 638 q 1490 678 1490 660 q 1479 708 1490 696 q 1450 719 1468 719 q 1421 708 1432 719 q 1410 678 1410 696 q 1421 649 1410 660 q 1450 638 1432 638 m 1326 697 q 1297 686 1308 697 q 1286 657 1286 675 q 1297 628 1286 639 q 1326 617 1308 617 q 1356 628 1344 617 q 1367 657 1367 639 q 1356 686 1367 675 q 1326 697 1344 697 m 1575 617 q 1604 628 1593 617 q 1615 657 1615 639 q 1604 686 1615 675 q 1575 697 1593 697 q 1546 686 1557 697 q 1535 657 1535 675 q 1546 628 1535 639 q 1575 617 1557 617 m 1221 628 q 1191 616 1203 628 q 1179 586 1179 604 q 1191 557 1179 568 q 1221 546 1203 546 q 1250 557 1239 546 q 1261 586 1261 568 q 1250 616 1261 604 q 1221 628 1239 628 m 1681 546 q 1710 557 1699 546 q 1722 586 1722 568 q 1710 616 1722 604 q 1681 628 1699 628 q 1651 616 1663 628 q 1640 586 1640 604 q 1651 557 1640 568 q 1681 546 1663 546 m 1154 518 q 1124 506 1136 518 q 1113 476 1113 494 q 1124 447 1113 458 q 1154 436 1136 436 q 1183 447 1172 436 q 1194 476 1194 458 q 1183 506 1194 494 q 1154 518 1172 518 m 1747 436 q 1776 447 1765 436 q 1788 476 1788 458 q 1776 506 1788 494 q 1747 518 1765 518 q 1718 506 1729 518 q 1707 476 1707 494 q 1718 447 1707 458 q 1747 436 1729 436 m 1135 399 q 1105 387 1117 399 q 1093 357 1093 375 q 1105 328 1093 339 q 1135 318 1117 318 q 1164 328 1153 318 q 1175 357 1175 339 q 1164 387 1175 375 q 1135 399 1153 399 m 1767 318 q 1797 328 1785 318 q 1808 357 1808 339 q 1797 387 1808 375 q 1767 399 1785 399 q 1738 387 1749 399 q 1726 357 1726 375 q 1738 328 1726 339 q 1767 318 1749 318 m 1154 282 q 1124 271 1136 282 q 1113 242 1113 260 q 1124 213 1113 224 q 1154 201 1136 201 q 1183 213 1172 201 q 1194 242 1194 224 q 1183 271 1194 260 q 1154 282 1172 282 m 1747 201 q 1776 213 1765 201 q 1788 242 1788 224 q 1776 271 1788 260 q 1747 282 1765 282 q 1718 271 1729 282 q 1707 242 1707 260 q 1718 213 1707 224 q 1747 201 1729 201 m 1219 171 q 1190 160 1201 171 q 1178 131 1178 149 q 1190 101 1178 113 q 1219 90 1201 90 q 1249 101 1238 90 q 1260 131 1260 113 q 1249 160 1260 149 q 1219 171 1238 171 m 1682 90 q 1712 101 1700 90 q 1724 131 1724 113 q 1712 160 1724 149 q 1682 171 1700 171 q 1653 160 1664 171 q 1642 131 1642 149 q 1653 101 1642 113 q 1682 90 1664 90 m 1326 103 q 1297 91 1308 103 q 1286 61 1286 79 q 1297 32 1286 43 q 1326 21 1308 21 q 1356 32 1344 21 q 1367 61 1367 43 q 1356 91 1367 79 q 1326 103 1344 103 m 1575 21 q 1604 32 1593 21 q 1615 61 1615 43 q 1604 91 1615 79 q 1575 103 1593 103 q 1546 91 1557 103 q 1535 61 1535 79 q 1546 32 1535 43 q 1575 21 1557 21 m 1450 0 q 1479 11 1468 0 q 1490 40 1490 22 q 1479 70 1490 58 q 1450 82 1468 82 q 1421 70 1432 82 q 1410 40 1410 58 q 1421 11 1410 22 q 1450 0 1432 0 z "},"ெ":{"ha":1117,"x_min":69,"x_max":992,"o":"m 544 938 q 781 881 679 938 q 937 721 882 825 q 992 479 992 617 l 992 0 l 872 0 l 872 479 q 784 738 872 642 q 544 833 696 833 q 360 783 439 833 q 238 644 281 733 q 196 442 196 556 q 243 207 196 300 q 310 360 246 300 q 471 419 374 419 q 596 391 540 419 q 683 312 651 363 q 714 197 714 261 q 681 84 714 135 q 592 4 649 33 q 463 -25 535 -25 q 260 34 350 -25 q 120 199 171 93 q 69 442 69 306 q 128 697 69 585 q 295 874 188 810 q 544 938 403 938 m 471 325 q 378 289 415 325 q 342 197 342 253 q 378 106 342 142 q 471 69 414 69 q 564 106 528 69 q 600 197 600 142 q 563 289 600 253 q 471 325 526 325 z "},"ே":{"ha":944,"x_min":69,"x_max":875,"o":"m 656 397 q 813 342 750 397 q 875 200 875 286 q 792 37 875 99 q 553 -25 708 -25 q 300 37 410 -25 q 130 208 190 99 q 69 457 69 318 q 130 704 69 594 q 300 876 190 814 q 553 938 410 938 q 792 876 708 938 q 875 713 875 814 q 813 571 875 626 q 656 515 750 515 q 509 571 567 515 q 451 713 451 626 q 466 782 451 750 q 507 838 481 814 q 342 782 413 832 q 234 647 272 732 q 196 457 196 563 q 234 265 196 350 q 342 131 272 181 q 507 75 413 81 q 466 131 481 99 q 451 200 451 163 q 509 342 451 286 q 656 397 567 397 m 661 613 q 733 641 704 613 q 763 713 763 669 q 734 785 763 756 q 661 814 706 814 q 588 785 617 814 q 560 713 560 757 q 588 641 560 669 q 661 613 617 613 m 661 300 q 588 272 617 300 q 560 200 560 243 q 588 127 560 156 q 661 99 617 99 q 734 127 706 99 q 763 200 763 156 q 733 272 763 243 q 661 300 704 300 z "},"ி":{"ha":369,"x_min":-518,"x_max":244,"o":"m -192 1107 q 38 1055 -61 1107 q 190 910 136 1003 q 244 699 244 817 l 244 0 l 125 0 l 125 699 q 87 857 125 788 q -23 965 49 926 q -192 1004 -94 1004 q -343 964 -289 1004 q -397 858 -397 924 q -357 753 -397 793 q -240 713 -317 713 l -212 713 l -212 625 l -240 625 q -442 690 -367 625 q -518 858 -517 756 q -478 987 -518 931 q -365 1075 -439 1043 q -192 1107 -290 1107 z "},"ொ":{"ha":2740,"x_min":69,"x_max":2699,"o":"m 544 938 q 781 881 679 938 q 937 721 882 825 q 992 479 992 617 l 992 0 l 872 0 l 872 479 q 784 738 872 642 q 544 833 696 833 q 360 783 439 833 q 238 644 281 733 q 196 442 196 556 q 243 207 196 300 q 310 360 246 300 q 471 419 374 419 q 596 391 540 419 q 683 312 651 363 q 714 197 714 261 q 681 84 714 135 q 592 4 649 33 q 463 -25 535 -25 q 260 34 350 -25 q 120 199 171 93 q 69 442 69 306 q 128 697 69 585 q 295 874 188 810 q 544 938 403 938 m 471 325 q 378 289 415 325 q 342 197 342 253 q 378 106 342 142 q 471 69 414 69 q 564 106 528 69 q 600 197 600 142 q 563 289 600 253 q 471 325 526 325 m 2324 0 l 2324 619 l 2022 619 l 2022 0 l 1903 0 l 1903 713 l 2682 713 l 2699 619 l 2444 619 l 2444 0 l 2324 0 m 1438 638 q 1467 649 1456 638 q 1478 678 1478 660 q 1467 708 1478 696 q 1438 719 1456 719 q 1408 708 1419 719 q 1397 678 1397 696 q 1408 649 1397 660 q 1438 638 1419 638 m 1314 697 q 1285 686 1296 697 q 1274 657 1274 675 q 1285 628 1274 639 q 1314 617 1296 617 q 1343 628 1332 617 q 1354 657 1354 639 q 1343 686 1354 675 q 1314 697 1332 697 m 1563 617 q 1592 628 1581 617 q 1603 657 1603 639 q 1592 686 1603 675 q 1563 697 1581 697 q 1533 686 1544 697 q 1522 657 1522 675 q 1533 628 1522 639 q 1563 617 1544 617 m 1208 628 q 1178 616 1190 628 q 1167 586 1167 604 q 1178 557 1167 568 q 1208 546 1190 546 q 1238 557 1226 546 q 1249 586 1249 568 q 1238 616 1249 604 q 1208 628 1226 628 m 1668 546 q 1698 557 1686 546 q 1710 586 1710 568 q 1698 616 1710 604 q 1668 628 1686 628 q 1639 616 1650 628 q 1628 586 1628 604 q 1639 557 1628 568 q 1668 546 1650 546 m 1142 518 q 1112 506 1124 518 q 1100 476 1100 494 q 1112 447 1100 458 q 1142 436 1124 436 q 1171 447 1160 436 q 1182 476 1182 458 q 1171 506 1182 494 q 1142 518 1160 518 m 1735 436 q 1764 447 1753 436 q 1775 476 1775 458 q 1764 506 1775 494 q 1735 518 1753 518 q 1706 506 1717 518 q 1694 476 1694 494 q 1706 447 1694 458 q 1735 436 1717 436 m 1122 399 q 1092 387 1104 399 q 1081 357 1081 375 q 1092 328 1081 339 q 1122 318 1104 318 q 1151 328 1140 318 q 1163 357 1163 339 q 1151 387 1163 375 q 1122 399 1140 399 m 1754 318 q 1784 328 1772 318 q 1796 357 1796 339 q 1784 387 1796 375 q 1754 399 1772 399 q 1725 387 1736 399 q 1714 357 1714 375 q 1725 328 1714 339 q 1754 318 1736 318 m 1142 282 q 1112 271 1124 282 q 1100 242 1100 260 q 1112 213 1100 224 q 1142 201 1124 201 q 1171 213 1160 201 q 1182 242 1182 224 q 1171 271 1182 260 q 1142 282 1160 282 m 1735 201 q 1764 213 1753 201 q 1775 242 1775 224 q 1764 271 1775 260 q 1735 282 1753 282 q 1706 271 1717 282 q 1694 242 1694 260 q 1706 213 1694 224 q 1735 201 1717 201 m 1207 171 q 1177 160 1189 171 q 1165 131 1165 149 q 1177 101 1165 113 q 1207 90 1189 90 q 1236 101 1225 90 q 1247 131 1247 113 q 1236 160 1247 149 q 1207 171 1225 171 m 1669 90 q 1699 101 1688 90 q 1711 131 1711 113 q 1699 160 1711 149 q 1669 171 1688 171 q 1640 160 1651 171 q 1629 131 1629 149 q 1640 101 1629 113 q 1669 90 1651 90 m 1314 103 q 1285 91 1296 103 q 1274 61 1274 79 q 1285 32 1274 43 q 1314 21 1296 21 q 1343 32 1332 21 q 1354 61 1354 43 q 1343 91 1354 79 q 1314 103 1332 103 m 1563 21 q 1592 32 1581 21 q 1603 61 1603 43 q 1592 91 1603 79 q 1563 103 1581 103 q 1533 91 1544 103 q 1522 61 1522 79 q 1533 32 1522 43 q 1563 21 1544 21 m 1438 0 q 1467 11 1456 0 q 1478 40 1478 22 q 1467 70 1478 58 q 1438 82 1456 82 q 1408 70 1419 82 q 1397 40 1397 58 q 1408 11 1397 22 q 1438 0 1419 0 z "},"ோ":{"ha":2621,"x_min":69,"x_max":2579,"o":"m 656 397 q 813 342 750 397 q 875 200 875 286 q 792 37 875 99 q 553 -25 708 -25 q 300 37 410 -25 q 130 208 190 99 q 69 457 69 318 q 130 704 69 594 q 300 876 190 814 q 553 938 410 938 q 792 876 708 938 q 875 713 875 814 q 813 571 875 626 q 656 515 750 515 q 509 571 567 515 q 451 713 451 626 q 466 782 451 750 q 507 838 481 814 q 342 782 413 832 q 234 647 272 732 q 196 457 196 563 q 234 265 196 350 q 342 131 272 181 q 507 75 413 81 q 466 131 481 99 q 451 200 451 163 q 509 342 451 286 q 656 397 567 397 m 661 613 q 733 641 704 613 q 763 713 763 669 q 734 785 763 756 q 661 814 706 814 q 588 785 617 814 q 560 713 560 757 q 588 641 560 669 q 661 613 617 613 m 661 300 q 588 272 617 300 q 560 200 560 243 q 588 127 560 156 q 661 99 617 99 q 734 127 706 99 q 763 200 763 156 q 733 272 763 243 q 661 300 704 300 m 2204 0 l 2204 619 l 1903 619 l 1903 0 l 1783 0 l 1783 713 l 2563 713 l 2579 619 l 2325 619 l 2325 0 l 2204 0 m 1303 638 q 1332 649 1321 638 q 1343 678 1343 660 q 1332 708 1343 696 q 1303 719 1321 719 q 1274 708 1285 719 q 1263 678 1263 696 q 1274 649 1263 660 q 1303 638 1285 638 m 1179 697 q 1150 686 1161 697 q 1139 657 1139 675 q 1150 628 1139 639 q 1179 617 1161 617 q 1208 628 1197 617 q 1219 657 1219 639 q 1208 686 1219 675 q 1179 697 1197 697 m 1428 617 q 1457 628 1446 617 q 1468 657 1468 639 q 1457 686 1468 675 q 1428 697 1446 697 q 1399 686 1410 697 q 1388 657 1388 675 q 1399 628 1388 639 q 1428 617 1410 617 m 1074 628 q 1044 616 1056 628 q 1032 586 1032 604 q 1044 557 1032 568 q 1074 546 1056 546 q 1103 557 1092 546 q 1114 586 1114 568 q 1103 616 1114 604 q 1074 628 1092 628 m 1533 546 q 1563 557 1551 546 q 1575 586 1575 568 q 1563 616 1575 604 q 1533 628 1551 628 q 1504 616 1515 628 q 1493 586 1493 604 q 1504 557 1493 568 q 1533 546 1515 546 m 1007 518 q 977 506 989 518 q 965 476 965 494 q 977 447 965 458 q 1007 436 989 436 q 1036 447 1025 436 q 1047 476 1047 458 q 1036 506 1047 494 q 1007 518 1025 518 m 1600 436 q 1629 447 1618 436 q 1640 476 1640 458 q 1629 506 1640 494 q 1600 518 1618 518 q 1571 506 1582 518 q 1560 476 1560 494 q 1571 447 1560 458 q 1600 436 1582 436 m 988 399 q 958 387 969 399 q 946 357 946 375 q 958 328 946 339 q 988 318 969 318 q 1017 328 1006 318 q 1028 357 1028 339 q 1017 387 1028 375 q 988 399 1006 399 m 1619 318 q 1649 328 1638 318 q 1661 357 1661 339 q 1649 387 1661 375 q 1619 399 1638 399 q 1590 387 1601 399 q 1579 357 1579 375 q 1590 328 1579 339 q 1619 318 1601 318 m 1007 282 q 977 271 989 282 q 965 242 965 260 q 977 213 965 224 q 1007 201 989 201 q 1036 213 1025 201 q 1047 242 1047 224 q 1036 271 1047 260 q 1007 282 1025 282 m 1600 201 q 1629 213 1618 201 q 1640 242 1640 224 q 1629 271 1640 260 q 1600 282 1618 282 q 1571 271 1582 282 q 1560 242 1560 260 q 1571 213 1560 224 q 1600 201 1582 201 m 1072 171 q 1042 160 1054 171 q 1031 131 1031 149 q 1042 101 1031 113 q 1072 90 1054 90 q 1101 101 1090 90 q 1113 131 1113 113 q 1101 160 1113 149 q 1072 171 1090 171 m 1535 90 q 1565 101 1553 90 q 1576 131 1576 113 q 1565 160 1576 149 q 1535 171 1553 171 q 1506 160 1517 171 q 1494 131 1494 149 q 1506 101 1494 113 q 1535 90 1517 90 m 1179 103 q 1150 91 1161 103 q 1139 61 1139 79 q 1150 32 1139 43 q 1179 21 1161 21 q 1208 32 1197 21 q 1219 61 1219 43 q 1208 91 1219 79 q 1179 103 1197 103 m 1428 21 q 1457 32 1446 21 q 1468 61 1468 43 q 1457 91 1468 79 q 1428 103 1446 103 q 1399 91 1410 103 q 1388 61 1388 79 q 1399 32 1388 43 q 1428 21 1410 21 m 1303 0 q 1332 11 1321 0 q 1343 40 1343 22 q 1332 70 1343 58 q 1303 82 1321 82 q 1274 70 1285 82 q 1263 40 1263 58 q 1274 11 1263 22 q 1303 0 1285 0 z "},"ு":{"ha":657,"x_min":-244,"x_max":615,"o":"m 363 713 q 492 684 435 713 q 583 605 550 656 q 615 490 615 554 q 584 376 615 426 q 497 297 553 325 q 371 268 440 268 q 249 297 303 268 q 164 375 194 325 q 133 489 133 425 q 176 619 133 564 l -244 619 l -244 713 l 363 713 m 371 363 q 463 399 426 363 q 500 490 500 435 q 463 583 500 546 q 371 619 426 619 q 279 583 315 619 q 243 490 243 547 q 279 399 243 435 q 371 363 315 363 z "},"ூ":{"ha":943,"x_min":-244,"x_max":901,"o":"m 518 850 q 714 803 626 850 q 851 672 801 756 q 901 485 901 589 q 846 290 901 376 q 691 154 790 203 q 467 106 592 106 l 386 106 l 386 199 l 467 199 q 624 235 554 199 q 735 338 694 272 q 775 485 775 403 q 741 621 775 560 q 648 717 707 682 q 518 751 589 751 q 367 713 432 751 q 494 683 438 713 q 583 603 551 654 q 615 490 615 553 q 550 335 615 394 q 382 276 485 276 q 262 306 315 276 q 178 389 208 336 q 147 507 147 442 q 165 619 147 569 l -244 619 l -244 713 l 214 713 q 342 814 263 778 q 518 850 421 850 m 500 490 q 463 584 500 549 q 356 619 426 619 l 278 619 q 251 508 251 567 q 288 409 251 449 q 382 369 325 369 q 467 402 435 369 q 500 490 500 435 z "},"ஂ":{"ha":0,"x_min":-169,"x_max":169,"o":"m 0 886 q 119 931 69 886 q 169 1044 169 976 q 119 1159 169 1114 q 0 1204 69 1204 q -119 1159 -68 1204 q -169 1044 -169 1114 q -119 931 -169 976 q 0 886 -68 886 m 0 972 q -53 992 -32 972 q -74 1044 -74 1013 q -53 1098 -74 1076 q 0 1119 -32 1119 q 55 1098 33 1119 q 76 1044 76 1076 q 55 992 76 1013 q 0 972 33 972 z "},"்":{"ha":0,"x_min":-74,"x_max":76,"o":"m 0 886 q 53 910 31 886 q 76 961 76 933 q 54 1014 76 992 q 0 1036 32 1036 q -52 1015 -31 1036 q -74 961 -74 993 q -52 908 -74 929 q 0 886 -31 886 z "},"ீ":{"ha":0,"x_min":-550,"x_max":104,"o":"m -208 1219 q -54 1183 -126 1219 q 61 1088 18 1147 q 104 961 104 1028 q 58 840 104 888 q -58 792 11 792 q -177 835 -131 792 q -224 946 -224 879 q -188 1044 -224 1004 q -94 1094 -153 1085 q -208 1115 -143 1115 q -363 1059 -303 1115 q -424 915 -424 1003 q -374 769 -424 826 q -247 713 -324 713 l -247 621 q -403 659 -333 621 q -511 764 -472 697 q -550 915 -550 831 q -506 1072 -550 1003 q -383 1181 -461 1142 q -208 1219 -306 1219 m -58 879 q -11 898 -29 879 q 7 944 7 917 q -11 990 7 972 q -58 1008 -29 1008 q -105 990 -86 1008 q -124 944 -124 972 q -105 898 -124 917 q -58 879 -86 879 z "}}}
